<?xml version="1.0" standalone="no"?>
<!DOCTYPE svg PUBLIC "-//W3C//DTD SVG 1.1//EN" "http://www.w3.org/Graphics/SVG/1.1/DTD/svg11.dtd" >
<svg xmlns="http://www.w3.org/2000/svg">
<metadata></metadata>
<defs>
<font id="scadaitalic" horiz-adv-x="1044" >
<font-face units-per-em="2048" ascent="1638" descent="-410" />
<missing-glyph horiz-adv-x="593" />
<glyph unicode="&#xd;" horiz-adv-x="681" />
<glyph unicode=" "  horiz-adv-x="593" />
<glyph unicode="&#x09;" horiz-adv-x="593" />
<glyph unicode="&#xa0;" horiz-adv-x="593" />
<glyph unicode="!" horiz-adv-x="593" d="M139 102q10 53 51 88t95 35q53 0 81.5 -34.5t18.5 -88.5q-10 -53 -50 -87.5t-93 -34.5t-83 34.5t-20 87.5zM227 369l148 1065h246l-230 -1065h-164z" />
<glyph unicode="&#x22;" horiz-adv-x="696" d="M238 942l45 492h215l-127 -492h-133zM555 942l45 492h215l-127 -492h-133z" />
<glyph unicode="#" horiz-adv-x="1351" d="M53 369l27 143h239l166 410h-211l25 143h244l149 369h205l-149 -369h286l150 369h205l-150 -369h207l-25 -143h-239l-166 -410h211l-27 -143h-244l-147 -369h-205l148 369h-287l-148 -369h-204l147 369h-207zM524 512h287l166 410h-287z" />
<glyph unicode="$" horiz-adv-x="1013" d="M25 92l94 123h20q33 -27 76 -47q37 -16 91 -30.5t124 -14.5q139 0 225 68.5t105 177.5q14 82 -26 134t-107.5 92t-147.5 76t-144.5 86t-101 122.5t-16.5 185.5q25 141 123 240.5t250 134.5l24 137h215l-22 -127q78 -8 134 -25.5t93 -35.5q43 -23 72 -48l-94 -122h-21 q-27 25 -65 45q-35 16 -85 31.5t-120 15.5q-57 0 -107.5 -18.5t-89.5 -49.5t-64.5 -72t-33.5 -86q-14 -82 26 -134t107.5 -92t147 -75.5t144 -86t101.5 -123t17 -185.5q-29 -160 -135.5 -265.5t-282.5 -133.5l-25 -133h-215l23 129q-78 8 -135.5 25.5t-96.5 35.5 q-45 23 -77 45z" />
<glyph unicode="%" horiz-adv-x="1638" d="M174 0l1215 1434h225l-1215 -1434h-225zM201 1085q31 178 138.5 273.5t254.5 95.5t220 -95t42 -274q-31 -178 -138.5 -273t-254.5 -95t-220 95t-42 273zM376 968.5q3 -46.5 16.5 -75.5t38 -41t54.5 -12q61 0 111.5 53t75.5 192q25 137 -7.5 191.5t-93.5 54.5t-111 -53 t-75 -193q-12 -70 -9 -116.5zM930 348q33 178 139.5 273.5t253.5 95.5q145 0 220 -96.5t42 -272.5q-31 -178 -137.5 -273t-253.5 -95t-221 95t-43 273zM1105 231q3 -47 17.5 -75.5t38 -41t53.5 -12.5q31 0 60 12.5t53.5 41t43 76t30.5 116.5q25 137 -6 191.5t-92 54.5 t-112.5 -53.5t-76.5 -192.5q-12 -70 -9 -117z" />
<glyph unicode="&#x26;" horiz-adv-x="1259" d="M74 369q12 70 47 128t86 107t111.5 92t125.5 82q-41 49 -69 105q-25 47 -41.5 110.5t-3.5 132.5q27 147 137.5 237.5t280.5 90.5q80 0 140 -23.5t98 -64.5t52.5 -97.5t1.5 -121.5q-16 -86 -70.5 -155.5t-115.5 -123.5q-72 -61 -158 -110l242 -369q33 53 53.5 121 t34.5 145h184q-20 -117 -67 -215t-115 -184l170 -256h-246l-82 123q-98 -70 -207.5 -106.5t-226.5 -36.5q-100 0 -175 28.5t-121 80.5t-63 124t-3 156zM279 369q-18 -109 41 -177.5t182 -68.5q86 0 158.5 24.5t136.5 77.5l-275 420q-96 -61 -161.5 -125.5t-81.5 -150.5z M535 1126q-8 -43 5 -84t29 -75q20 -39 47 -76q55 33 101 74q39 35 73.5 82t45.5 100q16 86 -18 130t-95 44q-70 0 -120 -47.5t-68 -147.5z" />
<glyph unicode="'" horiz-adv-x="378" d="M238 942l45 492h215l-127 -492h-133z" />
<glyph unicode="(" horiz-adv-x="583" d="M141 313q-2 129 21 260t71 260.5t117.5 249t161.5 227t203 195.5l67 -82q-154 -178 -261 -382.5t-154 -467.5q-23 -131 -25 -246.5t14.5 -220t48 -199.5t78.5 -183l-96 -82q-80 88 -134 195.5t-82 227t-30 248.5z" />
<glyph unicode=")" horiz-adv-x="583" d="M-98 -276q154 178 260 382.5t153 466.5q45 260 10.5 467t-126.5 383l96 82q80 -88 134 -195.5t82 -227t30 -249t-21 -260.5t-71 -260t-117.5 -248.5t-161.5 -227t-203 -195.5z" />
<glyph unicode="*" horiz-adv-x="839" d="M176 942l236 123l-193 123l92 123l195 -123l43 246h143l-43 -246l236 123l51 -123l-238 -123l195 -123l-94 -123l-193 123l-45 -246h-143l45 246l-238 -123z" />
<glyph unicode="+" horiz-adv-x="962" d="M115 594l28 164h338l60 338h164l-60 -338h338l-29 -164h-338l-59 -338h-164l60 338h-338z" />
<glyph unicode="," horiz-adv-x="409" d="M-4 -195q35 25 65 54q25 25 48.5 55.5t29.5 65.5q-47 0 -74.5 34.5t-17.5 87.5t49 88t86 35q61 0 90 -36.5t19 -106.5q-16 -90 -57 -154.5t-82 -107.5q-49 -51 -107 -86z" />
<glyph unicode="-" horiz-adv-x="901" d="M115 594l28 164h779l-29 -164h-778z" />
<glyph unicode="." horiz-adv-x="409" d="M47 102q10 53 51 88t95 35q53 0 81.5 -34.5t18.5 -88.5q-10 -53 -50 -87.5t-93 -34.5t-83 34.5t-20 87.5z" />
<glyph unicode="/" horiz-adv-x="839" d="M-51 0l887 1434h204l-886 -1434h-205z" />
<glyph unicode="0" horiz-adv-x="1187" d="M162.5 377q-11.5 139 23.5 340q35 199 96.5 339t141.5 229t175 129t200 40q104 0 185 -40t129 -129t59.5 -229.5t-23.5 -338.5q-35 -201 -96.5 -340t-141.5 -228.5t-174 -129t-198 -39.5t-185.5 39.5t-130.5 129t-60.5 228.5zM361 426q1 -115 27 -182.5t72 -94t103 -26.5 t112.5 26.5t104.5 94t91 182.5t73 291t30 290.5t-26.5 182t-72 94.5t-103.5 27t-112.5 -27t-104.5 -94.5t-91 -182t-73 -290.5t-30 -291z" />
<glyph unicode="1" horiz-adv-x="798" d="M51 0l25 143h225l188 1065l-229 -133l-61 113l350 246h184l-227 -1291h225l-24 -143h-656z" />
<glyph unicode="2" horiz-adv-x="1024" d="M10 0l25 143q18 102 82.5 187.5t151.5 161t185.5 145.5t184.5 140.5t148.5 145t78.5 162.5q16 92 -45 159t-192 67q-70 0 -125 -15.5t-96 -31.5q-47 -20 -82 -45h-21l-49 122q47 31 111 56q53 23 130.5 40t178.5 17q111 0 191.5 -28.5t130 -81t66.5 -124t3 -155.5 q-18 -102 -82.5 -190.5t-153 -167t-186.5 -149.5t-184 -139.5t-147.5 -136t-73.5 -139.5h665l-24 -143h-871z" />
<glyph unicode="3" horiz-adv-x="1024" d="M-6 92l94 123h21q27 -27 65 -47q35 -16 85 -30.5t120 -14.5q170 0 262 73.5t117 213.5q25 139 -42 212.5t-237 73.5h-215l27 144l540 450h-593l24 144h840l-25 -144l-540 -450q254 0 357 -116t69 -314q-35 -201 -180.5 -315.5t-407.5 -114.5q-100 0 -172 16t-119 39 q-53 25 -90 57z" />
<glyph unicode="4" horiz-adv-x="1105" d="M29 348l26 144l842 942h205l-166 -942h164l-27 -144h-164l-59 -348h-205l60 348h-676zM281 492h450l94 532q4 18 9.5 43t13.5 47q8 25 18 53h-8q-18 -29 -37 -53q-16 -23 -33.5 -47.5t-33.5 -42.5z" />
<glyph unicode="5" horiz-adv-x="1034" d="M14 92l95 123h20q27 -27 66 -47q35 -16 85 -30.5t119 -14.5q317 0 373 307q27 154 -37.5 230.5t-226.5 76.5h-246l-51 62l113 635h776l-25 -144h-571l-74 -409h133q248 0 349.5 -117t64.5 -334q-39 -217 -182.5 -333.5t-399.5 -116.5q-100 0 -171.5 16t-119.5 39 q-53 25 -90 57z" />
<glyph unicode="6" horiz-adv-x="1095" d="M143 471l66 369q57 322 211.5 468t378.5 146q88 0 153.5 -17.5t108.5 -39.5q51 -25 86 -56l-94 -122h-21q-25 25 -61 45q-31 16 -76 31.5t-102 15.5q-66 0 -124.5 -24.5t-107.5 -80t-87 -145.5t-60 -221q35 23 78 41q37 16 89 28.5t113 12.5q201 0 295 -117t55 -334 q-43 -248 -180 -369.5t-344 -121.5q-225 0 -322.5 121.5t-54.5 369.5zM348 471q-33 -184 23.5 -266t171.5 -82q100 0 182 82t115 266q29 154 -29.5 230.5t-181.5 76.5q-53 0 -97.5 -12t-76.5 -29q-37 -18 -68 -41z" />
<glyph unicode="7" horiz-adv-x="901" d="M176 1290l25 144h880l-24 -144q-84 -84 -174 -201.5t-171 -259t-145.5 -305.5t-95.5 -340l-31 -184h-204l30 184q31 176 92.5 340t138 305.5t164 259t170.5 201.5h-655z" />
<glyph unicode="8" horiz-adv-x="1146" d="M94 369q23 119 85.5 194.5t129.5 118.5q80 51 172 76q-68 25 -116 69q-41 39 -69.5 104t-10.5 165q12 74 54 138t106.5 113.5t148.5 78t184 28.5t175 -28.5t122 -78t64.5 -114t5.5 -137.5q-18 -100 -69.5 -165t-106.5 -104q-66 -45 -140 -69q84 -25 146 -76 q27 -23 49.5 -51.5t37.5 -67.5t20 -87t-5 -107q-12 -78 -58 -147.5t-119 -124t-170 -86t-212 -31.5t-201 31.5t-139 86t-74.5 124t-9.5 147.5zM299 369q-18 -109 43 -177.5t201 -68.5q139 0 225 68.5t104 177.5q10 61 -4 108t-47 84t-80 64.5t-100 50.5 q-61 -23 -118.5 -50.5t-103.5 -64.5t-78 -84t-42 -108zM489 1096q-10 -53 0.5 -94t36 -72t63.5 -53.5t81 -36.5q49 14 93 36.5t80 53.5t61.5 71.5t35.5 94.5q8 43 -3 82t-37 68.5t-64.5 47t-83.5 17.5q-47 0 -90.5 -17.5t-79 -47t-60 -68.5t-33.5 -82z" />
<glyph unicode="9" horiz-adv-x="1095" d="M96 92l94 123h21q25 -27 61 -47q31 -16 75 -30.5t104 -14.5q66 0 125 24.5t108 80t87 145.5t60 221q-37 -23 -79 -41q-37 -16 -88.5 -28.5t-112.5 -12.5q-201 0 -295 116.5t-57 334.5q45 248 182 369.5t344 121.5q225 0 322.5 -122t52.5 -369l-64 -369 q-29 -162 -83 -277.5t-128.5 -190.5t-171 -110.5t-207.5 -35.5q-90 0 -155.5 16t-108.5 39q-51 25 -86 57zM403 963q-27 -154 31.5 -231t181.5 -77q53 0 97.5 12.5t77.5 28.5q37 18 65 41l39 226q16 92 10 157.5t-32.5 108.5t-70.5 62.5t-102 19.5q-49 0 -96 -19.5 t-86 -62.5t-68.5 -108.5t-46.5 -157.5z" />
<glyph unicode=":" horiz-adv-x="409" d="M47 102q10 53 51 88t95 35q53 0 81.5 -34.5t18.5 -88.5q-10 -53 -50 -87.5t-93 -34.5t-83 34.5t-20 87.5zM193 922q10 53 50 87.5t93 34.5t83 -34.5t19 -87.5q-10 -53 -51 -88t-94 -35t-81.5 35t-18.5 88z" />
<glyph unicode=";" horiz-adv-x="409" d="M-4 -195q35 25 65 54q25 25 48.5 55.5t29.5 65.5q-47 0 -74.5 34.5t-17.5 87.5t49 88t86 35q61 0 90 -36.5t19 -106.5q-16 -90 -57 -154.5t-82 -107.5q-49 -51 -107 -86zM193 922q10 53 50 87.5t93 34.5t83 -34.5t19 -87.5q-10 -53 -51 -88t-94 -35t-81.5 35t-18.5 88z " />
<glyph unicode="&#x3c;" horiz-adv-x="962" d="M106 440l27 144l877 440l-35 -195l-629 -317l516 -317l-33 -195z" />
<glyph unicode="=" horiz-adv-x="962" d="M92 410l29 163h819l-29 -163h-819zM158 778l28 164h820l-29 -164h-819z" />
<glyph unicode="&#x3e;" horiz-adv-x="911" d="M20 0l33 195l631 317l-518 317l35 195l721 -440l-27 -144z" />
<glyph unicode="?" horiz-adv-x="942" d="M184 1341q47 31 111 56q53 23 131 40t178 17q111 0 192 -28.5t130 -81t66.5 -124t2.5 -155.5q-14 -88 -55 -148.5t-93 -106.5t-109.5 -83t-108.5 -76t-89 -87t-51 -113l-14 -82h-184l14 82q16 86 54 147t88.5 108.5t106.5 85t105.5 78.5t86 92.5t49.5 122.5 q16 92 -45.5 159t-192.5 67q-70 0 -125 -15.5t-96 -31.5q-47 -20 -82 -45h-21zM213 102q10 53 51 88t94 35t82 -34.5t19 -88.5q-10 -53 -50 -87.5t-94 -34.5q-53 0 -82.5 34.5t-19.5 87.5z" />
<glyph unicode="@" horiz-adv-x="1904" d="M147 614q33 184 126.5 342t228.5 272.5t304 180.5t353 66t330.5 -66t242 -180.5t132.5 -272t4 -342.5q-23 -127 -68 -221t-106.5 -156.5t-134 -93t-148.5 -30.5q-78 0 -127 16t-78 39q-35 25 -51 57h-10q-37 -33 -82 -57q-39 -23 -91 -39t-114 -16q-78 0 -138.5 29.5 t-97 90t-47 152.5t12.5 219t65.5 219t101 152.5t129 90.5t148.5 30q66 0 112 -21.5t75 -46.5q35 -29 55 -65h10l41 112h143l-139 -788q12 -12 25 -21q10 -8 25.5 -14t35.5 -6q35 0 75 18.5t77 61.5t67.5 113.5t48.5 174.5q29 162 1.5 294t-101.5 226.5t-188.5 145.5 t-259.5 51t-278.5 -51t-241 -145.5t-181.5 -226.5t-102 -294q-29 -162 -1.5 -294t101.5 -226t189.5 -145t261.5 -51q78 0 139 14t108 31q53 20 97 47h20l49 -123q-53 -33 -122 -57q-59 -23 -144 -39.5t-194 -16.5q-176 0 -318.5 65.5t-235 180.5t-130 272.5t-5.5 341.5z M780.5 447.5q3.5 -64.5 24 -104.5t54.5 -58.5t77 -18.5q39 0 75 14.5t64 30.5q33 20 62 47l84 471q-18 31 -43 56q-23 23 -52.5 40t-68.5 17q-43 0 -83 -18.5t-75 -58.5t-62.5 -104.5t-43.5 -156.5t-12.5 -156.5z" />
<glyph unicode="A" horiz-adv-x="1167" d="M-20 0l671 1434h267l167 -1434h-204l-50 369h-471l-176 -369h-204zM428 512h389l-65 563q-4 23 -4 48.5v47.5q0 25 2 48h-9q-6 -25 -14 -50q-8 -23 -17.5 -47t-19.5 -47z" />
<glyph unicode="B" horiz-adv-x="1177" d="M133 0l252 1434h389q111 0 190.5 -28t127.5 -75t66 -113q9 -36 9 -75q0 -33 -6 -68q-18 -100 -65 -161.5t-99 -96.5q-59 -41 -127 -59q78 -18 131 -66q23 -20 43.5 -48t35 -64.5t18.5 -83.5q1 -13 1 -28q0 -36 -7 -79q-31 -176 -170.5 -282.5t-399.5 -106.5h-389z M362 143h185q154 0 237.5 68t106.5 199q6 37 6 68q-1 82 -43 130q-60 68 -213 68h-184zM481 819h185q117 0 192.5 63.5t93.5 172.5q5 30 5 56q0 70 -38 116q-53 63 -169 63h-185z" />
<glyph unicode="C" horiz-adv-x="1054" d="M164 377q-3 37 -4 77q0 114 26 263q35 199 96.5 339t144.5 229t185.5 129t216.5 40q86 0 148.5 -17.5t105.5 -39.5q49 -25 84 -56l-94 -122h-20q-27 25 -62 45q-29 16 -71.5 31.5t-96.5 15.5q-70 0 -134 -30t-120.5 -98.5t-101.5 -183t-76 -282.5q-26 -141 -26 -243 q-1 -21 1 -41q6 -114 40 -182.5t92.5 -98t136.5 -29.5q53 0 101 14.5t83 30.5q41 20 78 47h21l49 -123q-47 -33 -105 -57q-49 -23 -117.5 -39t-154.5 -16q-123 0 -215 39.5t-145.5 129t-65.5 228.5z" />
<glyph unicode="D" horiz-adv-x="1198" d="M133 0l252 1434h307q145 0 250 -40t164 -126q58 -86 72 -222q4 -40 4 -84q0 -108 -23 -245q-35 -193 -96.5 -329t-151.5 -222t-207.5 -126t-263.5 -40h-307zM362 143h103q92 0 170 29t139.5 96.5t106.5 177t73 271.5q23 130 23 227q0 22 -1 44q-7 110 -45 177.5 t-104.5 96t-158.5 28.5h-103z" />
<glyph unicode="E" d="M133 0l252 1434h799l-25 -144h-594l-84 -471h471l-24 -143h-471l-95 -533h594l-24 -143h-799z" />
<glyph unicode="F" horiz-adv-x="1024" d="M133 0l252 1434h799l-25 -144h-594l-88 -491h471l-24 -144h-471l-115 -655h-205z" />
<glyph unicode="G" horiz-adv-x="1157" d="M168 385q-5 44 -5 94q0 107 23 238q33 193 97.5 332t150.5 229t186.5 133t208.5 43q86 0 148.5 -17.5t105.5 -39.5q49 -25 84 -56l-94 -122h-20q-27 25 -62 45q-29 16 -71.5 31.5t-96.5 15.5q-70 0 -134 -30t-120.5 -98.5t-101.5 -183t-76 -282.5q-26 -141 -26 -243 q0 -21 1 -41q7 -114 40.5 -182.5t92 -98t136.5 -29.5q31 0 59.5 7t52 14.5t37.5 13.5l13 6l82 471h-236l27 143h379l49 -61l-111 -625q-49 -33 -110 -57q-53 -23 -126 -39t-161 -16q-115 0 -205 43t-145.5 133t-71.5 229z" />
<glyph unicode="H" horiz-adv-x="1290" d="M133 0l252 1434h205l-113 -635h512l113 635h205l-252 -1434h-205l115 655h-512l-115 -655h-205z" />
<glyph unicode="I" horiz-adv-x="573" d="M133 0l252 1434h205l-252 -1434h-205z" />
<glyph unicode="J" horiz-adv-x="870" d="M-39 72l84 133h21q20 -23 45 -41q23 -16 51 -28.5t63 -12.5q117 0 187.5 63.5t95.5 202.5l184 1045h205l-184 -1045q-35 -201 -159 -305t-333 -104q-61 0 -109.5 14t-82.5 31q-39 20 -68 47z" />
<glyph unicode="K" horiz-adv-x="1136" d="M133 0l252 1434h205l-119 -676l580 676h235l-594 -697l363 -737h-236l-356 717l-125 -717h-205z" />
<glyph unicode="L" horiz-adv-x="1003" d="M133 0l252 1434h205l-228 -1291h594l-24 -143h-799z" />
<glyph unicode="M" horiz-adv-x="1720" d="M133 0l252 1434h205l276 -871q10 -29 15 -63q2 -20 4 -39h8q10 18 18 39q8 16 17.5 33.5t19.5 29.5l584 871h205l-252 -1434h-205l152 860q4 23 10 52.5t12 58.5q8 31 16 63h-8q-14 -33 -30 -63q-14 -29 -30 -58.5t-32 -52.5l-414 -604h-204l-201 604q-8 23 -13.5 52.5 t-9.5 58.5q-6 31 -8 63h-8q-4 -33 -8 -63q-4 -29 -7 -58.5t-8 -52.5l-151 -860h-205z" />
<glyph unicode="N" horiz-adv-x="1290" d="M133 0l252 1434h225l269 -912q6 -23 12 -53.5t10 -56.5q6 -33 8 -64h9q4 31 8 64q4 27 7 57.5t7 52.5l162 912h205l-252 -1434h-226l-270 911q-8 23 -13 52.5t-9 58.5q-6 31 -9 63h-8q-4 -33 -8 -63q-4 -29 -7 -58.5t-7 -52.5l-160 -911h-205z" />
<glyph unicode="O" horiz-adv-x="1228" d="M164 377q-3 36 -3 77q0 115 25 263q35 199 96.5 339t143.5 229t182.5 129t210.5 40q111 0 196 -40t136 -129t63 -229q3 -35 3 -73q0 -116 -27 -266q-35 -201 -96.5 -340t-143.5 -228.5t-181 -129t-210 -39.5t-197 39.5t-136 129t-62 228.5zM366 433q6 -114 34 -182.5 t77 -98t107 -29.5q57 0 115.5 29.5t112.5 98t98 182.5t75 284q27 145 27 250q0 17 -1 33q-5 114 -35 182.5t-78 98.5t-105 30t-116 -30t-113 -98.5t-98 -183t-75 -282.5q-26 -144 -26 -248q0 -19 1 -36z" />
<glyph unicode="P" horiz-adv-x="1157" d="M133 0l252 1434h369q262 0 366 -120q74 -86 73 -229q0 -57 -11 -122q-41 -231 -186.5 -351t-407.5 -120h-164l-86 -492h-205zM449 635h163q154 0 245 79t120 249q10 56 10 103q1 94 -41 146q-62 78 -217 78h-164z" />
<glyph unicode="Q" horiz-adv-x="1228" d="M162 411q-1 22 -1 45q0 114 25 261q35 199 96.5 339t143.5 229t182.5 129t210.5 40q111 0 196 -40t136 -129t63 -229q2 -35 2 -73q0 -116 -26 -266q-31 -176 -83 -306t-120.5 -218.5t-150.5 -138.5t-172 -64q-6 -30 -6 -55q0 -45 20 -70q29 -39 90 -39q27 0 51 10 q10 4 23 10h20l19 -133l-50 -16q-23 -6 -51 -10t-59 -4q-147 0 -217 83q-52 62 -52 154q0 33 7 70q-86 14 -150.5 64t-102.5 138.5t-44 218.5zM366 433q5 -114 33.5 -182.5t77.5 -98t107 -29.5q57 0 115.5 29.5t112.5 98t98 182.5t75 284q27 145 27 250q0 17 -1 33 q-5 114 -35 182.5t-78 98.5t-105 30t-116 -30t-113 -98.5t-98 -183t-75 -282.5q-26 -144 -26 -248q0 -19 1 -36z" />
<glyph unicode="R" horiz-adv-x="1177" d="M133 0l252 1434h348q263 0 367 -117q76 -85 75 -223q0 -52 -10 -111q-55 -328 -354 -420l244 -563h-236l-225 532h-164l-92 -532h-205zM457 676h143q307 0 361 307q8 47 8 86q0 221 -260 221h-144z" />
<glyph unicode="S" horiz-adv-x="1034" d="M35 92l94 123h21q33 -27 75 -47q37 -16 91.5 -30.5t123.5 -14.5q139 0 225.5 68.5t104.5 177.5q4 21 4 41q0 55 -30 93q-40 52 -107.5 92t-147 76t-143.5 86q-65 51 -102 123q-24 47 -24 111q0 35 7 74q14 84 57.5 155.5t108 124t149.5 81t185 28.5t171 -17.5t118 -39.5 q53 -25 90 -56l-94 -122h-21q-27 25 -65 45q-35 16 -85 31.5t-120 15.5q-53 0 -101.5 -18.5t-86 -49.5t-63.5 -72t-34 -86q-4 -21 -4 -41q0 -55 30 -93q40 -52 107.5 -92t147.5 -75.5t145 -85.5q64 -52 100 -124q24 -47 24 -110q0 -35 -7 -75q-16 -92 -59 -168t-113 -129 t-163 -82.5t-208 -29.5q-100 0 -175 16t-126 39q-59 25 -100 57z" />
<glyph unicode="T" horiz-adv-x="983" d="M197 1290l24 144h942l-24 -144h-369l-227 -1290h-205l227 1290h-368z" />
<glyph unicode="U" horiz-adv-x="1269" d="M201 451l174 983h205l-174 -983q-10 -59 -10 -107q0 -91 36 -142q55 -79 172 -79t201 79t113 249l174 983h204l-174 -983q-41 -231 -180 -351t-362 -120q-224 0 -322 120q-70 84 -69 224q0 59 12 127z" />
<glyph unicode="V" horiz-adv-x="1126" d="M231 1434h205l107 -1076q2 -23 3 -47t1 -47q0 -25 -2 -49h8q8 25 16 49q8 23 16.5 47.5t18.5 46.5l488 1076h204l-651 -1434h-266z" />
<glyph unicode="W" horiz-adv-x="1761" d="M231 1434h205l60 -1004q0 -23 -1 -51.5t-3 -52.5q-2 -29 -7 -60h9q8 31 16 60q8 25 17.5 53.5t19.5 50.5l411 1004h246l60 -1004q0 -23 -1 -51.5t-3 -52.5q-2 -29 -5 -60h9q8 31 16 60q8 25 16.5 53.5t18.5 50.5l411 1004h205l-590 -1434h-245l-60 1004q-2 26 -2 52t2 52 q0 29 2 59h-8q-10 -31 -18 -59q-8 -25 -17.5 -53.5t-19.5 -50.5l-412 -1004h-246z" />
<glyph unicode="X" horiz-adv-x="1085" d="M-20 0l505 727l-243 707h225l154 -461q4 -14 7 -29.5t7 -30.5q4 -16 6 -32h8q8 16 17 32q8 14 17 29.5t19 30.5l318 461h225l-493 -707l252 -727h-226l-162 481q-4 12 -7 28.5t-7 31.5q-4 16 -6 32h-8q-10 -16 -19 -32q-8 -14 -16 -30.5t-18 -29.5l-330 -481h-225z" />
<glyph unicode="Y" horiz-adv-x="1085" d="M201 1434h215l176 -625q4 -20 8 -40.5t6 -39.5q2 -23 2 -43h8q8 20 17 43q16 41 41 80l397 625h215l-610 -963l-82 -471h-205l82 471z" />
<glyph unicode="Z" horiz-adv-x="993" d="M0 0l27 154l835 1136h-635l25 144h881l-27 -154l-836 -1137h645l-24 -143h-891z" />
<glyph unicode="[" horiz-adv-x="634" d="M72 -348l323 1843h410l-25 -143h-205l-274 -1557h205l-25 -143h-409z" />
<glyph unicode="\" horiz-adv-x="839" d="M201 1434h205l382 -1434h-204z" />
<glyph unicode="]" horiz-adv-x="634" d="M-70 -348l23 143h205l274 1557h-205l25 143h410l-324 -1843h-408z" />
<glyph unicode="^" horiz-adv-x="880" d="M106 901l469 574h144l268 -574h-205l-170 369l-301 -369h-205z" />
<glyph unicode="_" horiz-adv-x="778" d="M-96 -266l28 164h777l-29 -164h-776z" />
<glyph unicode="`" horiz-adv-x="358" d="M221 1434h225l37 -308h-133z" />
<glyph unicode="a" d="M92 297q12 70 47 126t94.5 96t147.5 62.5t207 22.5h164l8 51q8 40 8 74q0 69 -32 111q-48 62 -148 61q-47 0 -90 -15.5t-78 -31.5q-39 -20 -74 -45h-20l-50 123q45 31 101 55q47 23 112.5 40t143.5 17q88 0 156.5 -28.5t112.5 -80.5t60 -124q9 -39 10 -81q0 -36 -7 -75 l-115 -655h-143v123h-11q-35 -41 -84 -72q-41 -29 -100 -50t-137 -21q-161 0 -235 85q-54 63 -55 159q0 35 7 73zM297 297q-4 -21 -4 -39q1 -50 29 -82q38 -43 131 -43q47 0 88 19.5t75 42.5q37 27 74 61l35 205h-164q-123 0 -187.5 -47t-76.5 -117z" />
<glyph unicode="b" horiz-adv-x="1095" d="M102 0l242 1372l72 62h143l-80 -451q35 16 72 31q33 10 75 20t89 10q88 0 157.5 -32.5t112.5 -99t57 -166.5q5 -37 4 -78q0 -71 -14 -156q-25 -135 -72 -234.5t-110.5 -166t-135 -99t-145.5 -32.5q-78 0 -129 21.5t-84 49.5q-37 31 -59 72h-10l-41 -123h-144zM352 256 q20 -35 49 -61q25 -23 61 -42.5t83 -19.5q43 0 85 20.5t80 65.5t68.5 117t48.5 176q14 85 14 150q-1 16 -1 31q-4 75 -28 121t-63.5 66.5t-89.5 20.5q-43 0 -78.5 -6t-64.5 -14q-33 -8 -57 -21z" />
<glyph unicode="c" horiz-adv-x="931" d="M141 512q47 270 188.5 401t334.5 131q78 0 136 -17t99 -40q47 -25 84 -55l-94 -123h-21q-27 25 -59 45q-29 16 -66 31.5t-84 15.5q-53 0 -102 -20.5t-90 -66.5t-71.5 -121t-49.5 -181q-14 -85 -14 -149q0 -17 1 -33q5 -74 30.5 -120t71.5 -66.5t108 -20.5q47 0 89 14.5 t77 30.5q39 20 75 47h21l49 -123q-47 -33 -102 -57q-47 -23 -112 -39t-142 -16q-208 0 -306 131q-66 88 -66 240q0 73 15 161z" />
<glyph unicode="d" horiz-adv-x="1095" d="M130 278q-5 35 -5 74q0 73 16 160q23 135 71 234.5t114.5 166t147.5 99t169 32.5q47 0 86 -10t68 -20q35 -14 61 -31l70 389l71 62h144l-252 -1434h-143v123h-11q-35 -41 -84 -72q-41 -29 -100 -50t-137 -21q-74 0 -134.5 32.5t-99.5 99t-52 166.5zM333 336 q5 -72 26.5 -117t56.5 -65.5t78 -20.5q47 0 88 19.5t75 42.5q37 27 74 61l107 604q-23 12 -52 21q-25 8 -60.5 14t-76.5 6q-49 0 -96 -20.5t-87 -66.5t-70.5 -121t-49.5 -181q-14 -81 -15 -143q1 -17 2 -33z" />
<glyph unicode="e" horiz-adv-x="1034" d="M141 512q23 135 71 234.5t115.5 166t150.5 99t175 32.5t164 -32.5t116 -99.5q43 -66 57 -166q5 -37 6 -78q0 -71 -15 -156l-6 -31l-49 -41h-594q-10 -54 -9 -98q1 -90 39 -142q58 -78 181 -77q47 0 89 14.5t77 30.5q39 20 75 47h21l49 -123q-47 -33 -102 -57 q-47 -23 -112 -39t-142 -16q-208 0 -306 131q-66 88 -66 240q0 73 15 161zM358 584h430q11 64 11 114q0 84 -30 130q-48 74 -140 73q-92 0 -167 -74.5t-104 -242.5z" />
<glyph unicode="f" horiz-adv-x="696" d="M123 0l153 881h-133l27 143h133l16 102q12 74 47 134.5t87.5 103.5t119 66.5t144.5 23.5q66 0 117 -17.5t86 -39.5q41 -25 73 -56l-94 -122h-20q-23 25 -50 45q-23 16 -53 31.5t-65 15.5q-70 0 -120 -46t-67 -139l-16 -102h276l-26 -143h-277l-153 -881h-205z" />
<glyph unicode="g" horiz-adv-x="1095" d="M55 -317l95 122h20q25 -27 57 -47q29 -16 67 -30.5t85 -14.5q131 0 204.5 63.5t98.5 203.5l10 61q-35 -18 -71 -31q-33 -12 -75 -21t-89 -9q-88 0 -158 32.5t-113 99t-56 166.5q-5 34 -5 74q0 72 16 160q23 135 71 234.5t110.5 166t134 99t145.5 32.5q78 0 129 -22.5 t84 -48.5q37 -33 59 -72h11l43 123h143l-184 -1044q-16 -92 -59.5 -168t-110 -129.5t-153.5 -83t-191 -29.5q-78 0 -136.5 16.5t-99.5 38.5q-47 25 -82 58zM332 330q4 -74 27.5 -120t63.5 -66.5t89 -20.5q41 0 78 6t65 14q33 8 60 21l106 604q-23 35 -51 61 q-25 23 -60.5 42.5t-82.5 19.5q-43 0 -85 -20.5t-80 -65.5t-67.5 -117t-48.5 -176q-15 -89 -15 -155q0 -14 1 -27z" />
<glyph unicode="h" horiz-adv-x="1116" d="M102 0l242 1372l72 62h143l-86 -492q33 29 76 51q37 18 89 34.5t118 16.5q76 0 136 -25.5t98 -71.5q38 -47 52 -111q7 -32 7 -66q0 -36 -7 -74l-120 -696h-205l121 696q4 23 4 43q0 57 -33 97q-45 54 -131 55q-47 0 -89 -19.5t-75 -42.5q-37 -27 -72 -61l-135 -768h-205z " />
<glyph unicode="i" horiz-adv-x="512" d="M102 0l181 1024h204l-180 -1024h-205zM311 1311q10 53 51 88t95 35q53 0 81 -35q21 -26 21 -62q0 -13 -2 -26q-10 -53 -50 -88t-93 -35t-83 34q-23 26 -23 63q0 12 3 26z" />
<glyph unicode="j" horiz-adv-x="512" d="M-295 -348l74 133h20q12 -16 29 -27q14 -10 33.5 -17t42.5 -7q68 0 117 46t65 138l197 1106h204l-196 -1106q-12 -74 -47 -134t-86.5 -103t-118 -67t-141.5 -24q-47 0 -83 9.5t-61 21.5q-29 12 -49 31zM311 1311q10 53 51 88t95 35q53 0 81 -35q22 -26 22 -62 q0 -12 -3 -26q-10 -53 -50 -88t-93 -35t-83 34q-23 26 -23 63q0 13 3 26z" />
<glyph unicode="k" horiz-adv-x="983" d="M102 0l242 1372l72 62h143l-156 -881l433 471h235l-457 -492l297 -532h-235l-279 512l-90 -512h-205z" />
<glyph unicode="l" horiz-adv-x="512" d="M102 0l242 1372l72 62h143l-252 -1434h-205z" />
<glyph unicode="m" horiz-adv-x="1648" d="M102 0l181 1024h143l-2 -123h10q39 39 86 72q41 27 95.5 49t119.5 22q72 0 119 -22.5t76 -48.5q33 -33 47 -72q43 39 96 72q45 27 105.5 49t130.5 22t125 -25.5t91 -71.5q36 -47 50 -111q7 -32 7 -67t-7 -73l-121 -696h-205l121 696q4 21 4 40q0 58 -32 100 q-42 56 -111 55q-39 0 -77 -16.5t-69 -34.5q-37 -23 -67 -52l-137 -788h-205l121 696q3 21 3 40q0 58 -31 100q-42 56 -112 55q-39 0 -76.5 -19.5t-68.5 -42.5q-37 -27 -70 -61l-135 -768h-205z" />
<glyph unicode="n" horiz-adv-x="1116" d="M102 0l181 1024h143l-2 -123h10q35 39 84 72q41 27 100.5 49t137.5 22q76 0 136 -25.5t98 -71.5q38 -47 52 -111q7 -32 7 -66q0 -36 -7 -74l-120 -696h-205l121 696q4 23 4 43q0 57 -33 97q-45 54 -131 55q-47 0 -89 -19.5t-75 -42.5q-37 -27 -72 -61l-135 -768h-205z " />
<glyph unicode="o" horiz-adv-x="1085" d="M141 512q47 270 189.5 401t343.5 131q100 0 175 -32.5t121 -99t60 -166.5q6 -38 6 -82q0 -69 -14 -152q-25 -135 -74 -234.5t-117.5 -166t-155.5 -99t-188 -32.5q-201 0 -297 132q-64 89 -64 239q0 73 15 161zM332 330q4 -74 27.5 -120t63.5 -66.5t89 -20.5t96 20.5 t87 66.5t72 119.5t50 182.5q14 83 14 147q0 18 -1 34q-5 75 -28.5 121t-63.5 66.5t-89 20.5t-96 -20.5t-87 -66.5t-70.5 -121t-49.5 -181q-15 -89 -14 -155q-1 -14 0 -27z" />
<glyph unicode="p" horiz-adv-x="1095" d="M29 -410l254 1434h143l-2 -123h10q35 39 84 72q41 27 100.5 49t137.5 22q74 0 134 -32.5t100 -99t52 -166.5q5 -35 5 -74q0 -73 -15 -160q-25 -135 -73 -234.5t-114.5 -166t-147.5 -99t-169 -32.5q-47 0 -86 9t-67 21q-35 12 -62 31l-67 -389l-74 -62h-143zM336 164 q23 -12 51 -21q25 -8 58.5 -14t76.5 -6q49 0 96.5 20.5t87 66.5t71.5 119.5t50 182.5q14 80 14 141q0 18 -1 35q-6 72 -27.5 117t-56.5 65.5t-78 20.5q-47 0 -89 -19.5t-75 -42.5q-37 -27 -72 -61z" />
<glyph unicode="q" horiz-adv-x="1095" d="M130 278q-5 34 -5 74q0 72 16 160q23 135 71 234.5t110.5 166t134 99t145.5 32.5q78 0 129 -22.5t84 -48.5q37 -33 59 -72h11l43 123h143l-254 -1434h-143l-49 62l67 389q-35 -18 -71 -31q-33 -12 -75 -21t-89 -9q-88 0 -158 32.5t-113 99t-56 166.5zM332 330 q4 -74 27.5 -120t63.5 -66.5t89 -20.5q41 0 78 6t65 14q33 8 60 21l106 604q-23 35 -51 61q-25 23 -60.5 42.5t-82.5 19.5q-43 0 -85 -20.5t-80 -65.5t-67.5 -117t-48.5 -176q-15 -89 -15 -155q0 -14 1 -27z" />
<glyph unicode="r" horiz-adv-x="747" d="M102 0l181 1024h143l-2 -123h10q35 39 82 72q41 27 98.5 49t130.5 22q27 0 50.5 -3t42.5 -7q23 -6 39 -10l-60 -164h-20q-20 4 -43 10q-18 4 -41.5 7.5t-46.5 3.5q-43 0 -83 -19.5t-73 -42.5q-37 -27 -70 -61l-133 -758h-205z" />
<glyph unicode="s" horiz-adv-x="942" d="M35 92l94 123h21q27 -27 63 -47q31 -16 78 -30.5t108 -14.5q131 0 190.5 41t69.5 102q2 12 2 23q-1 40 -29 66q-36 34 -94.5 58.5t-129 47t-128.5 57.5q-56 35 -90 88q-23 36 -23 88q0 25 5 54q23 131 131.5 213.5t308.5 82.5q86 0 148.5 -17t105.5 -40q51 -25 86 -55 l-94 -123h-20q-27 25 -62 45q-29 16 -71.5 31.5t-96.5 15.5q-109 0 -163 -40t-64 -93q-2 -12 -2 -23q1 -40 29 -66q36 -34 94.5 -58.5t129 -47t128 -57.5t90.5 -89q23 -37 23 -89q0 -24 -5 -51q-25 -139 -137.5 -223t-335.5 -84q-92 0 -159.5 16t-112.5 39q-53 25 -88 57z " />
<glyph unicode="t" horiz-adv-x="819" d="M143 881l23 123l313 266h92l-43 -246h256l-26 -143h-256l-101 -574q-5 -29 -5 -54q0 -53 23 -84q34 -46 103 -46q35 0 69 12t60 29q31 18 60 41h20l51 -123q-43 -29 -92 -51q-41 -20 -96 -35.5t-117 -15.5q-78 0 -135 23.5t-94 66.5q-36 43 -50 103q-7 31 -7 65 q0 33 6 69l100 574h-154z" />
<glyph unicode="u" horiz-adv-x="1126" d="M160 186q-7 31 -8 66q0 36 8 76l123 696h204l-122 -696q-4 -23 -5 -43q0 -57 34 -97q44 -54 130 -55q47 0 88 19.5t76 42.5q37 27 74 61l135 768h205l-180 -1024h-144v123h-10q-35 -41 -84 -72q-41 -29 -100.5 -50t-137.5 -21t-137 25.5t-97 71t-52 109.5z" />
<glyph unicode="v" horiz-adv-x="962" d="M160 1024h205l94 -676q4 -23 4 -47.5v-46.5q0 -25 -2 -49h8q6 25 14 49q6 23 15.5 47.5t21.5 46.5l336 676h205l-508 -1024h-246z" />
<glyph unicode="w" horiz-adv-x="1454" d="M160 1024h194l54 -625q2 -24 2 -46.5t-2 -43.5q-2 -23 -5 -43h9q6 20 14 43q6 18 14.5 43t18.5 47l274 625h246l53 -625q2 -23 3 -47t-1 -43q-2 -23 -4 -43h8q4 20 13 43q6 18 14 43t18 47l275 625h194l-446 -1024h-225l-62 645q-4 18 -4 43v47q0 25 2 53h-8 q-8 -29 -16 -53q-8 -23 -17.5 -47t-17.5 -43l-287 -645h-225z" />
<glyph unicode="x" horiz-adv-x="942" d="M-20 0l407 522l-217 502h225l113 -287q8 -25 16 -53q4 -14 6 -29h9q8 14 16 29q8 12 16.5 26.5t18.5 26.5l215 287h225l-397 -502l227 -522h-225l-123 297q-6 12 -9 26.5t-7 26.5q-4 14 -7 29h-8q-8 -14 -16 -29q-8 -12 -16.5 -26.5t-18.5 -26.5l-225 -297h-225z" />
<glyph unicode="y" horiz-adv-x="972" d="M-45 -369l74 133h20q12 -16 29 -26q14 -10 33.5 -17.5t42.5 -7.5q53 0 101 41t77 103l67 143h-82l-157 1024h205l104 -676q4 -23 6 -51.5t4 -52.5q2 -29 4 -60h9q12 31 24 60q10 25 21.5 53.5t21.5 50.5l307 676h205l-534 -1167q-55 -123 -156.5 -205t-233.5 -82 q-47 0 -82.5 9t-60.5 22q-29 12 -49 30z" />
<glyph unicode="z" horiz-adv-x="901" d="M20 0l27 154l629 727h-502l27 143h747l-28 -154l-629 -727h512l-25 -143h-758z" />
<glyph unicode="{" horiz-adv-x="665" d="M119 502l24 143q78 0 123 43t66 152l65 368q23 123 124.5 205t262.5 82h72l-25 -143h-71q-61 0 -104.5 -37t-53.5 -107l-65 -368q-16 -92 -51 -145.5t-70 -80.5q-41 -33 -90 -41q43 -10 73 -41q27 -29 43.5 -81t-0.5 -144l-65 -368q-12 -70 17.5 -107t90.5 -37h72 l-25 -143h-71q-80 0 -139.5 21.5t-96.5 60.5t-50 91t-3 114l66 368q18 109 -11.5 152t-107.5 43z" />
<glyph unicode="|" horiz-adv-x="573" d="M59 -410l326 1844h205l-326 -1844h-205z" />
<glyph unicode="}" horiz-adv-x="665" d="M-90 -348l24 143h70q61 0 103.5 37t54.5 107l65 368q16 92 51 144.5t70 80.5q41 31 90 41q-43 8 -73 41q-27 27 -43.5 80.5t0.5 145.5l65 368q10 70 -18.5 107t-89.5 37h-72l24 143h72q162 0 235.5 -82t53.5 -205l-66 -368q-20 -109 10.5 -152t108.5 -43l-24 -143 q-78 0 -124 -43t-65 -152l-65 -368q-23 -123 -124.5 -205t-262.5 -82h-70z" />
<glyph unicode="~" horiz-adv-x="1003" d="M109 625q18 35 48.5 69.5t70.5 62t89.5 45t102.5 17.5q61 0 102 -20.5t76 -46t67.5 -46t79.5 -20.5q35 0 65 17.5t52.5 39t34.5 39.5l12 17h19l94 -103q-16 -35 -47 -69.5t-71 -62t-89 -45t-102 -17.5q-61 0 -102.5 20.5t-76 46t-68.5 46t-79 20.5q-35 0 -65.5 -17.5 t-53 -39t-34.5 -38.5l-13 -18h-18z" />
<glyph unicode="&#xa1;" horiz-adv-x="593" d="M49 -410l230 1065h163l-147 -1065h-246zM285 922q10 53 50 87.5t93 34.5t83 -34.5t19 -87.5q-10 -53 -51 -88t-94 -35t-81.5 35t-18.5 88z" />
<glyph unicode="&#xa2;" horiz-adv-x="931" d="M141 512q41 231 153 360t267 162l19 113h204l-18 -113q53 -10 92 -27.5t68 -33.5q33 -20 57 -41l-94 -123h-21q-27 25 -59 45q-29 16 -65.5 31.5t-84.5 15.5q-53 0 -102 -20.5t-90 -66.5t-71.5 -121t-49.5 -181q-18 -109 -13 -182.5t30.5 -119.5t71.5 -66.5t108 -20.5 q47 0 89 14.5t77 30.5q39 20 75 47h21l49 -123q-35 -23 -78 -45q-37 -18 -87 -35.5t-109 -25.5l-23 -129h-205l25 137q-147 35 -212 162t-24 356z" />
<glyph unicode="&#xa3;" horiz-adv-x="972" d="M0 0l25 143q47 16 88 62q35 39 71.5 111.5t59.5 195.5l28 164h-133l25 143h133l51 287q12 74 50 137.5t95.5 110.5t127 73.5t147.5 26.5q86 0 145.5 -17.5t98.5 -39.5q45 -25 73 -56l-94 -122h-20q-20 25 -51 45q-27 16 -66 31.5t-92 15.5q-70 0 -131.5 -56.5 t-77.5 -148.5l-51 -287h276l-24 -143h-277l-28 -164q-23 -117 -57 -187.5t-68 -111.5q-39 -47 -84 -70h686l-25 -143h-901z" />
<glyph unicode="&#xa4;" horiz-adv-x="1177" d="M49 348l23 123h164l14 82h-164l23 123h163l134 758h368q262 0 366.5 -117t65.5 -334q-35 -201 -180 -315.5t-408 -114.5h-163l-15 -82h512l-22 -123h-512l-60 -348h-204l59 348h-164zM477 676h164q307 0 360 307q55 307 -251 307h-164z" />
<glyph unicode="&#xa5;" horiz-adv-x="1085" d="M145 369l27 143h289l-33 113h-238l27 143h172l-188 666h215l176 -625q4 -20 8 -40.5t6 -39.5q2 -23 2 -43h8q8 20 17 43q16 41 41 80l397 625h215l-422 -666h172l-26 -143h-238l-70 -113h289l-26 -143h-308l-63 -369h-205l64 369h-308z" />
<glyph unicode="&#xa6;" horiz-adv-x="573" d="M59 -410l138 779h204l-137 -779h-205zM248 655l137 779h205l-137 -779h-205z" />
<glyph unicode="&#xa7;" d="M4 -317l94 122h21q27 -27 63 -47q31 -16 78 -30.5t109 -14.5q131 0 202.5 56.5t87.5 148.5q12 72 -26.5 116t-103 77.5t-141.5 64.5t-139.5 77t-97 113.5t-16.5 176.5q18 98 70.5 175t136.5 124q-51 41 -77.5 101.5t-10.5 152.5q29 162 152.5 260t341.5 98 q86 0 148 -17.5t105 -39.5q49 -25 84 -56l-94 -122h-20q-27 25 -62 45q-29 16 -71.5 31.5t-96.5 15.5q-123 0 -193.5 -54.5t-84.5 -140.5q-12 -72 26.5 -116t103 -77.5t141.5 -64.5t139.5 -77t97.5 -114.5t16 -174.5q-37 -207 -203 -304q49 -41 75 -100t9 -149 q-29 -170 -156 -269.5t-350 -99.5q-92 0 -159.5 16.5t-112.5 38.5q-53 25 -86 58zM344 563q-10 -57 10.5 -100t61.5 -76t95 -57.5t112 -42.5q66 23 110.5 73t54.5 111q10 57 -10 100t-61 76t-95.5 58t-111.5 43q-66 -23 -111 -73t-55 -112z" />
<glyph unicode="&#xa8;" horiz-adv-x="624" d="M193 1270q8 49 45.5 80.5t87.5 31.5q49 0 74.5 -31.5t17.5 -80.5q-10 -49 -47 -81t-86 -32t-76 32t-16 81zM551 1270q8 49 46 80.5t87 31.5t74.5 -31.5t17.5 -80.5q-10 -49 -47 -81t-86 -32t-75.5 32t-16.5 81z" />
<glyph unicode="&#xa9;" horiz-adv-x="1761" d="M156 717q31 168 113.5 311t206.5 246.5t282 162t334 58.5t313 -58.5t224 -162t121 -246.5t3 -311q-31 -170 -114 -312.5t-206.5 -246t-281.5 -161.5t-334 -58t-313 58t-224 161.5t-121 246t-3 312.5zM340 717q-25 -139 2 -255t94.5 -201t172 -132t235.5 -47t250.5 47 t217 132t165 201t92.5 255q25 137 -2 253.5t-94.5 201.5t-171 132.5t-234.5 47.5t-252 -47.5t-218 -132.5t-164.5 -201.5t-92.5 -253.5zM586 717q20 115 63 202t103.5 144t135.5 86t159 29q66 0 119 -16.5t87 -35.5q41 -23 72 -51l-80 -102h-18q-25 18 -53 35q-25 14 -59 25 t-73 11q-92 0 -166.5 -75.5t-105.5 -251.5t19.5 -252t158.5 -76q39 0 77 10.5t67 24.5q35 16 65 37h19l43 -103q-41 -29 -91 -51q-41 -20 -99 -35.5t-124 -15.5q-184 0 -272 115t-47 346z" />
<glyph unicode="&#xaa;" horiz-adv-x="737" d="M184 932q16 100 101.5 162.5t255.5 62.5h92l10 51q10 53 -20.5 88t-92.5 35q-39 0 -68.5 -10t-51.5 -21q-25 -14 -43 -30h-21l-37 92q33 25 76 45q35 16 86 31.5t113 15.5q139 0 200.5 -68.5t42.5 -177.5l-84 -471h-141l2 82h-10q-25 -29 -55 -51q-27 -20 -64 -35.5 t-82 -15.5q-117 0 -171 61.5t-38 153.5zM369 932q-8 -39 15.5 -65.5t70.5 -26.5q27 0 51 9t43 21q23 12 39 31l24 133h-92q-70 0 -106.5 -27.5t-44.5 -74.5z" />
<glyph unicode="&#xab;" horiz-adv-x="972" d="M59 512l531 512l110 -123l-395 -389l258 -389l-153 -123zM459 512l454 440l113 -123l-321 -317l208 -317l-153 -123z" />
<glyph unicode="&#xac;" horiz-adv-x="942" d="M129 676l29 164h819l-62 -348h-184l33 184h-635z" />
<glyph unicode="&#xad;" horiz-adv-x="901" d="M115 594l28 164h779l-29 -164h-778z" />
<glyph unicode="&#xae;" horiz-adv-x="1761" d="M156 717q31 168 113.5 311t206.5 246.5t282 162t334 58.5t313 -58.5t224 -162t121 -246.5t3 -311q-31 -170 -114 -312.5t-206.5 -246t-281.5 -161.5t-334 -58t-313 58t-224 161.5t-121 246t-3 312.5zM340 717q-25 -139 2 -255t94.5 -201t172 -132t235.5 -47t250.5 47 t217 132t165 201t92.5 255q25 137 -2 253.5t-94.5 201.5t-171 132.5t-234.5 47.5t-252 -47.5t-218 -132.5t-164.5 -201.5t-92.5 -253.5zM569 276l156 881h299q193 0 266.5 -78t50.5 -209q-16 -100 -81.5 -166.5t-147.5 -89.5l145 -338h-194l-129 308h-125l-55 -308h-185z M831 717h115q100 0 149.5 38t61.5 115q14 78 -20.5 116t-135.5 38h-114z" />
<glyph unicode="&#xaf;" horiz-adv-x="634" d="M203 1208l24 144h553l-24 -144h-553z" />
<glyph unicode="&#xb0;" horiz-adv-x="778" d="M184 1106q12 76 49 140.5t91.5 110.5t123 71.5t146.5 25.5q76 0 135 -25.5t97 -71.5t52.5 -110.5t2.5 -140.5q-14 -78 -51 -141.5t-91.5 -109.5t-123 -71.5t-144.5 -25.5q-78 0 -137.5 25.5t-97 71.5t-52 109.5t-0.5 141.5zM369 1106q-20 -109 17.5 -162t107.5 -53 t126 53t76 162q18 109 -19.5 162t-107.5 53t-126 -53.5t-74 -161.5z" />
<glyph unicode="&#xb1;" horiz-adv-x="1003" d="M63 195l29 163h338l49 277h-338l29 164h338l59 338h164l-59 -338h338l-29 -164h-338l-49 -277h338l-29 -163h-840z" />
<glyph unicode="&#xb2;" horiz-adv-x="675" d="M150 737l14 82q12 66 46 112t78 78.5t93 55t92 45.5t72.5 47.5t36.5 61.5q23 113 -97 112q-37 0 -66.5 -10t-49.5 -21q-25 -14 -43 -30h-21l-37 92q33 25 76 45q35 16 86 31.5t113 15.5q123 0 182 -67.5t41 -167.5q-10 -59 -43 -100.5t-77 -71t-93 -51t-91 -41t-72 -42 t-34 -53.5h349l-23 -123h-532z" />
<glyph unicode="&#xb3;" horiz-adv-x="657" d="M131 809l70 92h20q12 -18 33 -31q16 -12 44 -21t67 -9q70 0 105.5 27.5t45.5 74.5q8 47 -20.5 74.5t-106.5 27.5h-135l18 103l275 164h-295l22 123h480l-25 -134l-248 -133q123 0 179 -62.5t40 -162.5q-8 -47 -34.5 -88t-68.5 -71.5t-98.5 -48t-125.5 -17.5 q-61 0 -107.5 14t-75.5 31q-37 20 -59 47z" />
<glyph unicode="&#xb4;" horiz-adv-x="358" d="M166 1126l147 308h226l-240 -308h-133z" />
<glyph unicode="&#xb5;" horiz-adv-x="1126" d="M29 -410l254 1434h204l-122 -696q-16 -86 28.5 -140.5t130.5 -54.5q47 0 88 15.5t74 35.5q37 23 72 52l139 788h205l-180 -1024h-144l-4 102h-10q-39 -35 -86 -61q-41 -23 -92 -42t-109 -19q-39 0 -68.5 9t-52.5 21q-25 12 -43 31l-67 -389l-74 -62h-143z" />
<glyph unicode="&#xb6;" horiz-adv-x="1157" d="M178 1014q14 88 60.5 164.5t112 133t146.5 89.5t165 33h675l-24 -144h-164l-301 -1700h-184l301 1700h-144l-301 -1700h-184l178 1004q-84 0 -152.5 32.5t-114.5 89t-65.5 133.5t-3.5 165z" />
<glyph unicode="&#xb7;" horiz-adv-x="593" d="M248 717q10 53 51 88t94 35t82 -35t19 -88t-50.5 -88t-93.5 -35t-82.5 35t-19.5 88z" />
<glyph unicode="&#xb8;" horiz-adv-x="399" d="M-90 -348l45 82h18q-2 0 22.5 -15.5t63.5 -15.5t65 20.5t30 51.5q6 31 -13.5 51t-66.5 20h-82l35 195h123l-19 -102q86 0 127 -47.5t29 -116.5q-12 -70 -71.5 -117t-152.5 -47q-39 0 -67.5 6t-46.5 14q-23 8 -39 21z" />
<glyph unicode="&#xb9;" horiz-adv-x="665" d="M180 737l23 123h153l68 389l-135 -71l-45 92l223 164h174l-100 -574h153l-22 -123h-492z" />
<glyph unicode="&#xba;" horiz-adv-x="798" d="M211 1085q31 178 138.5 273.5t254.5 95.5t220 -95t42 -274q-31 -178 -138 -273t-255 -95q-147 0 -220 95t-42 273zM386 968.5q3 -46.5 16.5 -75.5t38 -41t55.5 -12q61 0 111 53t75 192q25 137 -7 191.5t-93 54.5t-111.5 -53t-75.5 -193q-12 -70 -9 -116.5z" />
<glyph unicode="&#xbb;" horiz-adv-x="972" d="M23 195l323 317l-211 317l154 123l303 -440l-457 -440zM348 123l397 389l-260 389l156 123l350 -512l-530 -512z" />
<glyph unicode="&#xbc;" horiz-adv-x="1556" d="M164 0l1214 1434h226l-1215 -1434h-225zM180 737l23 123h153l68 389l-135 -71l-45 92l223 164h174l-100 -574h153l-22 -123h-492zM823 143l21 123l424 430h184l-76 -430h103l-21 -123h-102l-25 -143h-184l24 143h-348zM1008 266h184l33 185q2 10 7 25.5t9 29.5 q6 16 12 33h-8q-10 -18 -18 -35q-8 -14 -18.5 -29.5t-18.5 -23.5z" />
<glyph unicode="&#xbd;" horiz-adv-x="1536" d="M164 0l1214 1434h226l-1215 -1434h-225zM180 737l23 123h153l68 389l-135 -71l-45 92l223 164h174l-100 -574h153l-22 -123h-492zM881 0l14 82q12 66 45 112t78 78.5t94 55t92 45t73 47t36 61.5q18 113 -96 113q-37 0 -67 -10.5t-52 -20.5q-25 -14 -43 -31h-21l-37 93 q33 25 76 45q35 16 86 31.5t113 15.5q123 0 182 -68t43 -168q-10 -59 -43 -100t-77 -70.5t-93 -51t-91 -41t-71.5 -42t-36.5 -53.5h349l-21 -123h-532z" />
<glyph unicode="&#xbe;" horiz-adv-x="1536" d="M143 0l1215 1434h225l-1214 -1434h-226zM162 809l69 92h21q12 -18 33 -31q16 -12 43.5 -21t66.5 -9q70 0 106 27.5t46 74.5q8 47 -20.5 74.5t-106.5 27.5h-135l18 103l275 164h-295l22 123h479l-24 -134l-248 -133q123 0 179 -62.5t40 -162.5q-8 -47 -34.5 -88 t-68.5 -71.5t-98.5 -48t-126.5 -17.5q-61 0 -107 14t-75 31q-37 20 -59 47zM803 143l20 123l424 430h185l-76 -430h102l-20 -123h-103l-24 -143h-185l25 143h-348zM987 266h184l33 185q2 10 7.5 25.5t9.5 29.5q6 16 12 33h-8q-10 -18 -19 -35q-8 -14 -18 -29.5t-19 -23.5z " />
<glyph unicode="&#xbf;" horiz-adv-x="942" d="M23 -41q14 86 55 147.5t93 107.5t109.5 83t108.5 76t89 86t50 114l15 82h184l-14 -82q-14 -86 -53 -147t-89.5 -108.5t-106.5 -85t-105.5 -78.5t-86 -92.5t-49.5 -122.5q-16 -92 45.5 -159t192.5 -67q70 0 125 14.5t96 30.5q47 20 82 47h20l50 -122q-47 -33 -111 -58 q-53 -23 -131 -39t-178 -16q-111 0 -192 28.5t-130 81t-66.5 124t-2.5 155.5zM559 922q10 53 50 87.5t93 34.5t83 -34.5t20 -87.5t-51 -88t-95 -35q-53 0 -81.5 34.5t-18.5 88.5z" />
<glyph unicode="&#xc0;" horiz-adv-x="1167" d="M-20 0l671 1434h267l167 -1434h-204l-50 369h-471l-176 -369h-204zM0 0zM428 512h389l-65 563q-4 23 -4 48.5v47.5q0 25 2 48h-9q-6 -25 -14 -50q-8 -23 -17.5 -47t-19.5 -47zM614 1844h225l37 -308h-133z" />
<glyph unicode="&#xc1;" horiz-adv-x="1167" d="M-20 0l671 1434h267l167 -1434h-204l-50 369h-471l-176 -369h-204zM0 0zM428 512h389l-65 563q-4 23 -4 48.5v47.5q0 25 2 48h-9q-6 -25 -14 -50q-8 -23 -17.5 -47t-19.5 -47zM703 1536l147 308h226l-240 -308h-133z" />
<glyph unicode="&#xc2;" horiz-adv-x="1167" d="M-20 0l671 1434h267l167 -1434h-204l-50 369h-471l-176 -369h-204zM0 0zM428 512h389l-65 563q-4 23 -4 48.5v47.5q0 25 2 48h-9q-6 -25 -14 -50q-8 -23 -17.5 -47t-19.5 -47zM514 1536l263 266h143l168 -266h-133l-129 133l-178 -133h-134z" />
<glyph unicode="&#xc3;" horiz-adv-x="1167" d="M-20 0l671 1434h267l167 -1434h-204l-50 369h-471l-176 -369h-204zM0 0zM428 512h389l-65 563q-4 23 -4 48.5v47.5q0 25 2 48h-9q-6 -25 -14 -50q-8 -23 -17.5 -47t-19.5 -47zM516 1597q35 70 86.5 122t128.5 52q39 0 61.5 -14t38 -31.5t31 -32t37.5 -14.5 q23 0 43.5 12.5t35 27.5t22.5 29l8 13h18l74 -51q-35 -70 -86 -122t-129 -52q-39 0 -61.5 14.5t-38 31.5t-30.5 31.5t-38 14.5t-43 -13.5t-34.5 -28.5t-22.5 -28l-8 -12h-19z" />
<glyph unicode="&#xc4;" horiz-adv-x="1167" d="M-20 0l671 1434h267l167 -1434h-204l-50 369h-471l-176 -369h-204zM0 0zM428 512h389l-65 563q-4 23 -4 48.5v47.5q0 25 2 48h-9q-6 -25 -14 -50q-8 -23 -17.5 -47t-19.5 -47zM527 1659q8 49 45.5 80.5t87.5 31.5q49 0 74.5 -31.5t17.5 -80.5q-10 -49 -47 -81t-86 -32 t-76 32t-16 81zM885 1659q8 49 46 80.5t87 31.5t74.5 -31.5t17.5 -80.5q-10 -49 -47 -81t-86 -32t-75.5 32t-16.5 81z" />
<glyph unicode="&#xc5;" horiz-adv-x="1167" d="M-20 0l671 1434h267l167 -1434h-204l-50 369h-471l-176 -369h-204zM0 0zM428 512h389l-65 563q-4 23 -4 48.5v47.5q0 25 2 48h-9q-6 -25 -14 -50q-8 -23 -17.5 -47t-19.5 -47zM627 1710q16 86 81.5 140.5t157.5 54.5t139.5 -54.5t30.5 -140.5q-14 -86 -79.5 -140 t-157.5 -54t-139.5 54t-32.5 140zM749 1710q-8 -47 14.5 -69.5t53.5 -22.5t59.5 22.5t36.5 69.5q10 47 -12 70t-53 23t-59.5 -22.5t-39.5 -70.5z" />
<glyph unicode="&#xc6;" horiz-adv-x="1669" d="M-92 0l856 1434h1044l-24 -144h-594l-84 -471h471l-25 -143h-471l-94 -533h594l-25 -143h-798l71 410h-471l-245 -410h-205zM444 553h410l131 737h-102z" />
<glyph unicode="&#xc7;" horiz-adv-x="1054" d="M152 0zM163.5 377q-12.5 139 22.5 340q35 199 96.5 339t144.5 229t185.5 129t216.5 40q86 0 148.5 -17.5t105.5 -39.5q49 -25 84 -56l-94 -122h-20q-27 25 -62 45q-29 16 -71.5 31.5t-96.5 15.5q-70 0 -134 -30t-120.5 -98.5t-101.5 -183t-76 -282.5q-31 -170 -24.5 -284 t40 -182.5t92 -98t136.5 -29.5q53 0 101 14.5t83 30.5q41 20 78 47h21l49 -123q-47 -33 -105 -57q-49 -23 -117.5 -39t-154.5 -16q-123 0 -215 39.5t-145.5 129t-66 228.5zM361 -348l45 82h18q-2 0 22.5 -15.5t63.5 -15.5t65 20.5t30 51.5q6 31 -13.5 51t-66.5 20h-82 l35 195h123l-19 -102q86 0 127 -47.5t29 -116.5q-12 -70 -71.5 -117t-152.5 -47q-39 0 -67.5 6t-46.5 14q-23 8 -39 21z" />
<glyph unicode="&#xc8;" d="M133 0l252 1434h799l-25 -144h-594l-84 -471h471l-24 -143h-471l-95 -533h594l-24 -143h-799zM133 0zM641 1844h225l37 -308h-133z" />
<glyph unicode="&#xc9;" d="M133 0l252 1434h799l-25 -144h-594l-84 -471h471l-24 -143h-471l-95 -533h594l-24 -143h-799zM133 0zM688 1536l147 308h226l-240 -308h-133z" />
<glyph unicode="&#xca;" d="M133 0l252 1434h799l-25 -144h-594l-84 -471h471l-24 -143h-471l-95 -533h594l-24 -143h-799zM133 0zM522 1557l263 266h143l168 -266h-133l-129 133l-178 -133h-134z" />
<glyph unicode="&#xcb;" d="M133 0l252 1434h799l-25 -144h-594l-84 -471h471l-24 -143h-471l-95 -533h594l-24 -143h-799zM133 0zM535 1680q8 49 45.5 80.5t87.5 31.5q49 0 74.5 -31.5t17.5 -80.5q-10 -49 -47 -81t-86 -32t-76 32t-16 81zM893 1680q8 49 46 80.5t87 31.5t74.5 -31.5t17.5 -80.5 q-10 -49 -47 -81t-86 -32t-75.5 32t-16.5 81z" />
<glyph unicode="&#xcc;" horiz-adv-x="569" d="M131 0l252 1434h205l-252 -1434h-205zM131 0zM313 1844h225l37 -308h-133z" />
<glyph unicode="&#xcd;" horiz-adv-x="567" d="M133 0l252 1434h205l-252 -1434h-205zM133 0zM426 1536l147 308h226l-240 -308h-133z" />
<glyph unicode="&#xce;" horiz-adv-x="552" d="M125 0l252 1434h205l-252 -1434h-205zM125 0zM210 1557l263 266h143l168 -266h-133l-129 133l-178 -133h-134z" />
<glyph unicode="&#xcf;" horiz-adv-x="532" d="M115 0l252 1434h205l-252 -1434h-205zM115 0zM213 1680q8 49 45.5 80.5t87.5 31.5q49 0 74.5 -31.5t17.5 -80.5q-10 -49 -47 -81t-86 -32t-76 32t-16 81zM571 1680q8 49 46 80.5t87 31.5t74.5 -31.5t17.5 -80.5q-10 -49 -47 -81t-86 -32t-75.5 32t-16.5 81z" />
<glyph unicode="&#xd0;" horiz-adv-x="1198" d="M133 0l115 655h-113l29 164h112l109 615h307q145 0 250 -40t164 -126t72.5 -222.5t-19.5 -328.5q-35 -193 -96.5 -329t-151.5 -222t-207.5 -126t-263.5 -40h-307zM362 143h103q92 0 170 29t139.5 96.5t106.5 177t73 271.5q29 162 22 271.5t-45 177t-104.5 96t-158.5 28.5 h-103l-84 -471h236l-29 -164h-235z" />
<glyph unicode="&#xd1;" horiz-adv-x="1290" d="M133 0l252 1434h225l269 -912q6 -23 12 -53.5t10 -56.5q6 -33 8 -64h9q4 31 8 64q4 27 7 57.5t7 52.5l162 912h205l-252 -1434h-226l-270 911q-8 23 -13 52.5t-9 58.5q-6 31 -9 63h-8q-4 -33 -8 -63q-4 -29 -7 -58.5t-7 -52.5l-160 -911h-205zM133 0zM577 1597 q35 70 86.5 122t128.5 52q39 0 61.5 -14t38 -31.5t31 -32t37.5 -14.5q23 0 43.5 12.5t35 27.5t22.5 29l8 13h18l74 -51q-35 -70 -86 -122t-129 -52q-39 0 -61.5 14.5t-38 31.5t-30.5 31.5t-38 14.5t-43 -13.5t-34.5 -28.5t-22.5 -28l-8 -12h-19z" />
<glyph unicode="&#xd2;" horiz-adv-x="1228" d="M152 0zM164 377q-12 139 22 340q35 199 96.5 339t143.5 229t182.5 129t210.5 40q111 0 196 -40t136 -129t62.5 -229t-23.5 -339q-35 -201 -96.5 -340t-143.5 -228.5t-181 -129t-210 -39.5t-197 39.5t-136 129t-62 228.5zM365.5 433q5.5 -114 34 -182.5t77.5 -98 t107 -29.5q57 0 115.5 29.5t112.5 98t98 182.5t75 284q31 168 26 282.5t-35 183t-78 98.5t-105 30t-116 -30t-113 -98.5t-98 -183t-75 -282.5q-31 -170 -25.5 -284zM665 1844h225l37 -308h-133z" />
<glyph unicode="&#xd3;" horiz-adv-x="1228" d="M152 0zM164 377q-12 139 22 340q35 199 96.5 339t143.5 229t182.5 129t210.5 40q111 0 196 -40t136 -129t62.5 -229t-23.5 -339q-35 -201 -96.5 -340t-143.5 -228.5t-181 -129t-210 -39.5t-197 39.5t-136 129t-62 228.5zM365.5 433q5.5 -114 34 -182.5t77.5 -98 t107 -29.5q57 0 115.5 29.5t112.5 98t98 182.5t75 284q31 168 26 282.5t-35 183t-78 98.5t-105 30t-116 -30t-113 -98.5t-98 -183t-75 -282.5q-31 -170 -25.5 -284zM733 1536l147 308h226l-240 -308h-133z" />
<glyph unicode="&#xd4;" horiz-adv-x="1228" d="M152 0zM164 377q-12 139 22 340q35 199 96.5 339t143.5 229t182.5 129t210.5 40q111 0 196 -40t136 -129t62.5 -229t-23.5 -339q-35 -201 -96.5 -340t-143.5 -228.5t-181 -129t-210 -39.5t-197 39.5t-136 129t-62 228.5zM365.5 433q5.5 -114 34 -182.5t77.5 -98 t107 -29.5q57 0 115.5 29.5t112.5 98t98 182.5t75 284q31 168 26 282.5t-35 183t-78 98.5t-105 30t-116 -30t-113 -98.5t-98 -183t-75 -282.5q-31 -170 -25.5 -284zM548 1557l263 266h143l168 -266h-133l-129 133l-178 -133h-134z" />
<glyph unicode="&#xd5;" horiz-adv-x="1228" d="M152 0zM164 377q-12 139 22 340q35 199 96.5 339t143.5 229t182.5 129t210.5 40q111 0 196 -40t136 -129t62.5 -229t-23.5 -339q-35 -201 -96.5 -340t-143.5 -228.5t-181 -129t-210 -39.5t-197 39.5t-136 129t-62 228.5zM365.5 433q5.5 -114 34 -182.5t77.5 -98 t107 -29.5q57 0 115.5 29.5t112.5 98t98 182.5t75 284q31 168 26 282.5t-35 183t-78 98.5t-105 30t-116 -30t-113 -98.5t-98 -183t-75 -282.5q-31 -170 -25.5 -284zM550 1618q35 70 86.5 122t128.5 52q39 0 61.5 -14t38 -31.5t31 -32t37.5 -14.5q23 0 43.5 12.5t35 27.5 t22.5 29l8 13h18l74 -51q-35 -70 -86 -122t-129 -52q-39 0 -61.5 14.5t-38 31.5t-30.5 31.5t-38 14.5t-43 -13.5t-34.5 -28.5t-22.5 -28l-8 -12h-19z" />
<glyph unicode="&#xd6;" horiz-adv-x="1228" d="M152 0zM164 377q-12 139 22 340q35 199 96.5 339t143.5 229t182.5 129t210.5 40q111 0 196 -40t136 -129t62.5 -229t-23.5 -339q-35 -201 -96.5 -340t-143.5 -228.5t-181 -129t-210 -39.5t-197 39.5t-136 129t-62 228.5zM365.5 433q5.5 -114 34 -182.5t77.5 -98 t107 -29.5q57 0 115.5 29.5t112.5 98t98 182.5t75 284q31 168 26 282.5t-35 183t-78 98.5t-105 30t-116 -30t-113 -98.5t-98 -183t-75 -282.5q-31 -170 -25.5 -284zM562 1680q8 49 45.5 80.5t87.5 31.5q49 0 74.5 -31.5t17.5 -80.5q-10 -49 -47 -81t-86 -32t-76 32t-16 81z M920 1680q8 49 46 80.5t87 31.5t74.5 -31.5t17.5 -80.5q-10 -49 -47 -81t-86 -32t-75.5 32t-16.5 81z" />
<glyph unicode="&#xd7;" horiz-adv-x="894" d="M117 436l282 240l-198 239l137 115l199 -237l278 237l96 -115l-280 -239l196 -240l-137 -114l-194 237l-283 -237z" />
<glyph unicode="&#xd8;" horiz-adv-x="1228" d="M72 0l135 182q-41 90 -47 221.5t26 313.5q35 199 96.5 339t143.5 229t182.5 129t210.5 40q170 0 271 -92l53 72h164l-138 -185q41 -88 47.5 -220t-26.5 -312q-35 -201 -96.5 -340t-143.5 -228.5t-181 -129t-210 -39.5q-84 0 -152.5 22.5t-117.5 69.5l-53 -72h-164z M369 397l600 803q-29 59 -76 85t-100 26q-57 0 -116 -30t-113 -98.5t-98 -183t-75 -282.5q-16 -98 -21 -177t-1 -143zM408 231q31 -59 76.5 -83.5t99.5 -24.5q57 0 115.5 29.5t112.5 98t98 182.5t75 284q16 98 22.5 177t2.5 140z" />
<glyph unicode="&#xd9;" horiz-adv-x="1269" d="M160 0zM201 451l174 983h205l-174 -983q-29 -170 26 -249t172 -79t201 79t113 249l174 983h204l-174 -983q-41 -231 -180 -351t-362 -120t-321.5 119.5t-57.5 351.5zM678 1803h225l37 -308h-133z" />
<glyph unicode="&#xda;" horiz-adv-x="1269" d="M160 0zM201 451l174 983h205l-174 -983q-29 -170 26 -249t172 -79t201 79t113 249l174 983h204l-174 -983q-41 -231 -180 -351t-362 -120t-321.5 119.5t-57.5 351.5zM766 1495l147 308h226l-240 -308h-133z" />
<glyph unicode="&#xdb;" horiz-adv-x="1269" d="M160 0zM201 451l174 983h205l-174 -983q-29 -170 26 -249t172 -79t201 79t113 249l174 983h204l-174 -983q-41 -231 -180 -351t-362 -120t-321.5 119.5t-57.5 351.5zM569 1557l263 266h143l168 -266h-133l-129 133l-178 -133h-134z" />
<glyph unicode="&#xdc;" horiz-adv-x="1269" d="M160 0zM201 451l174 983h205l-174 -983q-29 -170 26 -249t172 -79t201 79t113 249l174 983h204l-174 -983q-41 -231 -180 -351t-362 -120t-321.5 119.5t-57.5 351.5zM582 1680q8 49 45.5 80.5t87.5 31.5q49 0 74.5 -31.5t17.5 -80.5q-10 -49 -47 -81t-86 -32t-76 32 t-16 81zM940 1680q8 49 46 80.5t87 31.5t74.5 -31.5t17.5 -80.5q-10 -49 -47 -81t-86 -32t-75.5 32t-16.5 81z" />
<glyph unicode="&#xdd;" horiz-adv-x="1085" d="M201 0zM201 1434h215l176 -625q4 -20 8 -40.5t6 -39.5q2 -23 2 -43h8q8 20 17 43q16 41 41 80l397 625h215l-610 -963l-82 -471h-205l82 471zM674 1495l147 308h226l-240 -308h-133z" />
<glyph unicode="&#xde;" horiz-adv-x="1259" d="M125 -41l266 1516h205l-29 -164h185q287 0 413.5 -153.5t75.5 -440.5q-49 -287 -230.5 -440.5t-467.5 -153.5h-185l-28 -164h-205zM383 266h184q178 0 304 114t165 337q20 111 7 195.5t-54 141t-107.5 85t-154.5 28.5h-184z" />
<glyph unicode="&#xdf;" horiz-adv-x="1269" d="M154 0l151 860h-133l25 144h133l20 122q12 74 47 134.5t87.5 103.5t119 66.5t144.5 23.5q176 0 251.5 -82t55.5 -205q-8 -47 -26.5 -76.5t-38 -54t-37 -50t-23.5 -64.5q-10 -53 11.5 -94.5t57 -77t77.5 -70.5t77 -79t53.5 -100.5t3.5 -131.5q-16 -88 -56 -160 t-100.5 -123t-139 -78.5t-171.5 -27.5q-53 0 -94 9t-67 21q-33 12 -54 31l74 133h21q12 -16 30 -27q16 -10 40 -17t55 -7q100 0 167.5 58.5t85.5 166.5q10 59 -8 103.5t-51 82t-73 74.5t-72.5 81t-49 99.5t-2.5 133.5q6 39 21.5 67.5t31 55t31 55t21.5 67.5 q10 61 -22.5 102.5t-86.5 41.5q-70 0 -120 -46t-66 -139l-197 -1126h-204z" />
<glyph unicode="&#xe0;" d="M66 0zM92 297q12 70 47 126t94.5 96t147.5 62.5t207 22.5h164l8 51q23 123 -24.5 184.5t-147.5 61.5q-47 0 -90 -15.5t-78 -31.5q-39 -20 -74 -45h-20l-50 123q45 31 101 55q47 23 112.5 40t143.5 17q88 0 156.5 -28.5t112.5 -80.5t60.5 -124t2.5 -156l-115 -655h-143 v123h-11q-35 -41 -84 -72q-41 -29 -100 -50t-137 -21q-162 0 -235.5 85t-47.5 232zM297 297q-14 -78 24.5 -121t131.5 -43q47 0 88 19.5t75 42.5q37 27 74 61l35 205h-164q-123 0 -187.5 -47t-76.5 -117zM481 1434h225l37 -308h-133z" />
<glyph unicode="&#xe1;" d="M66 0zM92 297q12 70 47 126t94.5 96t147.5 62.5t207 22.5h164l8 51q23 123 -24.5 184.5t-147.5 61.5q-47 0 -90 -15.5t-78 -31.5q-39 -20 -74 -45h-20l-50 123q45 31 101 55q47 23 112.5 40t143.5 17q88 0 156.5 -28.5t112.5 -80.5t60.5 -124t2.5 -156l-115 -655h-143 v123h-11q-35 -41 -84 -72q-41 -29 -100 -50t-137 -21q-162 0 -235.5 85t-47.5 232zM297 297q-14 -78 24.5 -121t131.5 -43q47 0 88 19.5t75 42.5q37 27 74 61l35 205h-164q-123 0 -187.5 -47t-76.5 -117zM569 1126l147 308h226l-240 -308h-133z" />
<glyph unicode="&#xe2;" d="M66 0zM92 297q12 70 47 126t94.5 96t147.5 62.5t207 22.5h164l8 51q23 123 -24.5 184.5t-147.5 61.5q-47 0 -90 -15.5t-78 -31.5q-39 -20 -74 -45h-20l-50 123q45 31 101 55q47 23 112.5 40t143.5 17q88 0 156.5 -28.5t112.5 -80.5t60.5 -124t2.5 -156l-115 -655h-143 v123h-11q-35 -41 -84 -72q-41 -29 -100 -50t-137 -21q-162 0 -235.5 85t-47.5 232zM297 297q-14 -78 24.5 -121t131.5 -43q47 0 88 19.5t75 42.5q37 27 74 61l35 205h-164q-123 0 -187.5 -47t-76.5 -117zM385 1147l263 266h143l168 -266h-133l-129 133l-178 -133h-134z" />
<glyph unicode="&#xe3;" d="M66 0zM92 297q12 70 47 126t94.5 96t147.5 62.5t207 22.5h164l8 51q23 123 -24.5 184.5t-147.5 61.5q-47 0 -90 -15.5t-78 -31.5q-39 -20 -74 -45h-20l-50 123q45 31 101 55q47 23 112.5 40t143.5 17q88 0 156.5 -28.5t112.5 -80.5t60.5 -124t2.5 -156l-115 -655h-143 v123h-11q-35 -41 -84 -72q-41 -29 -100 -50t-137 -21q-162 0 -235.5 85t-47.5 232zM297 297q-14 -78 24.5 -121t131.5 -43q47 0 88 19.5t75 42.5q37 27 74 61l35 205h-164q-123 0 -187.5 -47t-76.5 -117zM387 1210q35 70 86.5 122t128.5 52q39 0 61.5 -14t38 -31.5t31 -32 t37.5 -14.5q23 0 43.5 12.5t35 27.5t22.5 29l8 13h18l74 -51q-35 -70 -86 -122t-129 -52q-39 0 -61.5 14.5t-38 31.5t-30.5 31.5t-38 14.5t-43 -13.5t-34.5 -28.5t-22.5 -28l-8 -12h-19z" />
<glyph unicode="&#xe4;" d="M66 0zM92 297q12 70 47 126t94.5 96t147.5 62.5t207 22.5h164l8 51q23 123 -24.5 184.5t-147.5 61.5q-47 0 -90 -15.5t-78 -31.5q-39 -20 -74 -45h-20l-50 123q45 31 101 55q47 23 112.5 40t143.5 17q88 0 156.5 -28.5t112.5 -80.5t60.5 -124t2.5 -156l-115 -655h-143 v123h-11q-35 -41 -84 -72q-41 -29 -100 -50t-137 -21q-162 0 -235.5 85t-47.5 232zM297 297q-14 -78 24.5 -121t131.5 -43q47 0 88 19.5t75 42.5q37 27 74 61l35 205h-164q-123 0 -187.5 -47t-76.5 -117zM398 1270q8 49 45.5 80.5t87.5 31.5q49 0 74.5 -31.5t17.5 -80.5 q-10 -49 -47 -81t-86 -32t-76 32t-16 81zM756 1270q8 49 46 80.5t87 31.5t74.5 -31.5t17.5 -80.5q-10 -49 -47 -81t-86 -32t-75.5 32t-16.5 81z" />
<glyph unicode="&#xe5;" d="M66 0zM92 297q12 70 47 126t94.5 96t147.5 62.5t207 22.5h164l8 51q23 123 -24.5 184.5t-147.5 61.5q-47 0 -90 -15.5t-78 -31.5q-39 -20 -74 -45h-20l-50 123q45 31 101 55q47 23 112.5 40t143.5 17q88 0 156.5 -28.5t112.5 -80.5t60.5 -124t2.5 -156l-115 -655h-143 v123h-11q-35 -41 -84 -72q-41 -29 -100 -50t-137 -21q-162 0 -235.5 85t-47.5 232zM297 297q-14 -78 24.5 -121t131.5 -43q47 0 88 19.5t75 42.5q37 27 74 61l35 205h-164q-123 0 -187.5 -47t-76.5 -117zM500 1341q16 86 81.5 140.5t157.5 54.5t139.5 -54.5t30.5 -140.5 q-14 -86 -79.5 -140t-157.5 -54t-139.5 54t-32.5 140zM622 1341q-8 -47 14.5 -69.5t53.5 -22.5t59.5 22.5t36.5 69.5q10 47 -12 70t-53 23t-59.5 -22.5t-39.5 -70.5z" />
<glyph unicode="&#xe6;" horiz-adv-x="1607" d="M92 297q12 70 47 126t94.5 96t147.5 62.5t207 22.5h164l8 51q23 123 -24.5 184.5t-147.5 61.5q-47 0 -90 -15.5t-78 -31.5q-39 -20 -74 -45h-20l-50 123q45 31 101 55q47 23 112.5 40t143.5 17q117 0 185.5 -41.5t94.5 -111.5q66 70 149 111.5t175 41.5q88 0 157.5 -32.5 t112.5 -99t56.5 -166t-9.5 -234.5l-6 -31l-49 -41h-573q-14 -80 -6 -140t33.5 -99t67.5 -58.5t95 -19.5q47 0 89 14.5t77 30.5q39 20 76 47h20l49 -123q-47 -33 -102 -57q-47 -23 -111.5 -39t-142.5 -16q-100 0 -181 39.5t-124 123.5q-49 -45 -111 -82q-53 -31 -123.5 -56 t-156.5 -25q-162 0 -235.5 85t-47.5 232zM297 297q-14 -78 24.5 -121t131.5 -43q47 0 88 19.5t75 42.5q37 27 74 61l35 205h-164q-123 0 -187.5 -47t-76.5 -117zM952 584h410q14 84 9 144t-26.5 98t-55.5 56.5t-77 18.5q-84 0 -157.5 -74.5t-102.5 -242.5z" />
<glyph unicode="&#xe7;" horiz-adv-x="931" d="M94 0zM141 512q47 270 188.5 401t334.5 131q78 0 136 -17t99 -40q47 -25 84 -55l-94 -123h-21q-27 25 -59 45q-29 16 -66 31.5t-84 15.5q-53 0 -102 -20.5t-90 -66.5t-71.5 -121t-49.5 -181q-18 -109 -13 -182.5t30.5 -119.5t71.5 -66.5t108 -20.5q47 0 89 14.5t77 30.5 q39 20 75 47h21l49 -123q-47 -33 -102 -57q-47 -23 -112 -39t-142 -16q-209 0 -306.5 131t-50.5 401zM283 -348l45 82h18q-2 0 22.5 -15.5t63.5 -15.5t65 20.5t30 51.5q6 31 -13.5 51t-66.5 20h-82l35 195h123l-19 -102q86 0 127 -47.5t29 -116.5q-12 -70 -71.5 -117 t-152.5 -47q-39 0 -67.5 6t-46.5 14q-23 8 -39 21z" />
<glyph unicode="&#xe8;" horiz-adv-x="1034" d="M94 0zM141 512q23 135 71 234.5t115.5 166t150.5 99t175 32.5t164 -32.5t116 -99t57.5 -166t-9.5 -234.5l-6 -31l-49 -41h-594q-29 -162 29.5 -239.5t181.5 -77.5q47 0 89 14.5t77 30.5q39 20 75 47h21l49 -123q-47 -33 -102 -57q-47 -23 -112 -39t-142 -16 q-209 0 -306.5 131t-50.5 401zM358 584h430q29 170 -19 243.5t-140 73.5t-167 -74.5t-104 -242.5zM477 1434h225l37 -308h-133z" />
<glyph unicode="&#xe9;" horiz-adv-x="1034" d="M94 0zM141 512q23 135 71 234.5t115.5 166t150.5 99t175 32.5t164 -32.5t116 -99t57.5 -166t-9.5 -234.5l-6 -31l-49 -41h-594q-29 -162 29.5 -239.5t181.5 -77.5q47 0 89 14.5t77 30.5q39 20 75 47h21l49 -123q-47 -33 -102 -57q-47 -23 -112 -39t-142 -16 q-209 0 -306.5 131t-50.5 401zM358 584h430q29 170 -19 243.5t-140 73.5t-167 -74.5t-104 -242.5zM586 1126l147 308h226l-240 -308h-133z" />
<glyph unicode="&#xea;" horiz-adv-x="1034" d="M94 0zM141 512q23 135 71 234.5t115.5 166t150.5 99t175 32.5t164 -32.5t116 -99t57.5 -166t-9.5 -234.5l-6 -31l-49 -41h-594q-29 -162 29.5 -239.5t181.5 -77.5q47 0 89 14.5t77 30.5q39 20 75 47h21l49 -123q-47 -33 -102 -57q-47 -23 -112 -39t-142 -16 q-209 0 -306.5 131t-50.5 401zM358 584h430q29 170 -19 243.5t-140 73.5t-167 -74.5t-104 -242.5zM378 1147l263 266h143l168 -266h-133l-129 133l-178 -133h-134z" />
<glyph unicode="&#xeb;" horiz-adv-x="1034" d="M94 0zM141 512q23 135 71 234.5t115.5 166t150.5 99t175 32.5t164 -32.5t116 -99t57.5 -166t-9.5 -234.5l-6 -31l-49 -41h-594q-29 -162 29.5 -239.5t181.5 -77.5q47 0 89 14.5t77 30.5q39 20 75 47h21l49 -123q-47 -33 -102 -57q-47 -23 -112 -39t-142 -16 q-209 0 -306.5 131t-50.5 401zM358 584h430q29 170 -19 243.5t-140 73.5t-167 -74.5t-104 -242.5zM392 1270q8 49 45.5 80.5t87.5 31.5q49 0 74.5 -31.5t17.5 -80.5q-10 -49 -47 -81t-86 -32t-76 32t-16 81zM750 1270q8 49 46 80.5t87 31.5t74.5 -31.5t17.5 -80.5 q-10 -49 -47 -81t-86 -32t-75.5 32t-16.5 81z" />
<glyph unicode="&#xec;" horiz-adv-x="528" d="M119 0l180 1024h205l-180 -1024h-205zM231 1434h226l37 -308h-134z" />
<glyph unicode="&#xed;" horiz-adv-x="526" d="M102 0l181 1024h204l-180 -1024h-205zM324 1126l147 308h225l-239 -308h-133z" />
<glyph unicode="&#xee;" horiz-adv-x="532" d="M113 0l180 1024h205l-181 -1024h-204zM129 1147l262 266h144l167 -266h-133l-129 133l-178 -133h-133z" />
<glyph unicode="&#xef;" horiz-adv-x="532" d="M113 0l180 1024h205l-181 -1024h-204zM141 1270q8 49 46 80.5t87 31.5t75 -31.5t18 -80.5q-10 -49 -47 -81t-87 -32q-49 0 -75.5 32t-16.5 81zM500 1270q8 49 46 80.5t87 31.5t74.5 -31.5t17.5 -80.5q-10 -49 -47 -81t-86 -32t-76 32t-16 81z" />
<glyph unicode="&#xf0;" horiz-adv-x="1054" d="M105.5 256q-15.5 90 5.5 205q20 115 66 205t109.5 151.5t137.5 93t151 31.5q109 0 178.5 -32.5t102.5 -110.5q23 119 1.5 203.5t-93.5 138.5l-84 -129l-119 61l84 129q-41 14 -102 27l-109 20l45 144l121 -21q35 -6 68.5 -14t64.5 -19l78 121l121 -59l-78 -121 q117 -78 156 -225.5t-2 -388.5l-37 -205q-20 -115 -66.5 -205t-114 -151.5t-152.5 -93t-181 -31.5t-170 31.5t-120 93t-61.5 151.5zM306 309.5q7 -63.5 30.5 -105.5t60.5 -61.5t84 -19.5q92 0 173 81t112 257q14 84 8 146.5t-30.5 102.5t-62.5 59t-83 19q-92 0 -172 -78.5 t-111 -248.5q-16 -88 -9 -151.5z" />
<glyph unicode="&#xf1;" horiz-adv-x="1116" d="M102 0l181 1024h143l-2 -123h10q35 39 84 72q41 27 100.5 49t137.5 22q76 0 136 -25.5t98 -71.5t52.5 -110.5t-0.5 -140.5l-120 -696h-205l121 696q16 86 -29 140.5t-131 54.5q-47 0 -89 -19.5t-75 -42.5q-37 -27 -72 -61l-135 -768h-205zM102 0zM446 1231 q35 70 86.5 122t128.5 52q39 0 61.5 -14t38 -31.5t31 -32t37.5 -14.5q23 0 43.5 12.5t35 27.5t22.5 29l8 13h18l74 -51q-35 -70 -86 -122t-129 -52q-39 0 -61.5 14.5t-38 31.5t-30.5 31.5t-38 14.5t-43 -13.5t-34.5 -28.5t-22.5 -28l-8 -12h-19z" />
<glyph unicode="&#xf2;" horiz-adv-x="1085" d="M94 0zM141 512q47 270 189.5 401t343.5 131q100 0 175 -32.5t121 -99t60.5 -166t-8.5 -234.5q-25 -135 -74 -234.5t-117.5 -166t-155.5 -99t-188 -32.5q-201 0 -297 132t-49 400zM332 329.5q4 -73.5 27.5 -119.5t63.5 -66.5t89 -20.5t96 20.5t87 66.5t72 119.5t50 182.5 q18 106 13 181t-28.5 121t-63.5 66.5t-89 20.5t-96 -20.5t-87 -66.5t-70.5 -121t-49.5 -181q-18 -109 -14 -182.5zM502 1434h225l37 -308h-133z" />
<glyph unicode="&#xf3;" horiz-adv-x="1085" d="M94 0zM141 512q47 270 189.5 401t343.5 131q100 0 175 -32.5t121 -99t60.5 -166t-8.5 -234.5q-25 -135 -74 -234.5t-117.5 -166t-155.5 -99t-188 -32.5q-201 0 -297 132t-49 400zM332 329.5q4 -73.5 27.5 -119.5t63.5 -66.5t89 -20.5t96 20.5t87 66.5t72 119.5t50 182.5 q18 106 13 181t-28.5 121t-63.5 66.5t-89 20.5t-96 -20.5t-87 -66.5t-70.5 -121t-49.5 -181q-18 -109 -14 -182.5zM610 1126l147 308h226l-240 -308h-133z" />
<glyph unicode="&#xf4;" horiz-adv-x="1085" d="M94 0zM141 512q47 270 189.5 401t343.5 131q100 0 175 -32.5t121 -99t60.5 -166t-8.5 -234.5q-25 -135 -74 -234.5t-117.5 -166t-155.5 -99t-188 -32.5q-201 0 -297 132t-49 400zM332 329.5q4 -73.5 27.5 -119.5t63.5 -66.5t89 -20.5t96 20.5t87 66.5t72 119.5t50 182.5 q18 106 13 181t-28.5 121t-63.5 66.5t-89 20.5t-96 -20.5t-87 -66.5t-70.5 -121t-49.5 -181q-18 -109 -14 -182.5zM405 1147l263 266h143l168 -266h-133l-129 133l-178 -133h-134z" />
<glyph unicode="&#xf5;" horiz-adv-x="1085" d="M94 0zM141 512q47 270 189.5 401t343.5 131q100 0 175 -32.5t121 -99t60.5 -166t-8.5 -234.5q-25 -135 -74 -234.5t-117.5 -166t-155.5 -99t-188 -32.5q-201 0 -297 132t-49 400zM332 329.5q4 -73.5 27.5 -119.5t63.5 -66.5t89 -20.5t96 20.5t87 66.5t72 119.5t50 182.5 q18 106 13 181t-28.5 121t-63.5 66.5t-89 20.5t-96 -20.5t-87 -66.5t-70.5 -121t-49.5 -181q-18 -109 -14 -182.5zM407 1210q35 70 86.5 122t128.5 52q39 0 61.5 -14t38 -31.5t31 -32t37.5 -14.5q23 0 43.5 12.5t35 27.5t22.5 29l8 13h18l74 -51q-35 -70 -86 -122t-129 -52 q-39 0 -61.5 14.5t-38 31.5t-30.5 31.5t-38 14.5t-43 -13.5t-34.5 -28.5t-22.5 -28l-8 -12h-19z" />
<glyph unicode="&#xf6;" horiz-adv-x="1085" d="M94 0zM141 512q47 270 189.5 401t343.5 131q100 0 175 -32.5t121 -99t60.5 -166t-8.5 -234.5q-25 -135 -74 -234.5t-117.5 -166t-155.5 -99t-188 -32.5q-201 0 -297 132t-49 400zM332 329.5q4 -73.5 27.5 -119.5t63.5 -66.5t89 -20.5t96 20.5t87 66.5t72 119.5t50 182.5 q18 106 13 181t-28.5 121t-63.5 66.5t-89 20.5t-96 -20.5t-87 -66.5t-70.5 -121t-49.5 -181q-18 -109 -14 -182.5zM418 1270q8 49 45.5 80.5t87.5 31.5q49 0 74.5 -31.5t17.5 -80.5q-10 -49 -47 -81t-86 -32t-76 32t-16 81zM776 1270q8 49 46 80.5t87 31.5t74.5 -31.5 t17.5 -80.5q-10 -49 -47 -81t-86 -32t-75.5 32t-16.5 81z" />
<glyph unicode="&#xf7;" horiz-adv-x="962" d="M115 594l28 164h840l-29 -164h-839zM365 328q10 53 50 88t93 35t83 -35t19 -88q-10 -53 -51 -88t-94 -35t-81.5 35t-18.5 88zM487 1024q10 53 50.5 88t93.5 35t82.5 -35t19.5 -88t-51 -88t-94 -35t-82 35t-19 88z" />
<glyph unicode="&#xf8;" horiz-adv-x="1085" d="M72 0l106 129q-82 135 -37 383q47 270 189.5 401t343.5 131q137 0 221 -57l33 37h164l-109 -129q39 -66 50.5 -161t-11.5 -222q-25 -135 -74 -234.5t-117.5 -166t-155.5 -99t-188 -32.5q-129 0 -221 57l-30 -37h-164zM332 313l446 535q-45 53 -129 53q-49 0 -96 -20.5 t-87 -66.5t-71 -121t-49 -181q-20 -115 -14 -199zM381 176q23 -29 56.5 -41t74.5 -12q49 0 96 20.5t87 66.5t72 119.5t50 182.5q18 119 12 199z" />
<glyph unicode="&#xf9;" horiz-adv-x="1126" d="M145 0zM159.5 186.5q-14.5 63.5 0.5 141.5l123 696h204l-122 -696q-16 -86 28.5 -140.5t130.5 -54.5q47 0 88 19.5t76 42.5q37 27 74 61l135 768h205l-180 -1024h-144v123h-10q-35 -41 -84 -72q-41 -29 -100.5 -50t-137.5 -21t-137 25.5t-97 71.5t-52.5 109.5zM538 1416 h225l37 -308h-133z" />
<glyph unicode="&#xfa;" horiz-adv-x="1126" d="M145 0zM159.5 186.5q-14.5 63.5 0.5 141.5l123 696h204l-122 -696q-16 -86 28.5 -140.5t130.5 -54.5q47 0 88 19.5t76 42.5q37 27 74 61l135 768h205l-180 -1024h-144v123h-10q-35 -41 -84 -72q-41 -29 -100.5 -50t-137.5 -21t-137 25.5t-97 71.5t-52.5 109.5zM627 1108 l147 308h226l-240 -308h-133z" />
<glyph unicode="&#xfb;" horiz-adv-x="1126" d="M145 0zM159.5 186.5q-14.5 63.5 0.5 141.5l123 696h204l-122 -696q-16 -86 28.5 -140.5t130.5 -54.5q47 0 88 19.5t76 42.5q37 27 74 61l135 768h205l-180 -1024h-144v123h-10q-35 -41 -84 -72q-41 -29 -100.5 -50t-137.5 -21t-137 25.5t-97 71.5t-52.5 109.5zM426 1147 l263 266h143l168 -266h-133l-129 133l-178 -133h-134z" />
<glyph unicode="&#xfc;" horiz-adv-x="1126" d="M145 0zM159.5 186.5q-14.5 63.5 0.5 141.5l123 696h204l-122 -696q-16 -86 28.5 -140.5t130.5 -54.5q47 0 88 19.5t76 42.5q37 27 74 61l135 768h205l-180 -1024h-144v123h-10q-35 -41 -84 -72q-41 -29 -100.5 -50t-137.5 -21t-137 25.5t-97 71.5t-52.5 109.5zM439 1270 q8 49 45.5 80.5t87.5 31.5q49 0 74.5 -31.5t17.5 -80.5q-10 -49 -47 -81t-86 -32t-76 32t-16 81zM797 1270q8 49 46 80.5t87 31.5t74.5 -31.5t17.5 -80.5q-10 -49 -47 -81t-86 -32t-75.5 32t-16.5 81z" />
<glyph unicode="&#xfd;" horiz-adv-x="972" d="M-45 -369l74 133h20q12 -16 29 -26q14 -10 33.5 -17.5t42.5 -7.5q53 0 101 41t77 103l67 143h-82l-157 1024h205l104 -676q4 -23 6 -51.5t4 -52.5q2 -29 4 -60h9q12 31 24 60q10 25 21.5 53.5t21.5 50.5l307 676h205l-534 -1167q-55 -123 -156.5 -205t-233.5 -82 q-47 0 -82.5 9t-60.5 22q-29 12 -49 30zM0 0zM551 1108l147 308h226l-240 -308h-133z" />
<glyph unicode="&#xfe;" horiz-adv-x="1105" d="M39 -410l315 1782l72 62h143l-80 -451q35 16 72 31q33 10 75 20t89 10q88 0 157.5 -32.5t112.5 -99t56.5 -166t-9.5 -234.5q-25 -135 -72.5 -234.5t-114.5 -166t-147.5 -99t-168.5 -32.5q-47 0 -86 9t-68 21q-35 12 -61 31l-80 -451h-205zM346 164q23 -12 51 -21 q25 -8 58.5 -14t76.5 -6q49 0 96.5 20.5t87.5 66.5t72 119.5t50 182.5q18 106 13 181t-28.5 121t-63.5 66.5t-89 20.5q-43 0 -79 -6t-65 -14q-33 -8 -57 -21z" />
<glyph unicode="&#xff;" horiz-adv-x="972" d="M-45 -369l74 133h20q12 -16 29 -26q14 -10 33.5 -17.5t42.5 -7.5q53 0 101 41t77 103l67 143h-82l-157 1024h205l104 -676q4 -23 6 -51.5t4 -52.5q2 -29 4 -60h9q12 31 24 60q10 25 21.5 53.5t21.5 50.5l307 676h205l-534 -1167q-55 -123 -156.5 -205t-233.5 -82 q-47 0 -82.5 9t-60.5 22q-29 12 -49 30zM0 0zM361 1270q8 49 45.5 80.5t87.5 31.5q49 0 74.5 -31.5t17.5 -80.5q-10 -49 -47 -81t-86 -32t-76 32t-16 81zM719 1270q8 49 46 80.5t87 31.5t74.5 -31.5t17.5 -80.5q-10 -49 -47 -81t-86 -32t-75.5 32t-16.5 81z" />
<glyph unicode="&#x100;" horiz-adv-x="1167" d="M-20 0l671 1434h267l167 -1434h-204l-50 369h-471l-176 -369h-204zM0 0zM428 512h389l-65 563q-4 23 -4 48.5v47.5q0 25 2 48h-9q-6 -25 -14 -50q-8 -23 -17.5 -47t-19.5 -47zM537 1597l24 144h553l-24 -144h-553z" />
<glyph unicode="&#x101;" d="M66 0zM92 297q12 70 47 126t94.5 96t147.5 62.5t207 22.5h164l8 51q23 123 -24.5 184.5t-147.5 61.5q-47 0 -90 -15.5t-78 -31.5q-39 -20 -74 -45h-20l-50 123q45 31 101 55q47 23 112.5 40t143.5 17q88 0 156.5 -28.5t112.5 -80.5t60.5 -124t2.5 -156l-115 -655h-143 v123h-11q-35 -41 -84 -72q-41 -29 -100 -50t-137 -21q-162 0 -235.5 85t-47.5 232zM297 297q-14 -78 24.5 -121t131.5 -43q47 0 88 19.5t75 42.5q37 27 74 61l35 205h-164q-123 0 -187.5 -47t-76.5 -117zM428 1208l24 144h553l-24 -144h-553z" />
<glyph unicode="&#x102;" horiz-adv-x="1167" d="M-20 0l671 1434h267l167 -1434h-204l-50 369h-471l-176 -369h-204zM0 0zM428 512h389l-65 563q-4 23 -4 48.5v47.5q0 25 2 48h-9q-6 -25 -14 -50q-8 -23 -17.5 -47t-19.5 -47zM545 1823h184q-14 -78 12 -110.5t87 -32.5t97 32.5t50 110.5h184q-23 -123 -111.5 -194.5 t-242.5 -71.5t-218 71.5t-42 194.5z" />
<glyph unicode="&#x103;" d="M66 0zM92 297q12 70 47 126t94.5 96t147.5 62.5t207 22.5h164l8 51q23 123 -24.5 184.5t-147.5 61.5q-47 0 -90 -15.5t-78 -31.5q-39 -20 -74 -45h-20l-50 123q45 31 101 55q47 23 112.5 40t143.5 17q88 0 156.5 -28.5t112.5 -80.5t60.5 -124t2.5 -156l-115 -655h-143 v123h-11q-35 -41 -84 -72q-41 -29 -100 -50t-137 -21q-162 0 -235.5 85t-47.5 232zM297 297q-14 -78 24.5 -121t131.5 -43q47 0 88 19.5t75 42.5q37 27 74 61l35 205h-164q-123 0 -187.5 -47t-76.5 -117zM407 1395h184q-14 -78 12 -110.5t87 -32.5t97 32.5t50 110.5h184 q-23 -123 -111.5 -194.5t-242.5 -71.5t-218 71.5t-42 194.5z" />
<glyph unicode="&#x104;" horiz-adv-x="1177" d="M-20 0l671 1434h267l167 -1434h-204l-50 369h-471l-176 -369h-204zM0 0zM428 512h389l-65 563q-4 23 -4 48.5v47.5q0 25 2 48h-9q-6 -25 -14 -50q-8 -23 -17.5 -47t-19.5 -47zM811 -164q4 35 26.5 64.5t44.5 52.5q27 25 60 47h143q-33 -16 -59 -39q-23 -18 -43.5 -42.5 t-24.5 -51.5q-4 -31 12 -51.5t47 -20.5q23 0 45.5 7.5t40 15.5t27.5 15l10 7h19l-19 -106q-23 -16 -49 -27q-23 -10 -54.5 -17t-70.5 -7q-92 0 -130 42t-25 111z" />
<glyph unicode="&#x105;" horiz-adv-x="1034" d="M66 0zM92 297q12 70 47 126t94.5 96t147.5 62.5t207 22.5h164l8 51q23 123 -24.5 184.5t-147.5 61.5q-47 0 -90 -15.5t-78 -31.5q-39 -20 -74 -45h-20l-50 123q45 31 101 55q47 23 112.5 40t143.5 17q88 0 156.5 -28.5t112.5 -80.5t60.5 -124t2.5 -156l-115 -655h-143 v123h-11q-35 -41 -84 -72q-41 -29 -100 -50t-137 -21q-162 0 -235.5 85t-47.5 232zM297 297q-14 -78 24.5 -121t131.5 -43q47 0 88 19.5t75 42.5q37 27 74 61l35 205h-164q-123 0 -187.5 -47t-76.5 -117zM586 -164q4 35 26.5 64.5t44.5 52.5q27 25 60 47h143 q-33 -16 -59 -39q-23 -18 -43.5 -42.5t-24.5 -51.5q-4 -31 12 -51.5t47 -20.5q23 0 45.5 7.5t40 15.5t27.5 15l10 7h19l-19 -106q-23 -16 -49 -27q-23 -10 -54.5 -17t-70.5 -7q-92 0 -130 42t-25 111z" />
<glyph unicode="&#x106;" horiz-adv-x="1054" d="M152 0zM163.5 377q-12.5 139 22.5 340q35 199 96.5 339t144.5 229t185.5 129t216.5 40q86 0 148.5 -17.5t105.5 -39.5q49 -25 84 -56l-94 -122h-20q-27 25 -62 45q-29 16 -71.5 31.5t-96.5 15.5q-70 0 -134 -30t-120.5 -98.5t-101.5 -183t-76 -282.5q-31 -170 -24.5 -284 t40 -182.5t92 -98t136.5 -29.5q53 0 101 14.5t83 30.5q41 20 78 47h21l49 -123q-47 -33 -105 -57q-49 -23 -117.5 -39t-154.5 -16q-123 0 -215 39.5t-145.5 129t-66 228.5zM770 1536l147 308h226l-240 -308h-133z" />
<glyph unicode="&#x107;" horiz-adv-x="931" d="M94 0zM141 512q47 270 188.5 401t334.5 131q78 0 136 -17t99 -40q47 -25 84 -55l-94 -123h-21q-27 25 -59 45q-29 16 -66 31.5t-84 15.5q-53 0 -102 -20.5t-90 -66.5t-71.5 -121t-49.5 -181q-18 -109 -13 -182.5t30.5 -119.5t71.5 -66.5t108 -20.5q47 0 89 14.5t77 30.5 q39 20 75 47h21l49 -123q-47 -33 -102 -57q-47 -23 -112 -39t-142 -16q-209 0 -306.5 131t-50.5 401zM580 1126l147 308h226l-240 -308h-133z" />
<glyph unicode="&#x10c;" horiz-adv-x="1054" d="M152 0zM163.5 377q-12.5 139 22.5 340q35 199 96.5 339t144.5 229t185.5 129t216.5 40q86 0 148.5 -17.5t105.5 -39.5q49 -25 84 -56l-94 -122h-20q-27 25 -62 45q-29 16 -71.5 31.5t-96.5 15.5q-70 0 -134 -30t-120.5 -98.5t-101.5 -183t-76 -282.5q-31 -170 -24.5 -284 t40 -182.5t92 -98t136.5 -29.5q53 0 101 14.5t83 30.5q41 20 78 47h21l49 -123q-47 -33 -105 -57q-49 -23 -117.5 -39t-154.5 -16q-123 0 -215 39.5t-145.5 129t-66 228.5zM611 1823h133l131 -133l176 133h133l-262 -266h-143z" />
<glyph unicode="&#x10d;" horiz-adv-x="931" d="M94 0zM141 512q47 270 188.5 401t334.5 131q78 0 136 -17t99 -40q47 -25 84 -55l-94 -123h-21q-27 25 -59 45q-29 16 -66 31.5t-84 15.5q-53 0 -102 -20.5t-90 -66.5t-71.5 -121t-49.5 -181q-18 -109 -13 -182.5t30.5 -119.5t71.5 -66.5t108 -20.5q47 0 89 14.5t77 30.5 q39 20 75 47h21l49 -123q-47 -33 -102 -57q-47 -23 -112 -39t-142 -16q-209 0 -306.5 131t-50.5 401zM422 1413h133l131 -133l176 133h133l-262 -266h-143z" />
<glyph unicode="&#x10e;" horiz-adv-x="1198" d="M133 0l252 1434h307q145 0 250 -40t164 -126t72.5 -222.5t-19.5 -328.5q-35 -193 -96.5 -329t-151.5 -222t-207.5 -126t-263.5 -40h-307zM133 0zM362 143h103q92 0 170 29t139.5 96.5t106.5 177t73 271.5q29 162 22 271.5t-45 177t-104.5 96t-158.5 28.5h-103zM529 1823 h133l131 -133l176 133h133l-262 -266h-143z" />
<glyph unicode="&#x10f;" horiz-adv-x="1320" d="M130 277.5q-13 99.5 11 234.5q23 135 71 234.5t114.5 166t147.5 99t169 32.5q47 0 86 -10t68 -20q35 -14 61 -31l70 389l71 62h144l-252 -1434h-143v123h-11q-35 -41 -84 -72q-41 -29 -100 -50t-137 -21q-74 0 -134.5 32.5t-99.5 99t-52 166zM333 336q5 -72 26.5 -117 t56.5 -65.5t78 -20.5q47 0 88 19.5t75 42.5q37 27 74 61l107 604q-23 12 -52 21q-25 8 -60.5 14t-76.5 6q-49 0 -96 -20.5t-87 -66.5t-70.5 -121t-49.5 -181q-18 -104 -13 -176zM1208 1055q33 20 60 45q23 23 44 50.5t27 57.5q-39 0 -65.5 33t-18.5 80q10 47 47 80t76 33 q53 0 82 -36t19 -95q-16 -82 -52 -140.5t-73 -97.5q-43 -45 -94 -74z" />
<glyph unicode="&#x110;" horiz-adv-x="1198" d="M133 0l115 655h-113l29 164h112l109 615h307q145 0 250 -40t164 -126t72.5 -222.5t-19.5 -328.5q-35 -193 -96.5 -329t-151.5 -222t-207.5 -126t-263.5 -40h-307zM362 143h103q92 0 170 29t139.5 96.5t106.5 177t73 271.5q29 162 22 271.5t-45 177t-104.5 96t-158.5 28.5 h-103l-84 -471h236l-29 -164h-235z" />
<glyph unicode="&#x111;" horiz-adv-x="1116" d="M127 260q-14 92 6 211t67.5 211t113 154.5t146.5 94.5t169 32q47 0 86 -10.5t67 -20.5q35 -14 62 -31l33 184h-215l24 144h215l27 143l71 62h144l-37 -205h133l-25 -144h-133l-190 -1085h-143v123h-11q-35 -41 -84 -72q-41 -29 -100 -50t-137 -21q-74 0 -134.5 31.5 t-100.5 94t-54 154.5zM329 319.5q7 -63.5 29.5 -105.5t57.5 -61.5t78 -19.5q47 0 88 19.5t75 42.5q37 27 74 61l92 522q-23 12 -51 21q-25 8 -60.5 14t-76.5 6q-100 0 -182 -82t-115 -266q-16 -88 -9 -151.5z" />
<glyph unicode="&#x112;" d="M133 0l252 1434h799l-25 -144h-594l-84 -471h471l-24 -143h-471l-95 -533h594l-24 -143h-799zM133 0zM545 1618l24 144h553l-24 -144h-553z" />
<glyph unicode="&#x113;" horiz-adv-x="1034" d="M94 0zM141 512q23 135 71 234.5t115.5 166t150.5 99t175 32.5t164 -32.5t116 -99t57.5 -166t-9.5 -234.5l-6 -31l-49 -41h-594q-29 -162 29.5 -239.5t181.5 -77.5q47 0 89 14.5t77 30.5q39 20 75 47h21l49 -123q-47 -33 -102 -57q-47 -23 -112 -39t-142 -16 q-209 0 -306.5 131t-50.5 401zM358 584h430q29 170 -19 243.5t-140 73.5t-167 -74.5t-104 -242.5zM422 1208l24 144h553l-24 -144h-553z" />
<glyph unicode="&#x116;" d="M133 0l252 1434h799l-25 -144h-594l-84 -471h471l-24 -143h-471l-95 -533h594l-24 -143h-799zM133 0zM730 1680q10 53 50 88t93 35t82.5 -35t19.5 -88t-51 -88t-94 -35t-82 35t-18 88z" />
<glyph unicode="&#x117;" horiz-adv-x="1034" d="M94 0zM141 512q23 135 71 234.5t115.5 166t150.5 99t175 32.5t164 -32.5t116 -99t57.5 -166t-9.5 -234.5l-6 -31l-49 -41h-594q-29 -162 29.5 -239.5t181.5 -77.5q47 0 89 14.5t77 30.5q39 20 75 47h21l49 -123q-47 -33 -102 -57q-47 -23 -112 -39t-142 -16 q-209 0 -306.5 131t-50.5 401zM358 584h430q29 170 -19 243.5t-140 73.5t-167 -74.5t-104 -242.5zM566 1270q10 53 50 88t93 35t82.5 -35t19.5 -88t-51 -88t-94 -35t-82 35t-18 88z" />
<glyph unicode="&#x118;" d="M133 0l252 1434h799l-25 -144h-594l-84 -471h471l-24 -143h-471l-95 -533h594l-24 -143h-799zM133 0zM371 -164q4 35 26.5 64.5t44.5 52.5q27 25 60 47h143q-33 -16 -59 -39q-23 -18 -43.5 -42.5t-24.5 -51.5q-4 -31 12 -51.5t47 -20.5q23 0 45.5 7.5t40 15.5t27.5 15 l10 7h19l-19 -106q-23 -16 -49 -27q-23 -10 -54.5 -17t-70.5 -7q-92 0 -130 42t-25 111z" />
<glyph unicode="&#x119;" horiz-adv-x="1034" d="M94 0zM141 512q23 135 71 234.5t115.5 166t150.5 99t175 32.5t164 -32.5t116 -99t57.5 -166t-9.5 -234.5l-6 -31l-49 -41h-594q-29 -162 29.5 -239.5t181.5 -77.5q47 0 89 14.5t77 30.5q39 20 75 47h21l49 -123q-47 -33 -102 -57q-47 -23 -112 -39t-142 -16 q-209 0 -306.5 131t-50.5 401zM310 -164q4 35 26.5 64.5t44.5 52.5q27 25 60 47h143q-33 -16 -59 -39q-23 -18 -43.5 -42.5t-24.5 -51.5q-4 -31 12 -51.5t47 -20.5q23 0 45.5 7.5t40 15.5t27.5 15l10 7h19l-19 -106q-23 -16 -49 -27q-23 -10 -54.5 -17t-70.5 -7 q-92 0 -130 42t-25 111zM358 584h430q29 170 -19 243.5t-140 73.5t-167 -74.5t-104 -242.5z" />
<glyph unicode="&#x11a;" d="M133 0l252 1434h799l-25 -144h-594l-84 -471h471l-24 -143h-471l-95 -533h594l-24 -143h-799zM133 0zM590 1823h133l131 -133l176 133h133l-262 -266h-143z" />
<glyph unicode="&#x11b;" horiz-adv-x="1034" d="M94 0zM141 512q23 135 71 234.5t115.5 166t150.5 99t175 32.5t164 -32.5t116 -99t57.5 -166t-9.5 -234.5l-6 -31l-49 -41h-594q-29 -162 29.5 -239.5t181.5 -77.5q47 0 89 14.5t77 30.5q39 20 75 47h21l49 -123q-47 -33 -102 -57q-47 -23 -112 -39t-142 -16 q-209 0 -306.5 131t-50.5 401zM358 584h430q29 170 -19 243.5t-140 73.5t-167 -74.5t-104 -242.5zM426 1413h133l131 -133l176 133h133l-262 -266h-143z" />
<glyph unicode="&#x11e;" horiz-adv-x="1157" d="M152 0zM168 385q-16 139 18 332q33 193 97.5 332t150.5 229t186.5 133t208.5 43q86 0 148.5 -17.5t105.5 -39.5q49 -25 84 -56l-94 -122h-20q-27 25 -62 45q-29 16 -71.5 31.5t-96.5 15.5q-70 0 -134 -30t-120.5 -98.5t-101.5 -183t-76 -282.5q-31 -170 -24.5 -284 t40 -182.5t92 -98t136.5 -29.5q31 0 59.5 7t52 14.5t37.5 13.5l13 6l82 471h-236l27 143h379l49 -61l-111 -625q-49 -33 -110 -57q-53 -23 -126 -39t-161 -16q-115 0 -205 43t-145.5 133t-71.5 229zM565 1802h184q-14 -78 12 -110.5t87 -32.5t97 32.5t50 110.5h184 q-23 -123 -111.5 -194.5t-242.5 -71.5t-218 71.5t-42 194.5z" />
<glyph unicode="&#x11f;" horiz-adv-x="1095" d="M55 0zM55 -317l95 122h20q25 -27 57 -47q29 -16 67 -30.5t85 -14.5q131 0 204.5 63.5t98.5 203.5l10 61q-35 -18 -71 -31q-33 -12 -75 -21t-89 -9q-88 0 -158 32.5t-113 99t-56 166t11 234.5q23 135 71 234.5t110.5 166t134 99t145.5 32.5q78 0 129 -22.5t84 -48.5 q37 -33 59 -72h11l43 123h143l-184 -1044q-16 -92 -59.5 -168t-110 -129.5t-153.5 -83t-191 -29.5q-78 0 -136.5 16.5t-99.5 38.5q-47 25 -82 58zM332 329.5q4 -73.5 27.5 -119.5t63.5 -66.5t89 -20.5q41 0 78 6t65 14q33 8 60 21l106 604q-23 35 -51 61q-25 23 -60.5 42.5 t-82.5 19.5q-43 0 -85 -20.5t-80 -65.5t-67.5 -117t-48.5 -176q-18 -109 -14 -182.5zM436 1413h184q-14 -78 12 -110.5t87 -32.5t97 32.5t50 110.5h184q-23 -123 -111.5 -194.5t-242.5 -71.5t-218 71.5t-42 194.5z" />
<glyph unicode="&#x122;" horiz-adv-x="1157" d="M152 0zM168 385q-16 139 18 332q33 193 97.5 332t150.5 229t186.5 133t208.5 43q86 0 148.5 -17.5t105.5 -39.5q49 -25 84 -56l-94 -122h-20q-27 25 -62 45q-29 16 -71.5 31.5t-96.5 15.5q-70 0 -134 -30t-120.5 -98.5t-101.5 -183t-76 -282.5q-31 -170 -24.5 -284 t40 -182.5t92 -98t136.5 -29.5q31 0 59.5 7t52 14.5t37.5 13.5l13 6l82 471h-236l27 143h379l49 -61l-111 -625q-49 -33 -110 -57q-53 -23 -126 -39t-161 -16q-115 0 -205 43t-145.5 133t-71.5 229zM379 -479q33 20 59 45q23 23 43 50.5t27 58.5q-39 0 -64.5 32.5 t-17.5 79.5t45 80t75 33q53 0 82 -36t19 -95q-16 -82 -51 -140.5t-72 -97.5q-43 -45 -94 -73z" />
<glyph unicode="&#x123;" horiz-adv-x="1095" d="M55 0zM55 -317l95 122h20q25 -27 57 -47q29 -16 67 -30.5t85 -14.5q131 0 204.5 63.5t98.5 203.5l10 61q-35 -18 -71 -31q-33 -12 -75 -21t-89 -9q-88 0 -158 32.5t-113 99t-56 166t11 234.5q23 135 71 234.5t110.5 166t134 99t145.5 32.5q78 0 129 -22.5t84 -48.5 q37 -33 59 -72h11l43 123h143l-184 -1044q-16 -92 -59.5 -168t-110 -129.5t-153.5 -83t-191 -29.5q-78 0 -136.5 16.5t-99.5 38.5q-47 25 -82 58zM332 329.5q4 -73.5 27.5 -119.5t63.5 -66.5t89 -20.5q41 0 78 6t65 14q33 8 60 21l106 604q-23 35 -51 61q-25 23 -60.5 42.5 t-82.5 19.5q-43 0 -85 -20.5t-80 -65.5t-67.5 -117t-48.5 -176q-18 -109 -14 -182.5zM688 1298q16 82 51 140.5t72 97.5q43 45 94 73l51 -63q-33 -20 -59 -45q-23 -23 -43 -50.5t-27 -58.5q39 0 64.5 -32.5t17.5 -79.5t-45 -80t-75 -33q-53 0 -82 36t-19 95z" />
<glyph unicode="&#x127;" horiz-adv-x="1146" d="M133 0l186 1065h-133l27 143h133l29 164l71 62h144l-39 -226h276l-26 -143h-277l-43 -246q35 29 78 51q37 18 89 35t118 17q76 0 136.5 -26t98 -72t52 -110.5t0.5 -140.5l-101 -573h-204l100 573q16 86 -29 140.5t-131 54.5q-47 0 -90 -19.5t-76 -41.5q-39 -27 -71 -62 l-113 -645h-205z" />
<glyph unicode="&#x128;" horiz-adv-x="512" d="M104 0l252 1434h205l-252 -1434h-205zM104 0zM200 1659q35 70 86.5 122t128.5 52q39 0 61.5 -14t38 -31.5t31 -32t37.5 -14.5q23 0 43.5 12.5t35 27.5t22.5 29l8 13h18l74 -51q-35 -70 -86 -122t-129 -52q-39 0 -61.5 14.5t-38 31.5t-30.5 31.5t-38 14.5t-43 -13.5 t-34.5 -28.5t-22.5 -28l-8 -12h-19z" />
<glyph unicode="&#x129;" horiz-adv-x="491" d="M94 0l181 1024h204l-180 -1024h-205zM94 0zM120 1249q35 70 86.5 122t128.5 52q39 0 61.5 -14t38 -31.5t31 -32t37.5 -14.5q23 0 43.5 12.5t35 27.5t22.5 29l8 13h18l74 -51q-35 -70 -86 -122t-129 -52q-39 0 -61.5 14.5t-38 31.5t-30.5 31.5t-38 14.5t-43 -13.5 t-34.5 -28.5t-22.5 -28l-8 -12h-19z" />
<glyph unicode="&#x12a;" horiz-adv-x="532" d="M115 0l252 1434h205l-252 -1434h-205zM115 0zM219 1597l24 144h553l-24 -144h-553z" />
<glyph unicode="&#x12b;" horiz-adv-x="512" d="M102 0l181 1024h204l-180 -1024h-205zM139 1188l25 143h553l-25 -143h-553z" />
<glyph unicode="&#x12e;" horiz-adv-x="552" d="M41 0zM54 -164q4 35 26.5 64.5t44.5 52.5q27 25 60 47h143q-33 -16 -59 -39q-23 -18 -43.5 -42.5t-24.5 -51.5q-4 -31 12 -51.5t47 -20.5q23 0 45.5 7.5t40 15.5t27.5 15l10 7h19l-19 -106q-23 -16 -49 -27q-23 -10 -54.5 -17t-70.5 -7q-92 0 -130 42t-25 111zM125 0 l252 1434h205l-252 -1434h-205z" />
<glyph unicode="&#x12f;" horiz-adv-x="501" d="M20 0zM33 -164q4 35 26.5 64.5t44.5 52.5q27 25 60 47h143q-33 -16 -59 -39q-23 -18 -43.5 -42.5t-24.5 -51.5q-4 -31 12 -51.5t47 -20.5q23 0 45.5 7.5t40 15.5t27.5 15l10 7h19l-19 -106q-23 -16 -49 -27q-23 -10 -54.5 -17t-70.5 -7q-92 0 -130 42t-25 111zM102 0 l181 1024h204l-180 -1024h-205zM311 1311q10 53 51 88t95 35q53 0 81.5 -35t18.5 -88t-50 -88t-93 -35t-83 34.5t-20 88.5z" />
<glyph unicode="&#x130;" horiz-adv-x="532" d="M115 0l252 1434h205l-252 -1434h-205zM115 0zM388 1680q10 53 50 88t93 35t82.5 -35t19.5 -88t-51 -88t-94 -35t-82 35t-18 88z" />
<glyph unicode="&#x131;" horiz-adv-x="512" d="M102 0l181 1024h204l-180 -1024h-205z" />
<glyph unicode="&#x133;" horiz-adv-x="1034" d="M102 0l181 1024h727l-197 -1106q-12 -74 -47 -134t-86 -103t-118.5 -67t-143.5 -24q-47 0 -83 9.5t-61 21.5q-29 12 -49 31l74 133h20q12 -16 29 -27q14 -10 33.5 -17t42.5 -7q70 0 119 46t65 138l170 963h-317l-154 -881h-205zM311 1311q10 53 51 88t95 35 q53 0 81.5 -35t18.5 -88t-50 -88t-93 -35t-83 34.5t-20 88.5zM834 1311q10 53 51 88t94 35t81.5 -35t18.5 -88t-50 -88t-93 -35t-83 34.5t-19 88.5z" />
<glyph unicode="&#x134;" horiz-adv-x="839" d="M-39 72l84 133h21q20 -23 45 -41q23 -16 51 -28.5t63 -12.5q117 0 187.5 63.5t95.5 202.5l184 1045h205l-184 -1045q-35 -201 -159 -305t-333 -104q-61 0 -109.5 14t-82.5 31q-39 20 -68 47zM0 0zM509 1516l263 266h143l168 -266h-133l-129 133l-178 -133h-134z" />
<glyph unicode="&#x135;" horiz-adv-x="548" d="M-254 -348l74 133h20q12 -16 29 -27q14 -10 33.5 -17t42.5 -7q68 0 117 46t65 138l197 1106h204l-196 -1106q-12 -74 -47 -134t-86.5 -103t-118 -67t-141.5 -24q-47 0 -83 9.5t-61 21.5q-29 12 -49 31zM143 1126l263 267h143l168 -267h-133l-129 134l-179 -134h-133z" />
<glyph unicode="&#x136;" horiz-adv-x="1136" d="M133 0l252 1434h205l-119 -676l580 676h235l-594 -697l363 -737h-236l-356 717l-125 -717h-205zM133 0zM363 -400q33 20 59 45q23 23 43 50.5t27 58.5q-39 0 -64.5 32.5t-17.5 79.5t45 80t75 33q53 0 82 -36t19 -95q-16 -82 -51 -140.5t-72 -97.5q-43 -45 -94 -73z" />
<glyph unicode="&#x137;" horiz-adv-x="983" d="M102 0zM102 0l242 1372l72 62h143l-156 -881l433 471h235l-457 -492l297 -532h-235l-279 512l-90 -512h-205zM207 -348l45 82h18q-2 0 22.5 -15.5t63.5 -15.5t65 20.5t30 51.5q6 31 -13.5 51t-66.5 20h-82l35 195h123l-19 -102q86 0 127 -47.5t29 -116.5 q-12 -70 -71.5 -117t-152.5 -47q-39 0 -67.5 6t-46.5 14q-23 8 -39 21z" />
<glyph unicode="&#x138;" horiz-adv-x="983" d="M102 0l168 963l74 61h143l-84 -471l433 471h235l-457 -492l297 -532h-235l-279 512l-90 -512h-205z" />
<glyph unicode="&#x139;" horiz-adv-x="1003" d="M133 0l252 1434h205l-228 -1291h594l-24 -143h-799zM133 0zM463 1536l147 308h226l-240 -308h-133z" />
<glyph unicode="&#x13a;" horiz-adv-x="516" d="M102 0l242 1372l72 62h143l-252 -1434h-205zM102 0zM416 1536l147 308h226l-240 -308h-133z" />
<glyph unicode="&#x13b;" horiz-adv-x="1003" d="M133 0l252 1434h205l-228 -1291h594l-24 -143h-799zM133 0zM338 -479q33 20 59 45q23 23 43 50.5t27 58.5q-39 0 -64.5 32.5t-17.5 79.5t45 80t75 33q53 0 82 -36t19 -95q-16 -82 -51 -140.5t-72 -97.5q-43 -45 -94 -73z" />
<glyph unicode="&#x13c;" horiz-adv-x="512" d="M6 0zM7 -479q33 20 59 45q23 23 43 50.5t27 58.5q-39 0 -64.5 32.5t-17.5 79.5t45 80t75 33q53 0 82 -36t19 -95q-16 -82 -51 -140.5t-72 -97.5q-43 -45 -94 -73zM102 0l242 1372l72 62h143l-252 -1434h-205z" />
<glyph unicode="&#x13d;" horiz-adv-x="1003" d="M133 0l252 1434h205l-228 -1291h594l-24 -143h-799zM676 1055q33 20 59 45q23 23 44.5 50.5t27.5 57.5q-39 0 -65.5 33t-18.5 80q10 47 47 80t76 33q53 0 81.5 -36t18.5 -95q-16 -82 -52 -140.5t-73 -97.5q-43 -45 -94 -74z" />
<glyph unicode="&#x13e;" horiz-adv-x="747" d="M102 0l242 1372l72 62h143l-252 -1434h-205zM635 1055q33 20 59 45q23 23 44.5 50.5t27.5 57.5q-39 0 -65.5 33t-18.5 80q10 47 47 80t76 33q53 0 81.5 -36t18.5 -95q-16 -82 -52 -140.5t-73 -97.5q-43 -45 -94 -74z" />
<glyph unicode="&#x140;" horiz-adv-x="737" d="M102 0l242 1372l72 62h143l-252 -1434h-205zM102 0zM545 717q10 53 51 88t94 35t82 -35t19 -88t-50.5 -88t-93.5 -35t-82.5 35t-19.5 88z" />
<glyph unicode="&#x141;" horiz-adv-x="966" d="M57 451l41 225l156 102l115 656h204l-88 -502l263 174l-41 -225l-263 -174l-98 -564h574l-25 -143h-778l96 553z" />
<glyph unicode="&#x142;" horiz-adv-x="593" d="M78 451l41 225l139 100l107 596l71 62h144l-88 -494l190 145l-39 -225l-190 -145l-125 -715h-205l96 551z" />
<glyph unicode="&#x143;" horiz-adv-x="1290" d="M133 0l252 1434h225l269 -912q6 -23 12 -53.5t10 -56.5q6 -33 8 -64h9q4 31 8 64q4 27 7 57.5t7 52.5l162 912h205l-252 -1434h-226l-270 911q-8 23 -13 52.5t-9 58.5q-6 31 -9 63h-8q-4 -33 -8 -63q-4 -29 -7 -58.5t-7 -52.5l-160 -911h-205zM133 0zM760 1515l147 308 h226l-240 -308h-133z" />
<glyph unicode="&#x144;" horiz-adv-x="1116" d="M102 0l181 1024h143l-2 -123h10q35 39 84 72q41 27 100.5 49t137.5 22q76 0 136 -25.5t98 -71.5t52.5 -110.5t-0.5 -140.5l-120 -696h-205l121 696q16 86 -29 140.5t-131 54.5q-47 0 -89 -19.5t-75 -42.5q-37 -27 -72 -61l-135 -768h-205zM102 0zM627 1126l147 308h226 l-240 -308h-133z" />
<glyph unicode="&#x145;" horiz-adv-x="1290" d="M133 0l252 1434h225l269 -912q6 -23 12 -53.5t10 -56.5q6 -33 8 -64h9q4 31 8 64q4 27 7 57.5t7 52.5l162 912h205l-252 -1434h-226l-270 911q-8 23 -13 52.5t-9 58.5q-6 31 -9 63h-8q-4 -33 -8 -63q-4 -29 -7 -58.5t-7 -52.5l-160 -911h-205zM133 0zM410 -400 q33 20 59 45q23 23 43 50.5t27 58.5q-39 0 -64.5 32.5t-17.5 79.5t45 80t75 33q53 0 82 -36t19 -95q-16 -82 -51 -140.5t-72 -97.5q-43 -45 -94 -73z" />
<glyph unicode="&#x146;" horiz-adv-x="1116" d="M102 0l181 1024h143l-2 -123h10q35 39 84 72q41 27 100.5 49t137.5 22q76 0 136 -25.5t98 -71.5t52.5 -110.5t-0.5 -140.5l-120 -696h-205l121 696q16 86 -29 140.5t-131 54.5q-47 0 -89 -19.5t-75 -42.5q-37 -27 -72 -61l-135 -768h-205zM102 0zM332 -400q33 20 59 45 q23 23 43 50.5t27 58.5q-39 0 -64.5 32.5t-17.5 79.5t45 80t75 33q53 0 82 -36t19 -95q-16 -82 -51 -140.5t-72 -97.5q-43 -45 -94 -73z" />
<glyph unicode="&#x147;" horiz-adv-x="1290" d="M133 0l252 1434h225l269 -912q6 -23 12 -53.5t10 -56.5q6 -33 8 -64h9q4 31 8 64q4 27 7 57.5t7 52.5l162 912h205l-252 -1434h-226l-270 911q-8 23 -13 52.5t-9 58.5q-6 31 -9 63h-8q-4 -33 -8 -63q-4 -29 -7 -58.5t-7 -52.5l-160 -911h-205zM133 0zM623 1802h133 l131 -133l176 133h133l-262 -266h-143z" />
<glyph unicode="&#x148;" horiz-adv-x="1116" d="M102 0l181 1024h143l-2 -123h10q35 39 84 72q41 27 100.5 49t137.5 22q76 0 136 -25.5t98 -71.5t52.5 -110.5t-0.5 -140.5l-120 -696h-205l121 696q16 86 -29 140.5t-131 54.5q-47 0 -89 -19.5t-75 -42.5q-37 -27 -72 -61l-135 -768h-205zM102 0zM467 1413h133l131 -133 l176 133h133l-262 -266h-143z" />
<glyph unicode="&#x14c;" horiz-adv-x="1228" d="M152 0zM164 377q-12 139 22 340q35 199 96.5 339t143.5 229t182.5 129t210.5 40q111 0 196 -40t136 -129t62.5 -229t-23.5 -339q-35 -201 -96.5 -340t-143.5 -228.5t-181 -129t-210 -39.5t-197 39.5t-136 129t-62 228.5zM365.5 433q5.5 -114 34 -182.5t77.5 -98 t107 -29.5q57 0 115.5 29.5t112.5 98t98 182.5t75 284q31 168 26 282.5t-35 183t-78 98.5t-105 30t-116 -30t-113 -98.5t-98 -183t-75 -282.5q-31 -170 -25.5 -284zM572 1618l24 144h553l-24 -144h-553z" />
<glyph unicode="&#x14d;" horiz-adv-x="1085" d="M94 0zM141 512q47 270 189.5 401t343.5 131q100 0 175 -32.5t121 -99t60.5 -166t-8.5 -234.5q-25 -135 -74 -234.5t-117.5 -166t-155.5 -99t-188 -32.5q-201 0 -297 132t-49 400zM332 329.5q4 -73.5 27.5 -119.5t63.5 -66.5t89 -20.5t96 20.5t87 66.5t72 119.5t50 182.5 q18 106 13 181t-28.5 121t-63.5 66.5t-89 20.5t-96 -20.5t-87 -66.5t-70.5 -121t-49.5 -181q-18 -109 -14 -182.5zM428 1208l24 144h553l-24 -144h-553z" />
<glyph unicode="&#x150;" horiz-adv-x="1228" d="M152 0zM164 377q-12 139 22 340q35 199 96.5 339t143.5 229t182.5 129t210.5 40q111 0 196 -40t136 -129t62.5 -229t-23.5 -339q-35 -201 -96.5 -340t-143.5 -228.5t-181 -129t-210 -39.5t-197 39.5t-136 129t-62 228.5zM365.5 433q5.5 -114 34 -182.5t77.5 -98 t107 -29.5q57 0 115.5 29.5t112.5 98t98 182.5t75 284q31 168 26 282.5t-35 183t-78 98.5t-105 30t-116 -30t-113 -98.5t-98 -183t-75 -282.5q-31 -170 -25.5 -284zM631 1536l147 308h195l-229 -308h-113zM907 1536l148 308h194l-229 -308h-113z" />
<glyph unicode="&#x151;" horiz-adv-x="1085" d="M94 0zM141 512q47 270 189.5 401t343.5 131q100 0 175 -32.5t121 -99t60.5 -166t-8.5 -234.5q-25 -135 -74 -234.5t-117.5 -166t-155.5 -99t-188 -32.5q-201 0 -297 132t-49 400zM332 329.5q4 -73.5 27.5 -119.5t63.5 -66.5t89 -20.5t96 20.5t87 66.5t72 119.5t50 182.5 q18 106 13 181t-28.5 121t-63.5 66.5t-89 20.5t-96 -20.5t-87 -66.5t-70.5 -121t-49.5 -181q-18 -109 -14 -182.5zM467 1126l147 308h195l-229 -308h-113zM743 1126l148 308h194l-229 -308h-113z" />
<glyph unicode="&#x152;" horiz-adv-x="1669" d="M166 388q-14 136 20 329q33 193 95.5 329t152.5 222t209 126t264 40h901l-24 -144h-594l-84 -471h471l-25 -143h-471l-94 -533h594l-25 -143h-901q-145 0 -249.5 40t-165 126t-74.5 222zM369.5 445.5q7.5 -109.5 45.5 -177t105.5 -96.5t159.5 -29h102l203 1147h-102 q-92 0 -170 -28.5t-139.5 -96t-107.5 -177t-75 -271.5t-21.5 -271.5z" />
<glyph unicode="&#x153;" horiz-adv-x="1679" d="M141 512q47 270 188.5 401t334.5 131q117 0 187.5 -46.5t111.5 -116.5q66 70 152.5 116.5t193.5 46.5q88 0 157.5 -32.5t112.5 -99t56.5 -166t-9.5 -234.5l-6 -31l-49 -41h-574q-14 -80 -6 -140t34 -99t68 -58.5t95 -19.5q47 0 89 14.5t77 30.5q39 20 76 47h20l49 -123 q-47 -33 -102 -57q-47 -23 -111.5 -39t-142.5 -16q-100 0 -182 39.5t-125 123.5q-72 -84 -157 -123.5t-202 -39.5q-193 0 -288 132t-48 400zM332 329.5q4 -73.5 26.5 -119.5t59.5 -66.5t84 -20.5q45 0 88 19.5t81 62.5t69.5 112.5t52.5 171.5l4 23l2 20q16 100 10 171 t-29.5 115t-59.5 63.5t-81 19.5q-47 0 -91 -20.5t-83 -66.5t-69.5 -121t-49.5 -181q-18 -109 -14 -182.5zM1024 584h410q14 84 9 144t-26.5 98t-55.5 56.5t-77 18.5q-84 0 -157.5 -74.5t-102.5 -242.5z" />
<glyph unicode="&#x154;" horiz-adv-x="1177" d="M133 0l252 1434h348q262 0 366.5 -117t65.5 -334q-55 -328 -354 -420l244 -563h-236l-225 532h-164l-92 -532h-205zM133 0zM457 676h143q307 0 361 307q55 307 -252 307h-144zM698 1536l147 308h226l-240 -308h-133z" />
<glyph unicode="&#x155;" horiz-adv-x="747" d="M102 0l181 1024h143l-2 -123h10q35 39 82 72q41 27 98.5 49t130.5 22q27 0 50.5 -3t42.5 -7q23 -6 39 -10l-60 -164h-20q-20 4 -43 10q-18 4 -41.5 7.5t-46.5 3.5q-43 0 -83 -19.5t-73 -42.5q-37 -27 -70 -61l-133 -758h-205zM102 0zM498 1126l147 308h226l-240 -308 h-133z" />
<glyph unicode="&#x156;" horiz-adv-x="1177" d="M133 0l252 1434h348q262 0 366.5 -117t65.5 -334q-55 -328 -354 -420l244 -563h-236l-225 532h-164l-92 -532h-205zM133 0zM363 -400q33 20 59 45q23 23 43 50.5t27 58.5q-39 0 -64.5 32.5t-17.5 79.5t45 80t75 33q53 0 82 -36t19 -95q-16 -82 -51 -140.5t-72 -97.5 q-43 -45 -94 -73zM457 676h143q307 0 361 307q55 307 -252 307h-144z" />
<glyph unicode="&#x157;" horiz-adv-x="747" d="M6 0zM7 -479q33 20 59 45q23 23 43 50.5t27 58.5q-39 0 -64.5 32.5t-17.5 79.5t45 80t75 33q53 0 82 -36t19 -95q-16 -82 -51 -140.5t-72 -97.5q-43 -45 -94 -73zM102 0l181 1024h143l-2 -123h10q35 39 82 72q41 27 98.5 49t130.5 22q27 0 50.5 -3t42.5 -7q23 -6 39 -10 l-60 -164h-20q-20 4 -43 10q-18 4 -41.5 7.5t-46.5 3.5q-43 0 -83 -19.5t-73 -42.5q-37 -27 -70 -61l-133 -758h-205z" />
<glyph unicode="&#x158;" horiz-adv-x="1177" d="M133 0l252 1434h348q262 0 366.5 -117t65.5 -334q-55 -328 -354 -420l244 -563h-236l-225 532h-164l-92 -532h-205zM133 0zM457 676h143q307 0 361 307q55 307 -252 307h-144zM539 1823h133l131 -133l176 133h133l-262 -266h-143z" />
<glyph unicode="&#x159;" horiz-adv-x="778" d="M102 0l181 1024h143l-2 -123h10q35 39 82 72q41 27 98.5 49t130.5 22q27 0 50.5 -3t42.5 -7q23 -6 39 -10l-60 -164h-20q-20 4 -43 10q-18 4 -41.5 7.5t-46.5 3.5q-43 0 -83 -19.5t-73 -42.5q-37 -27 -70 -61l-133 -758h-205zM102 0zM381 1413h133l131 -133l176 133h133 l-262 -266h-143z" />
<glyph unicode="&#x15a;" horiz-adv-x="1034" d="M35 0zM35 92l94 123h21q33 -27 75 -47q37 -16 91.5 -30.5t123.5 -14.5q139 0 225.5 68.5t104.5 177.5q14 82 -25.5 134t-107.5 92t-147.5 76t-144 86t-101.5 122.5t-17 185.5q14 84 57.5 155.5t108 124t149.5 81t185 28.5t171 -17.5t118 -39.5q53 -25 90 -56l-94 -122 h-21q-27 25 -65 45q-35 16 -85 31.5t-120 15.5q-53 0 -101.5 -18.5t-86 -49.5t-63.5 -72t-34 -86q-14 -82 26 -134t107.5 -92t147.5 -75.5t144.5 -86t101 -123t16.5 -185.5q-16 -92 -59 -168t-113 -129t-163 -82.5t-208 -29.5q-100 0 -175 16t-126 39q-59 25 -100 57z M658 1536l147 308h226l-240 -308h-133z" />
<glyph unicode="&#x15b;" horiz-adv-x="942" d="M35 0zM35 92l94 123h21q27 -27 63 -47q31 -16 78 -30.5t108 -14.5q131 0 190.5 41t69.5 102q10 55 -26.5 89t-95 58.5t-129 47t-128 57.5t-91 88t-17.5 142q23 131 131.5 213.5t308.5 82.5q86 0 148.5 -17t105.5 -40q51 -25 86 -55l-94 -123h-20q-27 25 -62 45 q-29 16 -71.5 31.5t-96.5 15.5q-109 0 -163 -40t-64 -93q-10 -55 26.5 -89t95 -58.5t129 -47t128 -57.5t90.5 -89t18 -140q-25 -139 -137.5 -223t-335.5 -84q-92 0 -159.5 16t-112.5 39q-53 25 -88 57zM518 1126l147 308h226l-240 -308h-133z" />
<glyph unicode="&#x15e;" horiz-adv-x="1034" d="M35 0zM35 92l94 123h21q33 -27 75 -47q37 -16 91.5 -30.5t123.5 -14.5q139 0 225.5 68.5t104.5 177.5q14 82 -25.5 134t-107.5 92t-147.5 76t-144 86t-101.5 122.5t-17 185.5q14 84 57.5 155.5t108 124t149.5 81t185 28.5t171 -17.5t118 -39.5q53 -25 90 -56l-94 -122 h-21q-27 25 -65 45q-35 16 -85 31.5t-120 15.5q-53 0 -101.5 -18.5t-86 -49.5t-63.5 -72t-34 -86q-14 -82 26 -134t107.5 -92t147.5 -75.5t144.5 -86t101 -123t16.5 -185.5q-16 -92 -59 -168t-113 -129t-163 -82.5t-208 -29.5q-100 0 -175 16t-126 39q-59 25 -100 57z M248 -348l45 82h18q-2 0 22.5 -15.5t63.5 -15.5t65 20.5t30 51.5q6 31 -13.5 51t-66.5 20h-82l35 195h123l-19 -102q86 0 127 -47.5t29 -116.5q-12 -70 -71.5 -117t-152.5 -47q-39 0 -67.5 6t-46.5 14q-23 8 -39 21z" />
<glyph unicode="&#x15f;" horiz-adv-x="942" d="M35 0zM35 92l94 123h21q27 -27 63 -47q31 -16 78 -30.5t108 -14.5q131 0 190.5 41t69.5 102q10 55 -26.5 89t-95 58.5t-129 47t-128 57.5t-91 88t-17.5 142q23 131 131.5 213.5t308.5 82.5q86 0 148.5 -17t105.5 -40q51 -25 86 -55l-94 -123h-20q-27 25 -62 45 q-29 16 -71.5 31.5t-96.5 15.5q-109 0 -163 -40t-64 -93q-10 -55 26.5 -89t95 -58.5t129 -47t128 -57.5t90.5 -89t18 -140q-25 -139 -137.5 -223t-335.5 -84q-92 0 -159.5 16t-112.5 39q-53 25 -88 57zM221 -348l45 82h18q-2 0 22.5 -15.5t63.5 -15.5t65 20.5t30 51.5 q6 31 -13.5 51t-66.5 20h-82l35 195h123l-19 -102q86 0 127 -47.5t29 -116.5q-12 -70 -71.5 -117t-152.5 -47q-39 0 -67.5 6t-46.5 14q-23 8 -39 21z" />
<glyph unicode="&#x160;" horiz-adv-x="1034" d="M35 0zM35 92l94 123h21q33 -27 75 -47q37 -16 91.5 -30.5t123.5 -14.5q139 0 225.5 68.5t104.5 177.5q14 82 -25.5 134t-107.5 92t-147.5 76t-144 86t-101.5 122.5t-17 185.5q14 84 57.5 155.5t108 124t149.5 81t185 28.5t171 -17.5t118 -39.5q53 -25 90 -56l-94 -122 h-21q-27 25 -65 45q-35 16 -85 31.5t-120 15.5q-53 0 -101.5 -18.5t-86 -49.5t-63.5 -72t-34 -86q-14 -82 26 -134t107.5 -92t147.5 -75.5t144.5 -86t101 -123t16.5 -185.5q-16 -92 -59 -168t-113 -129t-163 -82.5t-208 -29.5q-100 0 -175 16t-126 39q-59 25 -100 57z M498 1823h133l131 -133l176 133h133l-262 -266h-143z" />
<glyph unicode="&#x161;" horiz-adv-x="942" d="M35 0zM35 92l94 123h21q27 -27 63 -47q31 -16 78 -30.5t108 -14.5q131 0 190.5 41t69.5 102q10 55 -26.5 89t-95 58.5t-129 47t-128 57.5t-91 88t-17.5 142q23 131 131.5 213.5t308.5 82.5q86 0 148.5 -17t105.5 -40q51 -25 86 -55l-94 -123h-20q-27 25 -62 45 q-29 16 -71.5 31.5t-96.5 15.5q-109 0 -163 -40t-64 -93q-10 -55 26.5 -89t95 -58.5t129 -47t128 -57.5t90.5 -89t18 -140q-25 -139 -137.5 -223t-335.5 -84q-92 0 -159.5 16t-112.5 39q-53 25 -88 57zM381 1413h133l131 -133l176 133h133l-262 -266h-143z" />
<glyph unicode="&#x162;" horiz-adv-x="983" d="M197 0zM197 1290l24 144h942l-24 -144h-369l-227 -1290h-205l227 1290h-368zM238 -500q33 20 59 45q23 23 43 50.5t27 58.5q-39 0 -64.5 32.5t-17.5 79.5t45 80t75 33q53 0 82 -36t19 -95q-16 -82 -51 -140.5t-72 -97.5q-43 -45 -94 -73z" />
<glyph unicode="&#x163;" horiz-adv-x="819" d="M143 0zM143 881l23 123l313 266h92l-43 -246h256l-26 -143h-256l-101 -574q-16 -92 18 -138t103 -46q35 0 69 12t60 29q31 18 60 41h20l51 -123q-43 -29 -92 -51q-41 -20 -96 -35.5t-117 -15.5q-78 0 -135 23.5t-94 66.5t-50.5 103t-0.5 134l100 574h-154zM248 -500 q33 20 59 45q23 23 43 50.5t27 58.5q-39 0 -64.5 32.5t-17.5 79.5t45 80t75 33q53 0 82 -36t19 -95q-16 -82 -51 -140.5t-72 -97.5q-43 -45 -94 -73z" />
<glyph unicode="&#x164;" horiz-adv-x="983" d="M197 0zM197 1290l24 144h942l-24 -144h-369l-227 -1290h-205l227 1290h-368zM474 1823h133l131 -133l176 133h133l-262 -266h-143z" />
<glyph unicode="&#x165;" horiz-adv-x="983" d="M143 881l23 123l313 266h92l-43 -246h256l-26 -143h-256l-101 -574q-16 -92 18 -138t103 -46q35 0 69 12t60 29q31 18 60 41h20l51 -123q-43 -29 -92 -51q-41 -20 -96 -35.5t-117 -15.5q-78 0 -135 23.5t-94 66.5t-50.5 103t-0.5 134l100 574h-154zM842 891q33 20 59 45 q23 23 43.5 50.5t26.5 57.5q-39 0 -64.5 33t-17.5 80t46 80t77 33q53 0 81.5 -36t18.5 -95q-16 -82 -52 -140.5t-73 -97.5q-43 -45 -94 -74z" />
<glyph unicode="&#x16a;" horiz-adv-x="1269" d="M160 0zM201 451l174 983h205l-174 -983q-29 -170 26 -249t172 -79t201 79t113 249l174 983h204l-174 -983q-41 -231 -180 -351t-362 -120t-321.5 119.5t-57.5 351.5zM588 1597l24 144h553l-24 -144h-553z" />
<glyph unicode="&#x16b;" horiz-adv-x="1126" d="M145 0zM159.5 186.5q-14.5 63.5 0.5 141.5l123 696h204l-122 -696q-16 -86 28.5 -140.5t130.5 -54.5q47 0 88 19.5t76 42.5q37 27 74 61l135 768h205l-180 -1024h-144v123h-10q-35 -41 -84 -72q-41 -29 -100.5 -50t-137.5 -21t-137 25.5t-97 71.5t-52.5 109.5zM445 1190 l24 144h553l-24 -144h-553z" />
<glyph unicode="&#x16e;" horiz-adv-x="1269" d="M160 0zM201 451l174 983h205l-174 -983q-29 -170 26 -249t172 -79t201 79t113 249l174 983h204l-174 -983q-41 -231 -180 -351t-362 -120t-321.5 119.5t-57.5 351.5zM674 1689q16 86 81.5 140.5t157.5 54.5t139.5 -54.5t30.5 -140.5q-14 -86 -79.5 -140t-157.5 -54 t-139.5 54t-32.5 140zM796 1689q-8 -47 14.5 -69.5t53.5 -22.5t59.5 22.5t36.5 69.5q10 47 -12 70t-53 23t-59.5 -22.5t-39.5 -70.5z" />
<glyph unicode="&#x16f;" horiz-adv-x="1126" d="M145 0zM159.5 186.5q-14.5 63.5 0.5 141.5l123 696h204l-122 -696q-16 -86 28.5 -140.5t130.5 -54.5q47 0 88 19.5t76 42.5q37 27 74 61l135 768h205l-180 -1024h-144v123h-10q-35 -41 -84 -72q-41 -29 -100.5 -50t-137.5 -21t-137 25.5t-97 71.5t-52.5 109.5zM537 1320 q16 86 81.5 140.5t157.5 54.5t139.5 -54.5t30.5 -140.5q-14 -86 -79.5 -140t-157.5 -54t-139.5 54t-32.5 140zM659 1320q-8 -47 14.5 -69.5t53.5 -22.5t59.5 22.5t36.5 69.5q10 47 -12 70t-53 23t-59.5 -22.5t-39.5 -70.5z" />
<glyph unicode="&#x170;" horiz-adv-x="1269" d="M160 0zM201 451l174 983h205l-174 -983q-29 -170 26 -249t172 -79t201 79t113 249l174 983h204l-174 -983q-41 -231 -180 -351t-362 -120t-321.5 119.5t-57.5 351.5zM647 1515l147 308h195l-229 -308h-113zM923 1515l148 308h194l-229 -308h-113z" />
<glyph unicode="&#x171;" horiz-adv-x="1126" d="M145 0zM159.5 186.5q-14.5 63.5 0.5 141.5l123 696h204l-122 -696q-16 -86 28.5 -140.5t130.5 -54.5q47 0 88 19.5t76 42.5q37 27 74 61l135 768h205l-180 -1024h-144v123h-10q-35 -41 -84 -72q-41 -29 -100.5 -50t-137.5 -21t-137 25.5t-97 71.5t-52.5 109.5zM504 1108 l147 308h195l-229 -308h-113zM780 1108l148 308h194l-229 -308h-113z" />
<glyph unicode="&#x172;" horiz-adv-x="1269" d="M160 0zM201 451l174 983h205l-174 -983q-29 -170 26 -249t172 -79t201 79t113 249l174 983h204l-174 -983q-41 -231 -180 -351t-362 -120t-321.5 119.5t-57.5 351.5zM402 -164q4 35 26.5 64.5t44.5 52.5q27 25 60 47h143q-33 -16 -59 -39q-23 -18 -43.5 -42.5 t-24.5 -51.5q-4 -31 12 -51.5t47 -20.5q23 0 45.5 7.5t40 15.5t27.5 15l10 7h19l-19 -106q-23 -16 -49 -27q-23 -10 -54.5 -17t-70.5 -7q-92 0 -130 42t-25 111z" />
<glyph unicode="&#x173;" horiz-adv-x="1116" d="M145 0zM159.5 186.5q-14.5 63.5 0.5 141.5l123 696h204l-122 -696q-16 -86 28.5 -140.5t130.5 -54.5q47 0 88 19.5t76 42.5q37 27 74 61l135 768h205l-180 -1024h-144v123h-10q-35 -41 -84 -72q-41 -29 -100.5 -50t-137.5 -21t-137 25.5t-97 71.5t-52.5 109.5zM658 -164 q4 35 26.5 64.5t44.5 52.5q27 25 60 47h143q-33 -16 -59 -39q-23 -18 -43.5 -42.5t-24.5 -51.5q-4 -31 12 -51.5t47 -20.5q23 0 45.5 7.5t40 15.5t27.5 15l10 7h19l-19 -106q-23 -16 -49 -27q-23 -10 -54.5 -17t-70.5 -7q-92 0 -130 42t-25 111z" />
<glyph unicode="&#x178;" horiz-adv-x="1085" d="M201 0zM201 1434h215l176 -625q4 -20 8 -40.5t6 -39.5q2 -23 2 -43h8q8 20 17 43q16 41 41 80l397 625h215l-610 -963l-82 -471h-205l82 471zM490 1680q8 49 45.5 80.5t87.5 31.5q49 0 74.5 -31.5t17.5 -80.5q-10 -49 -47 -81t-86 -32t-76 32t-16 81zM848 1680 q8 49 46 80.5t87 31.5t74.5 -31.5t17.5 -80.5q-10 -49 -47 -81t-86 -32t-75.5 32t-16.5 81z" />
<glyph unicode="&#x179;" horiz-adv-x="993" d="M0 0l27 154l835 1136h-635l25 144h881l-27 -154l-836 -1137h645l-24 -143h-891zM0 0zM617 1536l147 308h226l-240 -308h-133z" />
<glyph unicode="&#x17a;" horiz-adv-x="901" d="M20 0l27 154l629 727h-502l27 143h747l-28 -154l-629 -727h512l-25 -143h-758zM20 0zM498 1126l147 308h226l-240 -308h-133z" />
<glyph unicode="&#x17b;" horiz-adv-x="993" d="M0 0l27 154l835 1136h-635l25 144h881l-27 -154l-836 -1137h645l-24 -143h-891zM0 0zM617 1680q10 53 50 88t93 35t82.5 -35t19.5 -88t-51 -88t-94 -35t-82 35t-18 88z" />
<glyph unicode="&#x17c;" horiz-adv-x="901" d="M20 0l27 154l629 727h-502l27 143h747l-28 -154l-629 -727h512l-25 -143h-758zM20 0zM500 1270q10 53 50 88t93 35t82.5 -35t19.5 -88t-51 -88t-94 -35t-82 35t-18 88z" />
<glyph unicode="&#x17d;" horiz-adv-x="993" d="M0 0l27 154l835 1136h-635l25 144h881l-27 -154l-836 -1137h645l-24 -143h-891zM0 0zM478 1823h133l131 -133l176 133h133l-262 -266h-143z" />
<glyph unicode="&#x17e;" horiz-adv-x="901" d="M20 0l27 154l629 727h-502l27 143h747l-28 -154l-629 -727h512l-25 -143h-758zM20 0zM361 1413h133l131 -133l176 133h133l-262 -266h-143z" />
<glyph unicode="&#x192;" horiz-adv-x="800" d="M-295 -348l86 133h21q12 -16 26 -27q12 -10 29.5 -17t40.5 -7q72 0 123 46t73 138l258 963h-133l39 143h133l25 102q39 147 149.5 237.5t276.5 90.5q66 0 115 -17.5t84 -39.5q39 -25 67 -56l-106 -122h-21q-20 25 -45 45q-23 16 -50.5 31.5t-61.5 15.5q-70 0 -125.5 -46 t-77.5 -139l-25 -102h277l-39 -143h-277l-258 -963q-39 -147 -150.5 -237.5t-269.5 -90.5q-47 0 -80.5 9.5t-56.5 21.5q-27 12 -47 31z" />
<glyph unicode="&#x218;" horiz-adv-x="1034" d="M35 0zM35 92l94 123h21q33 -27 75 -47q37 -16 91.5 -30.5t123.5 -14.5q139 0 225.5 68.5t104.5 177.5q14 82 -25.5 134t-107.5 92t-147.5 76t-144 86t-101.5 122.5t-17 185.5q14 84 57.5 155.5t108 124t149.5 81t185 28.5t171 -17.5t118 -39.5q53 -25 90 -56l-94 -122 h-21q-27 25 -65 45q-35 16 -85 31.5t-120 15.5q-53 0 -101.5 -18.5t-86 -49.5t-63.5 -72t-34 -86q-14 -82 26 -134t107.5 -92t147.5 -75.5t144.5 -86t101 -123t16.5 -185.5q-16 -92 -59 -168t-113 -129t-163 -82.5t-208 -29.5q-100 0 -175 16t-126 39q-59 25 -100 57z M281 -490q33 20 59 45q23 23 43 50.5t27 58.5q-39 0 -64.5 32.5t-17.5 79.5t45 80t75 33q53 0 82 -36t19 -95q-16 -82 -51 -140.5t-72 -97.5q-43 -45 -94 -73z" />
<glyph unicode="&#x219;" horiz-adv-x="942" d="M35 0zM35 92l94 123h21q27 -27 63 -47q31 -16 78 -30.5t108 -14.5q131 0 190.5 41t69.5 102q10 55 -26.5 89t-95 58.5t-129 47t-128 57.5t-91 88t-17.5 142q23 131 131.5 213.5t308.5 82.5q86 0 148.5 -17t105.5 -40q51 -25 86 -55l-94 -123h-20q-27 25 -62 45 q-29 16 -71.5 31.5t-96.5 15.5q-109 0 -163 -40t-64 -93q-10 -55 26.5 -89t95 -58.5t129 -47t128 -57.5t90.5 -89t18 -140q-25 -139 -137.5 -223t-335.5 -84q-92 0 -159.5 16t-112.5 39q-53 25 -88 57zM240 -490q33 20 59 45q23 23 43 50.5t27 58.5q-39 0 -64.5 32.5 t-17.5 79.5t45 80t75 33q53 0 82 -36t19 -95q-16 -82 -51 -140.5t-72 -97.5q-43 -45 -94 -73z" />
<glyph unicode="&#x2c6;" horiz-adv-x="655" d="M190 1147l263 266h143l168 -266h-133l-129 133l-178 -133h-134z" />
<glyph unicode="&#x2c7;" horiz-adv-x="655" d="M238 1413h133l131 -133l176 133h133l-262 -266h-143z" />
<glyph unicode="&#x2d8;" horiz-adv-x="655" d="M217 1413h184q-14 -78 12 -110.5t87 -32.5t97 32.5t50 110.5h184q-23 -123 -111.5 -194.5t-242.5 -71.5t-218 71.5t-42 194.5z" />
<glyph unicode="&#x2d9;" horiz-adv-x="286" d="M193 1270q10 53 50 88t93 35t82.5 -35t19.5 -88t-51 -88t-94 -35t-82 35t-18 88z" />
<glyph unicode="&#x2da;" horiz-adv-x="450" d="M197 1300q16 86 81.5 140.5t157.5 54.5t139.5 -54.5t30.5 -140.5q-14 -86 -79.5 -140t-157.5 -54t-139.5 54t-32.5 140zM319 1300q-8 -47 14.5 -69.5t53.5 -22.5t59.5 22.5t36.5 69.5q10 47 -12 70t-53 23t-59.5 -22.5t-39.5 -70.5z" />
<glyph unicode="&#x2db;" horiz-adv-x="389" d="M-59 -164q4 35 26.5 64.5t44.5 52.5q27 25 60 47h143q-33 -16 -59 -39q-23 -18 -43.5 -42.5t-24.5 -51.5q-4 -31 12 -51.5t47 -20.5q23 0 45.5 7.5t40 15.5t27.5 15l10 7h19l-19 -106q-23 -16 -49 -27q-23 -10 -54.5 -17t-70.5 -7q-92 0 -130 42t-25 111z" />
<glyph unicode="&#x2dc;" horiz-adv-x="604" d="M188 1249q35 70 86.5 122t128.5 52q39 0 61.5 -14t38 -31.5t31 -32t37.5 -14.5q23 0 43.5 12.5t35 27.5t22.5 29l8 13h18l74 -51q-35 -70 -86 -122t-129 -52q-39 0 -61.5 14.5t-38 31.5t-30.5 31.5t-38 14.5t-43 -13.5t-34.5 -28.5t-22.5 -28l-8 -12h-19z" />
<glyph unicode="&#x2dd;" horiz-adv-x="604" d="M166 1126l147 308h195l-229 -308h-113zM442 1126l148 308h194l-229 -308h-113z" />
<glyph unicode="&#x401;" d="M133 0l252 1434h799l-25 -144h-594l-84 -471h471l-24 -143h-471l-95 -533h594l-24 -143h-799zM530 1679q10 49 47 81t87 32q49 0 75.5 -32t16.5 -81t-47 -80.5t-86 -31.5t-76 31.5t-17 80.5zM909 1679q10 49 47 81t86 32t76 -32t17 -81t-47 -80.5t-87 -31.5 q-49 0 -75.5 31.5t-16.5 80.5z" />
<glyph unicode="&#x402;" horiz-adv-x="1310" d="M176 1290l25 144h860l-25 -144h-368l-72 -399q37 6 84 14q41 6 94 11.5t115 5.5q100 0 175 -30t121 -82t62.5 -126t-0.5 -162l-45 -256q-12 -74 -46 -134t-84 -103t-112.5 -66.5t-132.5 -23.5q-35 0 -65.5 4t-52.5 10q-27 8 -50 16l43 133h21q12 -6 29 -10q27 -10 61 -10 q70 0 119 46t65 138l45 256q23 117 -37.5 186.5t-191.5 69.5q-51 0 -94 -5t-76 -11q-37 -8 -72 -14l-131 -748h-204l227 1290h-287z" />
<glyph unicode="&#x403;" horiz-adv-x="1003" d="M133 0l252 1434h799l-25 -144h-594l-227 -1290h-205zM731 1536l146 307h225l-238 -307h-133z" />
<glyph unicode="&#x404;" horiz-adv-x="1054" d="M163.5 377q-12.5 139 22.5 340q35 199 96.5 339t144.5 229t185.5 129t216.5 40q86 0 148.5 -17.5t105.5 -39.5q49 -25 84 -56l-94 -122h-20q-27 25 -62 45q-29 16 -71.5 31.5t-96.5 15.5q-66 0 -126 -25.5t-113.5 -85t-98.5 -158t-77 -243.5h479l-25 -144h-481 q-23 -150 -13.5 -252t45.5 -164.5t92 -89t130 -26.5q53 0 101 14.5t83 30.5q41 20 78 47h21l49 -123q-47 -33 -105 -57q-49 -23 -117.5 -39t-154.5 -16q-123 0 -215 39.5t-145.5 129t-66 228.5z" />
<glyph unicode="&#x405;" horiz-adv-x="1034" d="M35 92l94 123h21q33 -27 75 -47q37 -16 91.5 -30.5t123.5 -14.5q139 0 225.5 68.5t104.5 177.5q14 82 -25.5 134t-107.5 92t-147.5 76t-144 86t-101.5 122.5t-17 185.5q14 84 57.5 155.5t108 124t149.5 81t185 28.5t171 -17.5t118 -39.5q53 -25 90 -56l-94 -122h-21 q-27 25 -65 45q-35 16 -85 31.5t-120 15.5q-53 0 -101.5 -18.5t-86 -49.5t-63.5 -72t-34 -86q-14 -82 26 -134t107.5 -92t147.5 -75.5t144.5 -86t101 -123t16.5 -185.5q-16 -92 -59 -168t-113 -129t-163 -82.5t-208 -29.5q-100 0 -175 16t-126 39q-59 25 -100 57z" />
<glyph unicode="&#x406;" horiz-adv-x="573" d="M133 0l252 1434h205l-252 -1434h-205z" />
<glyph unicode="&#x407;" horiz-adv-x="512" d="M113 0l252 1434h204l-252 -1434h-204zM201 1720q10 53 50 88t93 35t82.5 -35t19.5 -88t-51 -88t-94 -35t-82 35t-18 88zM569 1720q10 53 50 88t94 35q53 0 82.5 -35t19.5 -88t-51 -88t-94 -35t-82 35t-19 88z" />
<glyph unicode="&#x408;" horiz-adv-x="870" d="M-39 72l84 133h21q20 -23 45 -41q23 -16 51 -28.5t63 -12.5q117 0 187.5 63.5t95.5 202.5l184 1045h205l-184 -1045q-35 -201 -159 -305t-333 -104q-61 0 -109.5 14t-82.5 31q-39 20 -68 47z" />
<glyph unicode="&#x409;" horiz-adv-x="1804" d="M-31 0l33 133h21q4 -4 12 -6q12 -4 26 -4q39 0 80 44t70 161l256 1106h780l-94 -533h184q254 0 357.5 -117.5t64.5 -332.5q-37 -217 -180 -334t-399 -117h-392l228 1290h-379l-221 -962q-41 -178 -131 -263t-207 -85q-47 0 -78 10q-18 4 -31 10zM1020 143h184 q297 0 350 308q55 307 -241 307h-185z" />
<glyph unicode="&#x40a;" horiz-adv-x="1843" d="M133 0l252 1434h205l-101 -574h492l100 574h205l-100 -574h184q127 0 216 -29.5t141.5 -85t68.5 -135.5t0 -180q-35 -201 -179 -315.5t-398 -114.5h-390l125 717h-491l-125 -717h-205zM1059 143h184q147 0 235.5 74t112.5 213q23 139 -38.5 213t-209.5 74h-184z" />
<glyph unicode="&#x40b;" horiz-adv-x="1331" d="M176 1290l25 144h860l-25 -144h-368l-72 -399q37 6 84 14q41 6 94 11.5t115 5.5q100 0 175 -30t121 -82t62.5 -126t-0.5 -162l-90 -522h-205l90 522q23 117 -37.5 186.5t-191.5 69.5q-51 0 -94 -5t-76 -11q-37 -8 -72 -14l-131 -748h-204l227 1290h-287z" />
<glyph unicode="&#x40c;" horiz-adv-x="1198" d="M133 0l252 1434h205l-111 -625h123q86 0 141.5 42t79.5 112l103 286q35 92 103.5 148.5t168.5 56.5q31 0 52.5 -3t37.5 -7q16 -6 29 -10l-45 -134h-10l-13 5l-12 4t-14 2q-66 0 -99 -92l-100 -287q-23 -61 -60.5 -98t-74.5 -56q-43 -22 -92 -30q43 -12 80 -37 q31 -23 57.5 -63t30.5 -105l14 -328q6 -92 65 -92q12 0 29 4q8 2 14 6h11l-2 -133q-14 -6 -33 -10q-37 -10 -94 -10q-100 0 -148.5 56t-52.5 148l-12 328q-4 70 -42 112t-116 42h-143l-117 -666h-205zM727 1516l145 307h226l-238 -307h-133z" />
<glyph unicode="&#x40e;" horiz-adv-x="1097" d="M78 31l76 133h20q12 -16 29 -27q14 -10 34.5 -17t49.5 -7q61 0 114.5 41t85.5 102l62 123h-92l-236 1055h215l168 -748q4 -20 7 -46t5 -50q2 -29 5 -58h8l24 58q10 23 21.5 49.5t21.5 46.5l377 748h205l-586 -1178q-29 -57 -71.5 -109.5t-96 -91.5t-115 -62.5 t-126.5 -23.5q-51 0 -88 9.5t-64 21.5q-31 12 -53 31zM510 1782h184q-14 -78 12 -111t87 -33t97 33t50 111h184q-23 -123 -111.5 -194.5t-242.5 -71.5t-218.5 71.5t-41.5 194.5z" />
<glyph unicode="&#x40f;" horiz-adv-x="1290" d="M133 0l252 1434h205l-228 -1291h512l228 1291h205l-252 -1434h-359l-75 -307h-164l35 307h-359z" />
<glyph unicode="&#x410;" horiz-adv-x="1167" d="M-20 0l671 1434h267l167 -1434h-204l-50 369h-471l-176 -369h-204zM428 512h389l-65 563q-4 23 -4 48.5v47.5q0 25 2 48h-9q-6 -25 -14 -50q-8 -23 -17.5 -47t-19.5 -47z" />
<glyph unicode="&#x411;" horiz-adv-x="1167" d="M133 0l252 1434h799l-25 -144h-594l-76 -430h185q127 0 216 -29.5t141 -85t68.5 -135.5t0.5 -180q-35 -201 -179.5 -315.5t-398.5 -114.5h-389zM362 143h185q147 0 235 74t113 213q23 139 -38.5 213t-209.5 74h-184z" />
<glyph unicode="&#x412;" horiz-adv-x="1177" d="M133 0l252 1434h389q111 0 190.5 -28t128 -75t66 -113.5t2.5 -142.5q-18 -100 -65 -161.5t-99 -96.5q-59 -41 -127 -59q78 -18 131 -66q23 -20 43.5 -48t35 -64.5t18.5 -83.5t-6 -107q-31 -176 -170.5 -282.5t-399.5 -106.5h-389zM362 143h185q154 0 237.5 68t106.5 199 t-36.5 198.5t-213.5 67.5h-184zM481 819h185q117 0 192.5 63.5t93.5 172.5q20 109 -33 172t-169 63h-185z" />
<glyph unicode="&#x413;" horiz-adv-x="1003" d="M133 0l252 1434h799l-25 -144h-594l-227 -1290h-205z" />
<glyph unicode="&#x414;" horiz-adv-x="1269" d="M-84 -307l78 450h102q35 35 68 88q29 45 58.5 114t51.5 167l213 922h768l-227 -1291h133l-80 -450h-163l24 307h-768l-86 -307h-172zM301 143h522l203 1147h-369l-178 -778q-23 -98 -52.5 -167t-57.5 -114q-33 -53 -68 -88z" />
<glyph unicode="&#x415;" d="M133 0l252 1434h799l-25 -144h-594l-84 -471h471l-24 -143h-471l-95 -533h594l-24 -143h-799z" />
<glyph unicode="&#x416;" horiz-adv-x="1761" d="M0 0l43 133h10q4 -4 13 -6q12 -4 26 -4q61 0 98 92l129 328q27 66 69 105.5t83 62.5q47 25 100 37q-49 8 -86 30q-33 18 -59.5 55t-26.5 99l-2 287q2 47 -16.5 69.5t-48.5 22.5q-8 0 -15.5 -2t-13.5 -4q-8 -2 -14 -5h-10l4 134q12 4 32 10q16 4 40 7t55 3 q100 0 149 -56.5t49 -148.5v-286q0 -70 41 -112t127 -42h92l111 625h205l-111 -625h92q86 0 141.5 42t79.5 112l103 286q35 92 103.5 148.5t168.5 56.5q31 0 52.5 -3t37.5 -7q16 -6 29 -10l-45 -134h-10l-13 5l-12 4t-14 2q-66 0 -98 -92l-101 -287q-23 -61 -62.5 -98 t-78.5 -56q-47 -23 -96 -30q49 -12 86 -37q33 -23 60.5 -63t31.5 -105l14 -328q6 -92 66 -92q12 0 28 4q8 2 15 6h10l-2 -133q-14 -6 -33 -10q-37 -10 -94 -10q-100 0 -148.5 56t-52.5 148l-12 328q-4 70 -42 112t-116 42h-112l-117 -666h-205l117 666h-113q-78 0 -130 -42 t-81 -112l-131 -328q-35 -92 -102.5 -148t-167.5 -56q-59 0 -90 10q-18 4 -29 10z" />
<glyph unicode="&#x417;" horiz-adv-x="1064" d="M4 92l94 123h21q27 -27 65 -47q35 -16 85 -30.5t120 -14.5q178 0 271.5 72.5t115.5 203.5q23 131 -38.5 204t-209.5 73h-184l25 143h184q123 0 207 68.5t102 177.5q20 109 -42.5 177.5t-201.5 68.5q-61 0 -113 -15.5t-89 -31.5q-45 -20 -80 -45h-21l-49 122q45 31 107 56 q53 23 126.5 40t166.5 17q115 0 197.5 -28.5t134 -79t69.5 -118t4 -143.5q-18 -100 -69.5 -163.5t-104.5 -100.5q-63 -43 -139 -63q78 -20 131 -68q23 -20 43 -48t34.5 -65.5t17.5 -87t-7 -110.5q-16 -88 -59.5 -162t-117 -126t-177 -81.5t-238.5 -29.5q-100 0 -172 16 t-119 39q-53 25 -90 57z" />
<glyph unicode="&#x418;" horiz-adv-x="1290" d="M133 0l252 1434h205l-162 -912q-4 -23 -10 -53.5t-12 -56.5q-8 -33 -17 -64h8q14 31 31 64q14 27 29.5 57.5t31.5 52.5l613 912h205l-252 -1434h-205l160 911q4 23 10 52.5t12 58.5q8 31 17 63h-9q-14 -33 -30 -63q-14 -29 -29.5 -58.5t-32.5 -52.5l-610 -911h-205z" />
<glyph unicode="&#x419;" horiz-adv-x="1290" d="M133 0l252 1434h205l-162 -912q-4 -23 -10 -53.5t-12 -56.5q-8 -33 -17 -64h8q14 31 31 64q14 27 29.5 57.5t31.5 52.5l613 912h205l-252 -1434h-205l160 911q4 23 10 52.5t12 58.5q8 31 17 63h-9q-14 -33 -30 -63q-14 -29 -29.5 -58.5t-32.5 -52.5l-610 -911h-205z M604 1802h184q-14 -78 11 -110.5t86 -32.5t98 32.5t51 110.5h185q-23 -123 -112 -194.5t-243 -71.5t-218 71.5t-42 194.5z" />
<glyph unicode="&#x41a;" horiz-adv-x="1198" d="M133 0l252 1434h205l-111 -625h123q86 0 141.5 42t79.5 112l103 286q35 92 103.5 148.5t168.5 56.5q31 0 52.5 -3t37.5 -7q16 -6 29 -10l-45 -134h-10l-13 5l-12 4t-14 2q-66 0 -99 -92l-100 -287q-23 -61 -62.5 -98t-78.5 -56q-48 -22 -97 -30q49 -12 86 -37 q33 -23 61 -63t32 -105l14 -328q6 -92 65 -92q12 0 29 4q8 2 14 6h11l-2 -133q-14 -6 -33 -10q-37 -10 -94 -10q-100 0 -148.5 56t-52.5 148l-12 328q-4 70 -42 112t-116 42h-143l-117 -666h-205z" />
<glyph unicode="&#x41b;" horiz-adv-x="1249" d="M-31 0l33 133h21q4 -4 12 -6q12 -4 26 -4q39 0 80 44t70 161l256 1106h799l-252 -1434h-205l227 1290h-399l-221 -962q-41 -178 -131 -263t-207 -85q-47 0 -78 10q-18 4 -31 10z" />
<glyph unicode="&#x41c;" horiz-adv-x="1720" d="M133 0l252 1434h205l276 -871q10 -29 15 -63q2 -20 4 -39h8q10 18 18 39q8 16 17.5 33.5t19.5 29.5l584 871h205l-252 -1434h-205l152 860q4 23 10 52.5t12 58.5q8 31 16 63h-8q-14 -33 -30 -63q-14 -29 -30 -58.5t-32 -52.5l-414 -604h-204l-201 604q-8 23 -13.5 52.5 t-9.5 58.5q-6 31 -8 63h-8q-4 -33 -8 -63q-4 -29 -7 -58.5t-8 -52.5l-151 -860h-205z" />
<glyph unicode="&#x41d;" horiz-adv-x="1290" d="M133 0l252 1434h205l-113 -635h512l113 635h205l-252 -1434h-205l115 655h-512l-115 -655h-205z" />
<glyph unicode="&#x41e;" horiz-adv-x="1228" d="M164 377q-12 139 22 340q35 199 96.5 339t143.5 229t182.5 129t210.5 40q111 0 196 -40t136 -129t62.5 -229t-23.5 -339q-35 -201 -96.5 -340t-143.5 -228.5t-181 -129t-210 -39.5t-197 39.5t-136 129t-62 228.5zM365.5 433q5.5 -114 34 -182.5t77.5 -98t107 -29.5 q57 0 115.5 29.5t112.5 98t98 182.5t75 284q31 168 26 282.5t-35 183t-78 98.5t-105 30t-116 -30t-113 -98.5t-98 -183t-75 -282.5q-31 -170 -25.5 -284z" />
<glyph unicode="&#x41f;" horiz-adv-x="1290" d="M133 0l252 1434h922l-252 -1434h-205l227 1290h-512l-227 -1290h-205z" />
<glyph unicode="&#x420;" horiz-adv-x="1157" d="M133 0l252 1434h369q262 0 365.5 -120t62.5 -351t-186.5 -351t-407.5 -120h-164l-86 -492h-205zM449 635h163q154 0 245 79t120 249q31 170 -31.5 248.5t-216.5 78.5h-164z" />
<glyph unicode="&#x421;" horiz-adv-x="1054" d="M163.5 377q-12.5 139 22.5 340q35 199 96.5 339t144.5 229t185.5 129t216.5 40q86 0 148.5 -17.5t105.5 -39.5q49 -25 84 -56l-94 -122h-20q-27 25 -62 45q-29 16 -71.5 31.5t-96.5 15.5q-70 0 -134 -30t-120.5 -98.5t-101.5 -183t-76 -282.5q-31 -170 -24.5 -284 t40 -182.5t92 -98t136.5 -29.5q53 0 101 14.5t83 30.5q41 20 78 47h21l49 -123q-47 -33 -105 -57q-49 -23 -117.5 -39t-154.5 -16q-123 0 -215 39.5t-145.5 129t-66 228.5z" />
<glyph unicode="&#x422;" horiz-adv-x="983" d="M197 1290l24 144h942l-24 -144h-369l-227 -1290h-205l227 1290h-368z" />
<glyph unicode="&#x423;" horiz-adv-x="1097" d="M78 31l76 133h20q12 -16 29 -27q14 -10 34.5 -17t49.5 -7q61 0 114.5 41t85.5 102l62 123h-92l-236 1055h215l168 -748q4 -20 7 -46t5 -50q2 -29 5 -58h8l24 58q10 23 21.5 49.5t21.5 46.5l377 748h205l-586 -1178q-29 -57 -71.5 -109.5t-96 -91.5t-115 -62.5 t-126.5 -23.5q-51 0 -88 9.5t-64 21.5q-31 12 -53 31z" />
<glyph unicode="&#x424;" horiz-adv-x="1576" d="M166 717q53 301 235.5 459.5t470.5 175.5l25 143h205l-25 -143q283 -16 409 -175t73 -460t-235.5 -460t-469.5 -175l-27 -143h-204l26 143q-285 16 -410.5 175t-72.5 460zM371 717q-41 -240 44 -357.5t259 -134.5l174 983q-180 -16 -307 -134t-170 -357zM879 225 q180 14 307 134t168 358q43 238 -42 356.5t-259 134.5z" />
<glyph unicode="&#x425;" horiz-adv-x="1085" d="M-20 0l505 727l-243 707h225l154 -461q4 -14 7 -29.5t7 -30.5q4 -16 6 -32h8q8 16 17 32q8 14 17 29.5t19 30.5l318 461h225l-493 -707l252 -727h-226l-162 481q-4 12 -7 28.5t-7 31.5q-4 16 -6 32h-8q-10 -16 -19 -32q-8 -14 -16 -30.5t-18 -29.5l-330 -481h-225z" />
<glyph unicode="&#x426;" horiz-adv-x="1300" d="M133 0l252 1434h205l-228 -1291h492l227 1291h205l-227 -1291h133l-80 -450h-164l25 307h-840z" />
<glyph unicode="&#x427;" horiz-adv-x="1228" d="M235.5 770q-16.5 74 0.5 162l88 502h204l-88 -502q-20 -117 40.5 -186.5t191.5 -69.5q49 0 93 4t77 10q37 8 69 17l129 727h205l-252 -1434h-205l99 563q-39 -8 -86 -16q-41 -6 -93.5 -10.5t-113.5 -4.5q-100 0 -175 30t-121 82t-62.5 126z" />
<glyph unicode="&#x428;" horiz-adv-x="1884" d="M133 0l252 1434h205l-228 -1291h451l227 1291h205l-227 -1291h450l228 1291h205l-252 -1434h-1516z" />
<glyph unicode="&#x429;" horiz-adv-x="1914" d="M133 0l252 1434h205l-228 -1291h451l227 1291h205l-227 -1291h450l228 1291h205l-228 -1291h133l-80 -450h-163l24 307h-1454z" />
<glyph unicode="&#x42a;" horiz-adv-x="1269" d="M197 1290l24 144h492l-95 -533h185q254 0 357.5 -117.5t64.5 -332.5q-37 -217 -180.5 -334t-399.5 -117h-389l227 1290h-286zM485 143h185q297 0 350 308q55 307 -242 307h-184z" />
<glyph unicode="&#x42b;" horiz-adv-x="1638" d="M133 0l252 1434h205l-94 -533h163q254 0 357.5 -117.5t64.5 -332.5q-37 -217 -180 -334t-399 -117h-369zM362 143h164q297 0 351 308q55 307 -242 307h-164zM1198 0l252 1434h205l-252 -1434h-205z" />
<glyph unicode="&#x42c;" horiz-adv-x="1146" d="M133 0l252 1434h205l-94 -533h184q254 0 357.5 -117.5t64.5 -332.5q-37 -217 -180.5 -334t-399.5 -117h-389zM362 143h185q297 0 350 308q55 307 -242 307h-184z" />
<glyph unicode="&#x42d;" horiz-adv-x="1054" d="M14 92l95 123h20q27 -27 61 -47q29 -16 72 -30.5t96 -14.5q74 0 140.5 26.5t124 89t102.5 165t76 251.5h-482l25 144h479q18 145 9 243.5t-41.5 158t-85 85t-117.5 25.5q-53 0 -101.5 -15.5t-83.5 -31.5q-41 -20 -77 -45h-21l-49 122q45 31 104 56q49 23 119 40t156 17 q115 0 202 -40t139 -129t63.5 -229t-23.5 -339q-35 -201 -97.5 -340t-146.5 -228.5t-189.5 -129t-228.5 -39.5q-86 0 -148.5 16t-105.5 39q-51 25 -86 57z" />
<glyph unicode="&#x42e;" horiz-adv-x="1658" d="M133 0l252 1434h205l-113 -635h195q39 176 100.5 301t138 203.5t168 114.5t191.5 36q104 0 185 -40t129 -129t59.5 -229.5t-23.5 -338.5q-35 -201 -96.5 -340t-141 -228.5t-174 -129t-198.5 -39.5q-100 0 -178 36.5t-127.5 116.5t-65.5 209t8 313h-194l-115 -655h-205z M836.5 433q5.5 -114 32 -182.5t71.5 -98t94 -29.5t104.5 29.5t106.5 98t95 182.5t75 284q31 168 26 282.5t-32 183t-72 98.5t-94 30t-104.5 -30t-106.5 -98.5t-95 -183t-75 -282.5q-31 -170 -25.5 -284z" />
<glyph unicode="&#x42f;" horiz-adv-x="1167" d="M-10 0l43 133h10q4 -4 12 -6q12 -4 27 -4q23 0 50.5 22.5t47.5 69.5l101 215q25 53 57.5 87t62.5 54q37 23 74 33q-57 8 -106.5 40t-84 82t-49 118.5t0.5 148.5q37 209 182 325t407 116h359l-252 -1434h-205l96 553h-133q-70 0 -124 -42t-87 -112l-100 -215 q-47 -100 -112.5 -152t-157.5 -52q-59 0 -91 10q-18 4 -28 10zM440 993q-53 -297 254 -297h154l106 594h-153q-307 0 -361 -297z" />
<glyph unicode="&#x430;" d="M92 297q12 70 47 126t94.5 96t147.5 62.5t207 22.5h164l8 51q23 123 -24.5 184.5t-147.5 61.5q-47 0 -90 -15.5t-78 -31.5q-39 -20 -74 -45h-20l-50 123q45 31 101 55q47 23 112.5 40t143.5 17q88 0 156.5 -28.5t112.5 -80.5t60.5 -124t2.5 -156l-115 -655h-143v123h-11 q-35 -41 -84 -72q-41 -29 -100 -50t-137 -21q-162 0 -235.5 85t-47.5 232zM297 297q-14 -78 24.5 -121t131.5 -43q47 0 88 19.5t75 42.5q37 27 74 61l35 205h-164q-123 0 -187.5 -47t-76.5 -117z" />
<glyph unicode="&#x431;" horiz-adv-x="1075" d="M143 471l35 195q35 197 89.5 328.5t135 216.5t189 131.5t250.5 70.5l297 51v-174l-297 -51q-102 -18 -180 -50t-133.5 -84t-90.5 -127t-53 -179q59 78 142 121t184 43q76 0 139 -32t104 -94.5t55.5 -154.5t-5.5 -211t-67.5 -211t-115 -154.5t-152.5 -94t-182 -31.5 q-193 0 -289 125.5t-55 365.5zM338 313.5q6 -65.5 29.5 -108.5t60.5 -62.5t84 -19.5q92 0 173 82t114 266q14 88 8 151.5t-29.5 105.5t-61.5 61.5t-83 19.5q-92 0 -173 -81t-112 -257q-16 -92 -10 -157.5z" />
<glyph unicode="&#x432;" d="M102 0l181 1024h389q92 0 157.5 -21.5t104.5 -58.5t53 -85t6 -101q-12 -70 -51 -114t-80 -69q-49 -29 -104 -43q63 -12 110 -43q20 -14 38 -32.5t30 -45t16 -59.5t-4 -76q-10 -57 -42 -107t-88 -88t-138 -59.5t-188 -21.5h-390zM332 143h184q109 0 164 42t68 112 q12 70 -29 112t-150 42h-184zM412 594h184q78 0 128 41t60 102t-25.5 102.5t-113.5 41.5h-184z" />
<glyph unicode="&#x433;" horiz-adv-x="849" d="M102 0l181 1024h675l-26 -143h-471l-154 -881h-205z" />
<glyph unicode="&#x434;" horiz-adv-x="1146" d="M-90 -287l74 430h102q35 33 68 80q29 41 55.5 97.5t42.5 130.5l133 573h686l-156 -881h134l-76 -430h-164l20 287h-665l-82 -287h-172zM291 143h420l129 738h-287l-96 -430q-16 -74 -43 -130.5t-56 -97.5q-33 -47 -67 -80z" />
<glyph unicode="&#x435;" horiz-adv-x="1034" d="M141 512q23 135 71 234.5t115.5 166t150.5 99t175 32.5t164 -32.5t116 -99t57.5 -166t-9.5 -234.5l-6 -31l-49 -41h-594q-29 -162 29.5 -239.5t181.5 -77.5q47 0 89 14.5t77 30.5q39 20 75 47h21l49 -123q-47 -33 -102 -57q-47 -23 -112 -39t-142 -16q-209 0 -306.5 131 t-50.5 401zM358 584h430q29 170 -19 243.5t-140 73.5t-167 -74.5t-104 -242.5z" />
<glyph unicode="&#x436;" horiz-adv-x="1515" d="M0 0l43 133h10q4 -4 13 -6q12 -4 26 -4q47 0 72 61l86 195q20 45 53 74.5t65.5 46t59.5 23.5t33 9q-4 0 -25.5 4.5t-46 18.5t-45 41t-22.5 70l-11 174q-6 61 -51 61q-8 0 -15 -2l-14 -4q-8 -2 -14 -4h-10l4 133l35 10q16 4 38.5 7t51.5 3q88 0 129 -44t45 -130l10 -174 q4 -47 31 -74.5t86 -27.5h72l75 430h205l-76 -430h72q59 0 95 27.5t55 74.5l71 174q35 86 91.5 130t144.5 44q27 0 49 -3t39 -7q18 -6 33 -10l-45 -133h-11l-12 4l-12 4t-15 2q-47 0 -71 -61l-72 -174q-18 -43 -47 -69t-58.5 -40t-53 -19.5t-29.5 -5.5q4 0 27.5 -7t51 -23.5 t51 -46t27.5 -76.5l17 -195q6 -61 51 -61q12 0 29 4q8 2 14 6h10l-2 -133q-16 -6 -37 -10q-37 -10 -90 -10q-86 0 -127 45t-47 129l-18 194q-4 47 -33 75t-82 28h-92l-78 -451h-205l78 451h-92q-53 0 -91 -28t-61 -75l-84 -194q-37 -84 -93 -129t-142 -45q-51 0 -86 10 q-18 4 -33 10z" />
<glyph unicode="&#x437;" horiz-adv-x="921" d="M-6 92l94 123h21q27 -27 63 -47q31 -16 78 -30.5t108 -14.5q131 0 190.5 43t74.5 121q14 78 -27 121t-150 43h-174l27 143h174q92 0 145.5 42t65.5 112t-30 111.5t-158 41.5q-53 0 -99.5 -15.5t-81.5 -31.5q-39 -20 -71 -45h-21l-49 123q43 31 98 55q47 23 115 40t154 17 q104 0 175.5 -21.5t113.5 -59t57.5 -88t5.5 -107.5q-12 -70 -54 -115t-87 -71q-53 -33 -117 -50q63 -12 110 -45q20 -14 38 -33.5t29 -47t15 -62.5t-4 -78q-10 -61 -42.5 -113.5t-90 -91t-141.5 -60t-195 -21.5q-92 0 -159.5 16t-112.5 39q-53 25 -88 57z" />
<glyph unicode="&#x438;" horiz-adv-x="1126" d="M102 0l181 1024h204l-104 -584q-4 -23 -10 -47t-11 -47q-6 -25 -12 -49h8q10 25 25 49q12 23 27.5 47.5t33.5 46.5l453 584h205l-180 -1024h-205l102 584q4 23 10.5 47t10.5 47q6 25 12 49h-8q-10 -25 -25 -49q-27 -47 -61 -94l-451 -584h-205z" />
<glyph unicode="&#x439;" horiz-adv-x="1126" d="M102 0l181 1024h204l-104 -584q-4 -23 -10 -47t-11 -47q-6 -25 -12 -49h8q10 25 25 49q12 23 27.5 47.5t33.5 46.5l453 584h205l-180 -1024h-205l102 584q4 23 10.5 47t10.5 47q6 25 12 49h-8q-10 -25 -25 -49q-27 -47 -61 -94l-451 -584h-205zM449 1393h184 q-12 -78 12.5 -111t85.5 -33t98 33t50 111h184q-23 -123 -112 -195t-242 -72q-154 0 -218.5 72t-41.5 195z" />
<glyph unicode="&#x43a;" d="M102 0l181 1024h204l-75 -430h102q59 0 95 27.5t55 74.5l71 174q35 86 91.5 130t144.5 44q27 0 49 -3t39 -7q18 -6 33 -10l-45 -133h-11l-12 4l-12 4t-15 2q-47 0 -71 -61l-72 -174q-20 -47 -51 -73t-62 -40q-36 -17 -75 -21q41 -6 75 -26q29 -16 53.5 -47t28.5 -80 l17 -195q6 -61 51 -61q12 0 29 4q8 2 14 6h10l-2 -133q-16 -6 -37 -10q-37 -10 -90 -10q-86 0 -127 45t-47 129l-18 194q-4 47 -33 75t-82 28h-123l-78 -451h-205z" />
<glyph unicode="&#x43b;" horiz-adv-x="1105" d="M-31 0l33 133h21q4 -4 12 -6q12 -4 26 -4q39 0 75 41t65 164l164 696h716l-180 -1024h-205l154 881h-318l-126 -553q-43 -184 -128 -266t-200 -82q-47 0 -78 10q-18 4 -31 10z" />
<glyph unicode="&#x43c;" horiz-adv-x="1433" d="M102 0l181 1024h215l204 -573q8 -25 17 -54q4 -14 6 -28h8q8 14 17 28q8 12 16 26.5t18 27.5l410 573h215l-180 -1024h-205l94 543q10 51 23 94q6 25 12 49h-8q-12 -23 -27 -47q-12 -23 -28.5 -48.5t-32.5 -47.5l-260 -369h-205l-129 369q-8 23 -14.5 48t-10.5 48 q-6 25 -10 47h-8q-2 -25 -4 -49q-4 -23 -7 -47.5t-8 -46.5l-94 -543h-205z" />
<glyph unicode="&#x43d;" horiz-adv-x="1126" d="M102 0l181 1024h204l-75 -430h409l76 430h205l-180 -1024h-205l78 451h-410l-78 -451h-205z" />
<glyph unicode="&#x43e;" horiz-adv-x="1085" d="M141 512q47 270 189.5 401t343.5 131q100 0 175 -32.5t121 -99t60.5 -166t-8.5 -234.5q-25 -135 -74 -234.5t-117.5 -166t-155.5 -99t-188 -32.5q-201 0 -297 132t-49 400zM332 329.5q4 -73.5 27.5 -119.5t63.5 -66.5t89 -20.5t96 20.5t87 66.5t72 119.5t50 182.5 q18 106 13 181t-28.5 121t-63.5 66.5t-89 20.5t-96 -20.5t-87 -66.5t-70.5 -121t-49.5 -181q-18 -109 -14 -182.5z" />
<glyph unicode="&#x43f;" horiz-adv-x="1126" d="M102 0l181 1024h819l-180 -1024h-205l153 881h-409l-154 -881h-205z" />
<glyph unicode="&#x440;" horiz-adv-x="1095" d="M29 -410l254 1434h143l-2 -123h10q35 39 84 72q41 27 100.5 49t137.5 22q74 0 134 -32.5t100 -99t52.5 -166t-10.5 -234.5q-25 -135 -73 -234.5t-114.5 -166t-147.5 -99t-169 -32.5q-47 0 -86 9t-67 21q-35 12 -62 31l-67 -389l-74 -62h-143zM336 164q23 -12 51 -21 q25 -8 58.5 -14t76.5 -6q49 0 96.5 20.5t87 66.5t71.5 119.5t50 182.5q18 104 12.5 176t-27 117t-56.5 65.5t-78 20.5q-47 0 -89 -19.5t-75 -42.5q-37 -27 -72 -61z" />
<glyph unicode="&#x441;" horiz-adv-x="931" d="M141 512q47 270 188.5 401t334.5 131q78 0 136 -17t99 -40q47 -25 84 -55l-94 -123h-21q-27 25 -59 45q-29 16 -66 31.5t-84 15.5q-53 0 -102 -20.5t-90 -66.5t-71.5 -121t-49.5 -181q-18 -109 -13 -182.5t30.5 -119.5t71.5 -66.5t108 -20.5q47 0 89 14.5t77 30.5 q39 20 75 47h21l49 -123q-47 -33 -102 -57q-47 -23 -112 -39t-142 -16q-209 0 -306.5 131t-50.5 401z" />
<glyph unicode="&#x442;" horiz-adv-x="860" d="M123 881l27 143h819l-27 -143h-307l-154 -881h-205l154 881h-307z" />
<glyph unicode="&#x443;" horiz-adv-x="972" d="M-45 -369l74 133h20q12 -16 29 -26q14 -10 33.5 -17.5t42.5 -7.5q53 0 101 41t77 103l67 143h-82l-157 1024h205l104 -676q4 -23 6 -51.5t4 -52.5q2 -29 4 -60h9q12 31 24 60q10 25 21.5 53.5t21.5 50.5l307 676h205l-534 -1167q-55 -123 -156.5 -205t-233.5 -82 q-47 0 -82.5 9t-60.5 22q-29 12 -49 30z" />
<glyph unicode="&#x444;" horiz-adv-x="1392" d="M131 512q45 256 199.5 390t394.5 142l59 328l72 62h143l-69 -390q240 -8 347 -142t62 -390q-47 -256 -200.5 -390t-395.5 -142l-69 -390h-205l70 390q-238 8 -346.5 143t-61.5 389zM336 512q-35 -201 27.5 -291t199.5 -98l137 778q-141 -8 -235 -98t-129 -291zM768 123 q141 8 236.5 98t130.5 291t-29 291t-201 98z" />
<glyph unicode="&#x445;" horiz-adv-x="942" d="M-20 0l407 522l-217 502h225l113 -287q8 -25 16 -53q4 -14 6 -29h9q8 14 16 29q8 12 16.5 26.5t18.5 26.5l215 287h225l-397 -502l227 -522h-225l-123 297q-6 12 -9 26.5t-7 26.5q-4 14 -7 29h-8q-8 -14 -16 -29q-8 -12 -16.5 -26.5t-18.5 -26.5l-225 -297h-225z" />
<glyph unicode="&#x446;" horiz-adv-x="1157" d="M102 0l181 1024h204l-155 -881h389l156 881h204l-155 -881h133l-76 -430h-164l21 287h-738z" />
<glyph unicode="&#x447;" horiz-adv-x="1064" d="M182 686l60 338h204l-59 -338q-16 -86 31 -140t139 -54q39 0 73 4t60 10q31 8 55 16l91 502h204l-180 -1024h-205l66 379q-35 -8 -72 -17q-33 -6 -77 -10t-93 -4q-80 0 -141.5 25.5t-100 70.5t-53 106.5t-2.5 135.5z" />
<glyph unicode="&#x448;" horiz-adv-x="1617" d="M102 0l181 1024h204l-155 -881h348l156 881h204l-155 -881h348l156 881h204l-180 -1024h-1311z" />
<glyph unicode="&#x449;" horiz-adv-x="1669" d="M102 0l181 1024h204l-155 -881h348l156 881h204l-155 -881h348l156 881h204l-155 -881h133l-76 -430h-164l21 287h-1250z" />
<glyph unicode="&#x44a;" horiz-adv-x="1136" d="M123 881l27 143h471l-62 -348h184q215 0 296 -88t55 -250q-29 -162 -141.5 -250t-327.5 -88h-389l153 881h-266zM465 143h184q109 0 165 47.5t75 147.5q16 100 -24 147t-148 47h-185z" />
<glyph unicode="&#x44b;" horiz-adv-x="1454" d="M102 0l181 1024h204l-61 -348h164q215 0 296 -88t54 -250q-29 -162 -141.5 -250t-327.5 -88h-369zM332 143h164q109 0 165 47.5t74 147.5q16 100 -23.5 147t-148.5 47h-164zM1044 0l181 1024h205l-181 -1024h-205z" />
<glyph unicode="&#x44c;" horiz-adv-x="1003" d="M102 0l181 1024h204l-61 -348h184q215 0 296 -88t55 -250q-29 -162 -141.5 -250t-327.5 -88h-390zM332 143h184q109 0 165 47.5t75 147.5q16 100 -24 147t-148 47h-185z" />
<glyph unicode="&#x44d;" horiz-adv-x="931" d="M4 92l94 123h21q25 -27 57 -47q29 -16 67 -30.5t85 -14.5q113 0 197.5 75.5t123.5 252.5h-368l26 143h369q14 168 -39.5 237.5t-151.5 69.5q-47 0 -90 -15.5t-78 -31.5q-39 -20 -73 -45h-21l-49 123q45 31 100 55q47 23 113 40t143 17q193 0 288 -132t50 -400 q-47 -268 -192.5 -400t-351.5 -132q-78 0 -137.5 16t-100.5 39q-49 25 -82 57z" />
<glyph unicode="&#x44e;" horiz-adv-x="1464" d="M102 0l181 1024h204l-75 -430h163q27 115 77 200t116 140t143.5 82.5t161.5 27.5q92 0 164 -32.5t116 -99t57.5 -166t-9.5 -234.5q-25 -135 -73 -234.5t-115.5 -166t-150.5 -99t-175 -32.5q-176 0 -270.5 116.5t-67.5 354.5h-164l-78 -451h-205zM752 329.5 q4 -73.5 25.5 -119.5t56 -66.5t77.5 -20.5t85 20.5t80 66.5t70 119.5t50 182.5q18 106 13 181t-26.5 121t-56 66.5t-77.5 20.5t-85 -20.5t-80 -66.5t-69 -121t-49 -181q-18 -109 -14 -182.5z" />
<glyph unicode="&#x44f;" d="M0 0l43 133h10q4 -4 13 -6q12 -4 26 -4q43 0 72 61l65 133q16 35 41 58.5t47 38.5q27 16 56 26q-66 12 -115 45q-20 14 -38.5 34t-31 46.5t-17.5 61.5t3 80q27 145 139.5 231t327.5 86h379l-180 -1024h-205l67 389h-143q-47 0 -83 -27.5t-58 -74.5l-64 -133 q-41 -86 -95 -130t-140 -44q-51 0 -86 10q-18 4 -33 10zM379 707q-14 -86 25.5 -130.5t148.5 -44.5h174l61 349h-174q-109 0 -164 -44t-71 -130z" />
<glyph unicode="&#x451;" horiz-adv-x="1034" d="M141 512q23 135 71 234.5t115.5 166t150.5 99t175 32.5t164 -32.5t116 -99t57.5 -166t-9.5 -234.5l-6 -31l-49 -41h-594q-29 -162 29.5 -239.5t181.5 -77.5q47 0 89 14.5t77 30.5q39 20 75 47h21l49 -123q-47 -33 -102 -57q-47 -23 -112 -39t-142 -16q-209 0 -306.5 131 t-50.5 401zM358 584h430q29 170 -19 243.5t-140 73.5t-167 -74.5t-104 -242.5zM410 1270q8 49 46 80.5t87 31.5t74.5 -31.5t17.5 -80.5q-10 -49 -47 -81t-86 -32t-76 32t-16 81zM766 1270q8 49 46 80.5t87 31.5t74.5 -31.5t17.5 -80.5q-10 -49 -47 -81t-86 -32t-75.5 32 t-16.5 81z" />
<glyph unicode="&#x452;" horiz-adv-x="1136" d="M133 0l186 1065h-133l27 143h133l29 164l71 62h144l-39 -226h276l-26 -143h-277l-43 -246q35 29 78 51q37 18 89 35t118 17q76 0 136.5 -26t98 -72t52 -110.5t0.5 -140.5l-95 -532q-12 -74 -46.5 -134.5t-84 -103.5t-112 -66.5t-131.5 -23.5q-35 0 -63.5 4t-51.5 11 q-25 8 -45 16l45 133h20q10 -6 23 -10q24 -10 55 -10q70 0 120 46t67 138l94 532q16 86 -29 140.5t-131 54.5q-47 0 -90 -19.5t-76 -41.5q-39 -27 -71 -62l-113 -645h-205z" />
<glyph unicode="&#x453;" horiz-adv-x="849" d="M102 0l181 1024h675l-26 -143h-471l-154 -881h-205zM545 1126l147 308h226l-240 -308h-133z" />
<glyph unicode="&#x454;" horiz-adv-x="931" d="M141 512q47 270 188.5 401t334.5 131q78 0 136 -17t99 -40q47 -25 84 -55l-94 -123h-21q-27 25 -59 45q-29 16 -66 31.5t-84 15.5q-98 0 -174.5 -68.5t-122.5 -238.5h369l-26 -143h-369q-23 -176 34.5 -252t172.5 -76q47 0 89 14.5t77 30.5q39 20 75 47h21l49 -123 q-47 -33 -102 -57q-47 -23 -112 -39t-142 -16q-209 0 -306.5 131t-50.5 401z" />
<glyph unicode="&#x455;" horiz-adv-x="942" d="M35 92l94 123h21q27 -27 63 -47q31 -16 78 -30.5t108 -14.5q131 0 190.5 41t69.5 102q10 55 -26.5 89t-95 58.5t-129 47t-128 57.5t-91 88t-17.5 142q23 131 131.5 213.5t308.5 82.5q86 0 148.5 -17t105.5 -40q51 -25 86 -55l-94 -123h-20q-27 25 -62 45 q-29 16 -71.5 31.5t-96.5 15.5q-109 0 -163 -40t-64 -93q-10 -55 26.5 -89t95 -58.5t129 -47t128 -57.5t90.5 -89t18 -140q-25 -139 -137.5 -223t-335.5 -84q-92 0 -159.5 16t-112.5 39q-53 25 -88 57z" />
<glyph unicode="&#x456;" horiz-adv-x="512" d="M102 0l181 1024h204l-180 -1024h-205zM311 1311q10 53 51 88t95 35q53 0 81.5 -35t18.5 -88t-50 -88t-93 -35t-83 34.5t-20 88.5z" />
<glyph unicode="&#x457;" horiz-adv-x="512" d="M102 0l181 1024h204l-180 -1024h-205zM127 1311q10 53 51 88t94 35t82 -35t19 -88t-50 -88t-94 -35q-53 0 -82.5 34.5t-19.5 88.5zM496 1311q10 53 51 88t94 35t81.5 -35t18.5 -88t-50 -88t-93 -35t-83 34.5t-19 88.5z" />
<glyph unicode="&#x458;" horiz-adv-x="512" d="M-295 -348l74 133h20q12 -16 29 -27q14 -10 33.5 -17t42.5 -7q68 0 117 46t65 138l197 1106h204l-196 -1106q-12 -74 -47 -134t-86.5 -103t-118 -67t-141.5 -24q-47 0 -83 9.5t-61 21.5q-29 12 -49 31zM311 1311q10 53 51 88t95 35q53 0 81.5 -35t18.5 -88t-50 -88 t-93 -35t-83 34.5t-20 88.5z" />
<glyph unicode="&#x459;" horiz-adv-x="1556" d="M-31 0l33 133h21q4 -4 12 -6q12 -4 26 -4q39 0 75 41t65 164l164 696h675l-61 -348h184q215 0 296 -88t54 -250q-29 -162 -141 -250t-328 -88h-389l154 881h-277l-126 -553q-43 -184 -128 -266t-200 -82q-47 0 -78 10q-18 4 -31 10zM885 143h184q109 0 165 47.5t75 147.5 q16 100 -24 147t-148 47h-185z" />
<glyph unicode="&#x45a;" horiz-adv-x="1576" d="M102 0l181 1024h204l-69 -389h368l70 389h205l-70 -389h185q215 0 297.5 -86t56.5 -232q-27 -145 -138.5 -231t-326.5 -86h-389l86 492h-369l-86 -492h-205zM905 143h185q109 0 164 44t71 130t-24.5 130.5t-149.5 44.5h-184z" />
<glyph unicode="&#x45b;" horiz-adv-x="1146" d="M133 0l186 1065h-133l27 143h133l29 164l71 62h144l-39 -226h276l-26 -143h-277l-43 -246q35 29 78 51q37 18 89 35t118 17q76 0 136.5 -26t98 -72t52 -110.5t0.5 -140.5l-101 -573h-204l100 573q16 86 -29 140.5t-131 54.5q-47 0 -90 -19.5t-76 -41.5q-39 -27 -71 -62 l-113 -645h-205z" />
<glyph unicode="&#x45c;" d="M102 0l181 1024h204l-75 -430h102q59 0 95 27.5t55 74.5l71 174q35 86 91.5 130t144.5 44q27 0 49 -3t39 -7q18 -6 33 -10l-45 -133h-11l-12 4l-12 4t-15 2q-47 0 -71 -61l-72 -174q-20 -47 -50 -73t-59 -40q-34 -17 -69 -21q39 -6 69 -26q27 -16 50.5 -47t27.5 -80 l17 -195q6 -61 51 -61q12 0 29 4q8 2 14 6h10l-2 -133q-16 -6 -37 -10q-37 -10 -90 -10q-86 0 -127 45t-47 129l-18 194q-4 47 -33 75t-82 28h-123l-78 -451h-205zM584 1106l145 307h225l-237 -307h-133z" />
<glyph unicode="&#x45e;" horiz-adv-x="972" d="M-45 -369l74 133h20q12 -16 29 -26q14 -10 33.5 -17.5t42.5 -7.5q53 0 101 41t77 103l67 143h-82l-157 1024h205l104 -676q4 -23 6 -51.5t4 -52.5q2 -29 4 -60h9q12 31 24 60q10 25 21.5 53.5t21.5 50.5l307 676h205l-534 -1167q-55 -123 -156.5 -205t-233.5 -82 q-47 0 -82.5 9t-60.5 22q-29 12 -49 30zM375 1372h184q-14 -78 10.5 -110.5t85.5 -32.5t98.5 32.5t51.5 110.5h184q-23 -123 -112 -194.5t-242 -71.5q-154 0 -218.5 71.5t-41.5 194.5z" />
<glyph unicode="&#x45f;" horiz-adv-x="1126" d="M102 0l181 1024h204l-155 -881h409l156 881h205l-180 -1024h-308l-71 -287h-164l31 287h-308z" />
<glyph unicode="&#x490;" horiz-adv-x="1003" d="M133 0l252 1434h614l58 204h164l-62 -348h-594l-227 -1290h-205z" />
<glyph unicode="&#x491;" horiz-adv-x="849" d="M102 0l181 1024h491l53 184h164l-59 -327h-471l-154 -881h-205z" />
<glyph unicode="&#x2000;" horiz-adv-x="952" />
<glyph unicode="&#x2001;" horiz-adv-x="1905" />
<glyph unicode="&#x2002;" horiz-adv-x="952" />
<glyph unicode="&#x2003;" horiz-adv-x="1905" />
<glyph unicode="&#x2004;" horiz-adv-x="635" />
<glyph unicode="&#x2005;" horiz-adv-x="476" />
<glyph unicode="&#x2006;" horiz-adv-x="317" />
<glyph unicode="&#x2007;" horiz-adv-x="317" />
<glyph unicode="&#x2008;" horiz-adv-x="238" />
<glyph unicode="&#x2009;" horiz-adv-x="381" />
<glyph unicode="&#x200a;" horiz-adv-x="105" />
<glyph unicode="&#x2010;" horiz-adv-x="901" d="M115 594l28 164h779l-29 -164h-778z" />
<glyph unicode="&#x2011;" horiz-adv-x="901" d="M115 594l28 164h779l-29 -164h-778z" />
<glyph unicode="&#x2012;" horiz-adv-x="901" d="M115 594l28 164h779l-29 -164h-778z" />
<glyph unicode="&#x2013;" d="M100 512l29 164h922l-29 -164h-922z" />
<glyph unicode="&#x2014;" horiz-adv-x="1474" d="M100 512l29 164h1352l-29 -164h-1352z" />
<glyph unicode="&#x2018;" horiz-adv-x="409" d="M225 1106q16 88 55 153.5t82 108.5q49 51 109 86l49 -72q-35 -25 -65 -53q-27 -25 -50.5 -55.5t-27.5 -65.5q47 0 73.5 -35t16.5 -88t-49 -87.5t-86 -34.5q-61 0 -90 36.5t-17 106.5z" />
<glyph unicode="&#x2019;" horiz-adv-x="409" d="M213 1034q35 25 66 53q25 25 48 56t29 65q-47 0 -74.5 35t-17.5 88t49 88t86 35q61 0 90 -37t17 -106q-16 -90 -57 -154.5t-82 -107.5q-51 -51 -107 -86z" />
<glyph unicode="&#x201a;" horiz-adv-x="409" d="M-4 -195q35 25 65 54q25 25 48.5 55.5t29.5 65.5q-47 0 -74.5 34.5t-17.5 87.5t49 88t86 35q61 0 90 -36.5t19 -106.5q-16 -90 -57 -154.5t-82 -107.5q-49 -51 -107 -86z" />
<glyph unicode="&#x201c;" horiz-adv-x="737" d="M225 1106q16 88 55 153.5t82 108.5q49 51 109 86l49 -72q-35 -25 -65 -53q-27 -25 -50.5 -55.5t-27.5 -65.5q47 0 73.5 -35t16.5 -88t-49 -87.5t-86 -34.5q-61 0 -90 36.5t-17 106.5zM553 1106q16 88 55 153.5t82 108.5q49 51 109 86l49 -72q-35 -25 -66 -53 q-27 -25 -50 -55.5t-27 -65.5q47 0 73.5 -35t16.5 -88t-49 -87.5t-87 -34.5q-61 0 -89.5 36.5t-16.5 106.5z" />
<glyph unicode="&#x201d;" horiz-adv-x="737" d="M213 1034q35 25 66 53q25 25 48 56t29 65q-47 0 -74.5 35t-17.5 88t49 88t86 35q61 0 90 -37t17 -106q-16 -90 -57 -154.5t-82 -107.5q-51 -51 -107 -86zM541 1034q35 25 65 53q25 25 48.5 56t29.5 65q-47 0 -74.5 35t-17.5 88t49 88t86 35q61 0 90 -37t17 -106 q-16 -90 -57.5 -154.5t-82.5 -107.5q-51 -51 -106 -86z" />
<glyph unicode="&#x201e;" horiz-adv-x="737" d="M-4 -195q35 25 65 54q25 25 48.5 55.5t29.5 65.5q-47 0 -74.5 34.5t-17.5 87.5t49 88t86 35q61 0 90 -36.5t19 -106.5q-16 -90 -57 -154.5t-82 -107.5q-49 -51 -107 -86zM324 -195q35 25 65 54q25 25 48.5 55.5t29.5 65.5q-47 0 -74.5 34.5t-17.5 87.5t49 88t86 35 q61 0 90 -36.5t18 -106.5q-16 -90 -57 -154.5t-82 -107.5q-49 -51 -106 -86z" />
<glyph unicode="&#x2020;" horiz-adv-x="942" d="M137 840l25 143h327l80 451h205l-80 -451h328l-25 -143h-327l-221 -1250h-205l221 1250h-328z" />
<glyph unicode="&#x2021;" horiz-adv-x="942" d="M-4 41l24 143h328l117 656h-328l25 143h327l80 451h205l-80 -451h328l-25 -143h-327l-117 -656h328l-25 -143h-328l-79 -451h-205l80 451h-328z" />
<glyph unicode="&#x2022;" horiz-adv-x="757" d="M193 635q20 109 100 177.5t188 68.5q109 0 166 -68.5t37 -177.5q-18 -109 -99 -177.5t-190 -68.5t-165 68.5t-37 177.5z" />
<glyph unicode="&#x2026;" horiz-adv-x="1187" d="M47 102q10 53 51 88t95 35q53 0 81.5 -34.5t18.5 -88.5q-10 -53 -50 -87.5t-93 -34.5t-83 34.5t-20 87.5zM436 102q10 53 51 88t95 35q53 0 81.5 -34.5t18.5 -88.5q-10 -53 -50 -87.5t-93 -34.5t-83 34.5t-20 87.5zM825 102q10 53 51.5 88t94.5 35t81.5 -34.5t18.5 -88.5 q-10 -53 -50 -87.5t-93 -34.5t-83 34.5t-20 87.5z" />
<glyph unicode="&#x202f;" horiz-adv-x="381" />
<glyph unicode="&#x2030;" horiz-adv-x="2316" d="M154 0l1214 1434h225l-1214 -1434h-225zM180 1085q31 178 138.5 273.5t254.5 95.5t220 -95t43 -274q-31 -178 -138.5 -273t-255.5 -95q-147 0 -219.5 95t-42.5 273zM355.5 968.5q2.5 -46.5 16 -75.5t38 -41t55.5 -12q61 0 111.5 53t74.5 192q25 137 -7 191.5t-93 54.5 t-111.5 -53t-74.5 -193q-12 -70 -9.5 -116.5zM909 348q33 178 140 273.5t254 95.5q145 0 219.5 -96.5t42.5 -272.5q-31 -178 -137.5 -273t-253.5 -95t-221 95t-44 273zM1084.5 231q2.5 -47 17 -75.5t38 -41t54.5 -12.5t59.5 12.5t53 41t43 76t30.5 116.5q25 137 -6 191.5 t-92 54.5t-112.5 -53.5t-75.5 -192.5q-12 -70 -9.5 -117zM1628 348q33 178 139.5 273.5t253.5 95.5q145 0 220 -96.5t43 -272.5q-31 -178 -137.5 -273t-254.5 -95q-147 0 -221 95t-43 273zM1803 231q3 -47 17.5 -75.5t38 -41t54.5 -12.5t59.5 12.5t53 41t43 76t30.5 116.5 q25 137 -6 191.5t-92 54.5t-112.5 -53.5t-76.5 -192.5q-12 -70 -9 -117z" />
<glyph unicode="&#x2039;" horiz-adv-x="675" d="M61 532l465 431h246l-465 -431l314 -430h-246z" />
<glyph unicode="&#x203a;" horiz-adv-x="696" d="M-14 102l465 430l-314 431h246l313 -431l-465 -430h-245z" />
<glyph unicode="&#x205f;" horiz-adv-x="476" />
<glyph unicode="&#x20ac;" horiz-adv-x="1116" d="M61 532l43 123h134l22 123h-143l41 123h131q43 147 104.5 253t138 172.5t166.5 97t193 30.5q86 0 148.5 -17.5t105.5 -39.5q49 -25 84 -56l-94 -122h-21q-27 25 -61 45q-29 16 -72 31.5t-96 15.5q-59 0 -115.5 -21.5t-107 -70t-93.5 -126t-75 -192.5h450l-41 -123h-438 l-23 -123h430l-43 -123h-401q-6 -115 10.5 -193.5t52 -126.5t88 -68.5t117.5 -20.5q53 0 101.5 14.5t83.5 30.5q41 20 77 47h21l49 -123q-47 -33 -104 -57q-49 -23 -118 -39t-155 -16q-109 0 -191.5 30.5t-139 97t-82 171t-15.5 253.5h-162z" />
<glyph unicode="&#x2116;" horiz-adv-x="1957" d="M133 0l252 1434h225l269 -912q6 -23 12 -53.5t10 -56.5q6 -33 8 -64h9q4 31 8 64q4 27 7 57.5t7 52.5l162 912h205l-252 -1434h-226l-270 911q-8 23 -13 52.5t-9 58.5q-6 31 -9 63h-8q-4 -33 -8 -63q-4 -29 -7 -58.5t-7 -52.5l-160 -911h-205zM1298 451l27 143h573 l-26 -143h-574zM1370 1085q31 178 138.5 273.5t254.5 95.5t220 -95t42 -274q-31 -178 -138 -273t-255 -95q-147 0 -220 95t-42 273zM1545 968.5q3 -46.5 16.5 -75.5t38 -41t55.5 -12q61 0 111.5 53t74.5 192q25 137 -7 191.5t-93 54.5t-111.5 -53t-75.5 -193 q-12 -70 -9 -116.5z" />
<glyph unicode="&#x2122;" horiz-adv-x="1740" d="M197 1300l24 134h676l-25 -134h-245l-113 -645h-184l112 645h-245zM842 655l137 779h195l143 -410q4 -12 6 -24.5t4 -22.5q2 -12 2 -25h8q4 12 13 25q6 10 12 22.5t16 24.5l287 410h195l-138 -779h-184l66 369q4 18 7 38.5t7 37.5q4 20 10 37h-10q-10 -18 -21 -39 q-18 -35 -45 -74l-166 -236h-163l-80 236q-8 18 -12.5 37.5t-8.5 36.5q-4 20 -8 39h-10q-2 -16 -4 -37q-2 -16 -3 -37t-5 -39l-66 -369h-184z" />
<glyph unicode="&#xe000;" horiz-adv-x="1024" d="M0 0v1024h1024v-1024h-1024z" />
<glyph horiz-adv-x="266" d="M-104 -420q33 20 59 45q23 23 43 50.5t27 58.5q-39 0 -64.5 32.5t-17.5 79.5t45 80t75 33q53 0 82 -36t19 -95q-16 -82 -51 -140.5t-72 -97.5q-43 -45 -94 -73z" />
<glyph horiz-adv-x="2631" d="M82 532l397 338l-59 -338h-338zM510 696q6 35 25.5 67t48 55.5t62.5 37.5t69 14q70 0 112.5 -52t30.5 -122q-6 -35 -25.5 -66.5t-48 -55t-62.5 -38t-69 -14.5q-70 0 -111.5 52.5t-31.5 121.5zM889 860h368l-245 -338zM1106 532l244 338l125 -338h-369zM1505 532l51 287 l236 -287h-287zM1606 860h286l-51 -287zM1907 532l51 287l235 -287h-286zM2007 860h287l-51 -287zM2322 860h369l-246 -338z" />
<glyph horiz-adv-x="737" d="M0 0z" />
</font>
</defs>
</svg>
